<?xml version="1.0" encoding="UTF-8" standalone="no"?>
<!-- Created with Inkscape (http://www.inkscape.org/) -->

<svg
   width="25.887758mm"
   height="30.596628mm"
   viewBox="0 0 25.887758 30.596628"
   version="1.1"
   id="svg1"
   inkscape:version="1.3.2 (1:1.3.2+202311252150+091e20ef0f)"
   sodipodi:docname="Q_polovi.svg"
   xmlns:inkscape="http://www.inkscape.org/namespaces/inkscape"
   xmlns:sodipodi="http://sodipodi.sourceforge.net/DTD/sodipodi-0.dtd"
   xmlns="http://www.w3.org/2000/svg"
   xmlns:svg="http://www.w3.org/2000/svg">
  <sodipodi:namedview
     id="namedview1"
     pagecolor="#ffffff"
     bordercolor="#666666"
     borderopacity="1.0"
     inkscape:showpageshadow="2"
     inkscape:pageopacity="0.0"
     inkscape:pagecheckerboard="0"
     inkscape:deskcolor="#d1d1d1"
     inkscape:document-units="mm"
     inkscape:zoom="5.8154882"
     inkscape:cx="48.921086"
     inkscape:cy="102.82886"
     inkscape:window-width="1920"
     inkscape:window-height="1016"
     inkscape:window-x="0"
     inkscape:window-y="0"
     inkscape:window-maximized="1"
     inkscape:current-layer="layer1" />
  <defs
     id="defs1">
    <marker
       style="overflow:visible"
       id="marker10"
       refX="0"
       refY="0"
       orient="auto-start-reverse"
       inkscape:stockid="Wide arrow"
       markerWidth="1"
       markerHeight="1"
       viewBox="0 0 1 1"
       inkscape:isstock="true"
       inkscape:collect="always"
       preserveAspectRatio="xMidYMid">
      <path
         style="fill:none;stroke:context-stroke;stroke-width:1;stroke-linecap:butt"
         d="M 3,-3 0,0 3,3"
         transform="rotate(180,0.125,0)"
         sodipodi:nodetypes="ccc"
         id="path10" />
    </marker>
    <marker
       style="overflow:visible"
       id="Triangle"
       refX="0"
       refY="0"
       orient="auto-start-reverse"
       inkscape:stockid="Triangle arrow"
       markerWidth="1.61"
       markerHeight="1"
       viewBox="0 0 1 1"
       inkscape:isstock="true"
       inkscape:collect="always"
       preserveAspectRatio="none">
      <path
         transform="scale(0.5)"
         style="fill:context-stroke;fill-rule:evenodd;stroke:context-stroke;stroke-width:1pt"
         d="M 5.77,0 -2.88,5 V -5 Z"
         id="path135" />
    </marker>
  </defs>
  <g
     inkscape:label="Layer 1"
     inkscape:groupmode="layer"
     id="layer1"
     transform="translate(-5.13106, -1.69421)">
    <path
       style="opacity:1;fill:none;stroke:#000000;stroke-width:0.264583;stroke-linecap:round;stroke-linejoin:round;marker-end:url(#Triangle)"
       d="m 5.2633559,16.992521 20.3725921,0.03029"
       id="path1"
       sodipodi:nodetypes="cc" />
    <path
       style="opacity:1;fill:none;stroke:#000000;stroke-width:0.264583;stroke-linecap:round;stroke-linejoin:round;marker-end:url(#Triangle)"
       d="M 20.429379,32.158544 V 3.2068887"
       id="path2" />
    <g
       inkscape:label=""
       transform="translate(16.763142,2.0524971)"
       id="g7">
      <g
         id="g6"
         transform="matrix(0.352778,0,0,0.352778,-0.807817,-0.661723)">
        <g
           style="fill:#000000;fill-opacity:1"
           id="g5">
          <g
             id="g4"
             transform="translate(1.993,6.2820001)">
            <path
               style="stroke:none"
               d="m 4.84375,-3.796875 c 0.046875,-0.140625 0.046875,-0.15625 0.046875,-0.234375 0,-0.171875 -0.140625,-0.265625 -0.296875,-0.265625 -0.09375,0 -0.25,0.0625 -0.34375,0.203125 -0.015625,0.0625 -0.109375,0.359375 -0.140625,0.546875 -0.078125,0.25 -0.140625,0.53125 -0.203125,0.796875 l -0.453125,1.796875 c -0.03125,0.140625 -0.46875,0.84375 -1.125,0.84375 -0.5,0 -0.609375,-0.4375 -0.609375,-0.8125 C 1.71875,-1.375 1.890625,-2 2.21875,-2.875 2.375,-3.28125 2.421875,-3.390625 2.421875,-3.59375 c 0,-0.4375 -0.3125,-0.8125 -0.8125,-0.8125 -0.953125,0 -1.3125,1.453125 -1.3125,1.53125 0,0.109375 0.09375,0.109375 0.109375,0.109375 0.109375,0 0.109375,-0.03125 0.15625,-0.1875 0.28125,-0.9375 0.671875,-1.234375 1.015625,-1.234375 0.078125,0 0.25,0 0.25,0.3125 0,0.25 -0.109375,0.515625 -0.171875,0.703125 -0.40625,1.0625 -0.578125,1.625 -0.578125,2.09375 0,0.890625 0.625,1.1875 1.21875,1.1875 0.390625,0 0.71875,-0.171875 1,-0.453125 -0.125,0.515625 -0.25,1.015625 -0.640625,1.546875 -0.265625,0.328125 -0.640625,0.625 -1.09375,0.625 -0.140625,0 -0.59375,-0.03125 -0.765625,-0.421875 0.15625,0 0.296875,0 0.421875,-0.125 C 1.328125,1.203125 1.421875,1.0625 1.421875,0.875 1.421875,0.5625 1.15625,0.53125 1.0625,0.53125 0.828125,0.53125 0.5,0.6875 0.5,1.171875 c 0,0.5 0.4375,0.875 1.0625,0.875 1.015625,0 2.046875,-0.90625 2.328125,-2.03125 z m 0,0"
               id="path4" />
          </g>
        </g>
      </g>
    </g>
    <path
       style="opacity:1;fill:none;stroke:#000000;stroke-width:0.132292;stroke-linecap:round;stroke-linejoin:round;stroke-dasharray:0.79375, 0.79375;stroke-dashoffset:0"
       id="path7"
       sodipodi:type="arc"
       sodipodi:cx="20.429379"
       sodipodi:cy="16.992521"
       sodipodi:rx="11.372296"
       sodipodi:ry="11.372296"
       sodipodi:start="1.0471976"
       sodipodi:end="5.2359878"
       sodipodi:open="true"
       sodipodi:arc-type="arc"
       d="m 26.115526,26.841219 a 11.372296,11.372296 0 0 1 -14.397832,-2.538727 11.372296,11.372296 0 0 1 0,-14.6199423 11.372296,11.372296 0 0 1 14.397833,-2.5387257" />
    <path
       style="opacity:1;fill:none;stroke:#000000;stroke-width:0.132292;stroke-linecap:round;stroke-linejoin:round;stroke-dasharray:0.396875, 0.396875;stroke-dashoffset:0"
       d="M 20.429379,16.992521 15.094893,6.9489967"
       id="path8"
       sodipodi:nodetypes="cc" />
    <path
       style="opacity:1;fill:none;stroke:#000000;stroke-width:0.132292;stroke-linecap:round;stroke-linejoin:round;stroke-dasharray:none;stroke-dashoffset:0;marker-end:url(#marker10)"
       id="circle8"
       sodipodi:type="arc"
       sodipodi:cx="20.429426"
       sodipodi:cy="16.994591"
       sodipodi:rx="4.5739689"
       sodipodi:ry="4.5739689"
       sodipodi:start="3.1415927"
       sodipodi:end="4.1887902"
       sodipodi:arc-type="arc"
       d="m 15.855457,16.994591 a 4.5739689,4.5739689 0 0 1 2.286985,-3.961173"
       sodipodi:open="true" />
    <g
       inkscape:label=""
       transform="translate(13.932277,6.2759086)"
       id="g21">
      <g
         id="g20"
         transform="matrix(0.352778,0,0,0.352778,-1.22123,-1.02777)">
        <path
           style="fill:none;stroke:#000000;stroke-width:0.75;stroke-linecap:round;stroke-linejoin:round;stroke-dasharray:none;stroke-dashoffset:0"
           d="M 5.3999426,6.1787384 C 5.5643387,5.9813918 8.1147654,3.4639156 8.1147654,3.4639156"
           id="path21" />
        <path
           style="fill:none;stroke:#000000;stroke-width:0.75;stroke-linecap:round;stroke-linejoin:round;stroke-dasharray:none;stroke-dashoffset:0"
           d="M 5.3999426,3.4639156 C 5.5972892,3.6283117 8.1147654,6.1787384 8.1147654,6.1787384"
           id="path23" />
      </g>
    </g>
    <path
       style="opacity:1;fill:none;stroke:#000000;stroke-width:0.132292;stroke-linecap:round;stroke-linejoin:round;stroke-dasharray:0.396875, 0.396875;stroke-dashoffset:0"
       d="M 20.429379,17.124813 15.094893,27.168337"
       id="path24"
       sodipodi:nodetypes="cc" />
    <g
       inkscape:label=""
       transform="matrix(1,0,0,-1,13.932277,27.841425)"
       id="g27">
      <g
         id="g26"
         transform="matrix(0.352778,0,0,0.352778,-1.22123,-1.02777)">
        <path
           style="fill:none;stroke:#000000;stroke-width:0.75;stroke-linecap:round;stroke-linejoin:round;stroke-dasharray:none;stroke-dashoffset:0"
           d="M 5.3999426,6.1787384 C 5.5643387,5.9813918 8.1147654,3.4639156 8.1147654,3.4639156"
           id="path25" />
        <path
           style="fill:none;stroke:#000000;stroke-width:0.75;stroke-linecap:round;stroke-linejoin:round;stroke-dasharray:none;stroke-dashoffset:0"
           d="M 5.3999426,3.4639156 C 5.5972892,3.6283117 8.1147654,6.1787384 8.1147654,6.1787384"
           id="path26" />
      </g>
    </g>
    <g
       inkscape:label=""
       transform="translate(14.483736,13.103127)"
       id="g31">
      <g
         id="g30"
         transform="matrix(0.352778,0,0,0.352778,-0.84089,-0.704056)">
        <g
           style="fill:#000000;fill-opacity:1"
           id="g29">
          <g
             id="g28"
             transform="translate(1.993,8.1520004)">
            <path
               style="stroke:none"
               d="m 2.375,-6.15625 c -0.359375,0 -0.71875,0.140625 -1.046875,0.421875 -0.609375,0.5 -0.9375,1.46875 -0.9375,2.71875 0,1.171875 0.296875,2.09375 0.8125,2.609375 0.359375,0.328125 0.78125,0.515625 1.171875,0.515625 0.34375,0 0.6875,-0.140625 1.03125,-0.421875 0.609375,-0.484375 0.9375,-1.453125 0.9375,-2.65625 0,-1.234375 -0.28125,-2.140625 -0.8125,-2.65625 C 3.171875,-5.96875 2.765625,-6.15625 2.375,-6.15625 Z m 1.046875,3.359375 C 3.40625,-1.78125 3.296875,-1.1875 3.046875,-0.71875 2.875,-0.4375 2.59375,-0.234375 2.375,-0.234375 c -0.234375,0 -0.53125,-0.21875 -0.6875,-0.484375 -0.25,-0.46875 -0.359375,-1.0625 -0.375,-2.078125 z m -2.109375,-0.5 C 1.328125,-4.28125 1.4375,-4.875 1.6875,-5.34375 1.84375,-5.609375 2.140625,-5.828125 2.375,-5.828125 c 0.21875,0 0.515625,0.21875 0.671875,0.484375 0.25,0.46875 0.359375,1.0625 0.375,2.046875 z m 0,0"
               id="path27" />
          </g>
        </g>
      </g>
    </g>
    <g
       inkscape:label=""
       transform="translate(5.9175157,8.6502809)"
       id="g35">
      <g
         id="g34"
         transform="matrix(0.352778,0,0,0.352778,-0.835378,-0.676363)">
        <g
           style="fill:#000000;fill-opacity:1"
           id="g32">
          <g
             id="use4"
             transform="translate(1.993,6.5110002)">
            <path
               style="stroke:none"
               d="m 3.84375,-4.375 c 0.328125,0.09375 0.53125,0.203125 0.71875,0.390625 0.390625,0.359375 0.625,1.0625 0.625,1.84375 0,0.578125 -0.109375,1.140625 -0.28125,1.46875 -0.109375,0.203125 -0.328125,0.34375 -0.5625,0.34375 -0.453125,0 -0.75,-0.375 -0.875,-1.09375 C 3.6875,-2.03125 3.734375,-2.3125 3.734375,-2.75 c 0,-0.625 -0.171875,-1 -0.484375,-1 -0.296875,0 -0.484375,0.375 -0.484375,1 0,0.4375 0.0625,0.71875 0.28125,1.328125 -0.125,0.71875 -0.421875,1.09375 -0.875,1.09375 -0.234375,0 -0.453125,-0.140625 -0.5625,-0.34375 C 1.4375,-1 1.328125,-1.546875 1.328125,-2.140625 c 0,-0.71875 0.203125,-1.40625 0.53125,-1.765625 0.21875,-0.234375 0.4375,-0.359375 0.8125,-0.46875 V -4.59375 C 2.1875,-4.59375 1.875,-4.53125 1.59375,-4.421875 0.859375,-4.09375 0.375,-3.1875 0.375,-2.078125 c 0,1.25 0.703125,2.1875 1.609375,2.1875 0.546875,0 0.96875,-0.28125 1.265625,-0.90625 0.3125,0.625 0.734375,0.90625 1.265625,0.90625 0.921875,0 1.625,-0.9375 1.625,-2.1875 C 6.140625,-3.125 5.6875,-4.015625 5,-4.375 4.71875,-4.53125 4.375,-4.59375 3.84375,-4.59375 Z m 0,0"
               id="path6" />
          </g>
        </g>
        <g
           style="fill:#000000;fill-opacity:1"
           id="g33">
          <g
             id="use5"
             transform="translate(8.1429996,8.0050001)">
            <path
               style="stroke:none"
               d="M 1.8125,-4.65625 C 1.734375,-4.75 1.734375,-4.765625 1.59375,-4.765625 H 0.390625 v 0.25 H 0.59375 c 0.3125,0 0.484375,0.046875 0.515625,0.046875 V -0.75 c 0,0.1875 0,0.5 -0.71875,0.5 V 0 c 0.28125,-0.015625 0.5625,-0.03125 0.84375,-0.03125 C 1.53125,-0.03125 1.8125,-0.015625 2.09375,0 V -0.25 C 1.375,-0.25 1.375,-0.5625 1.375,-0.75 v -3.515625 l 3.09375,4.15625 C 4.53125,0 4.546875,0 4.625,0 4.765625,0 4.765625,-0.0625 4.765625,-0.1875 V -4 c 0,-0.1875 0,-0.515625 0.71875,-0.515625 v -0.25 C 5.1875,-4.734375 4.90625,-4.734375 4.625,-4.734375 c -0.28125,0 -0.5625,0 -0.84375,-0.03125 v 0.25 C 4.5,-4.515625 4.5,-4.1875 4.5,-4 v 2.953125 z m 0,0"
               id="path32" />
          </g>
        </g>
      </g>
    </g>
    <g
       inkscape:label=""
       transform="translate(21.243684,12.655948)"
       id="g37">
      <g
         id="g36"
         transform="matrix(0.352778,0,0,0.352778,-0.758208,-0.698721)">
        <g
           style="fill:#000000;fill-opacity:1"
           id="g9">
          <g
             id="use8"
             transform="translate(1.993,9.4650002)">
            <path
               style="stroke:none"
               d="M 2.671875,-3.125 H 3.03125 l 1.5,2.3125 C 4.625,-0.65625 4.859375,-0.265625 4.96875,-0.125 5.046875,0 5.078125,0 5.296875,0 h 1.375 c 0.1875,0 0.34375,0 0.34375,-0.171875 0,-0.09375 -0.0625,-0.15625 -0.15625,-0.171875 C 6.484375,-0.421875 6,-1.09375 5.765625,-1.40625 5.6875,-1.5 5.1875,-2.15625 4.53125,-3.234375 5.40625,-3.40625 6.265625,-3.78125 6.265625,-4.96875 6.265625,-6.34375 4.8125,-6.828125 3.625,-6.828125 H 0.5 c -0.1875,0 -0.34375,0 -0.34375,0.171875 0,0.171875 0.1875,0.171875 0.265625,0.171875 0.578125,0 0.625,0.078125 0.625,0.578125 v 4.984375 c 0,0.5 -0.046875,0.578125 -0.625,0.578125 -0.078125,0 -0.265625,0 -0.265625,0.171875 C 0.15625,0 0.3125,0 0.5,0 H 3.234375 C 3.40625,0 3.5625,0 3.5625,-0.171875 c 0,-0.171875 -0.171875,-0.171875 -0.28125,-0.171875 -0.5625,0 -0.609375,-0.078125 -0.609375,-0.578125 z m 1.921875,-0.5 c 0.28125,-0.359375 0.3125,-0.890625 0.3125,-1.328125 0,-0.484375 -0.0625,-1.015625 -0.375,-1.421875 0.40625,0.09375 1.390625,0.40625 1.390625,1.40625 0,0.65625 -0.296875,1.15625 -1.328125,1.34375 z M 2.671875,-5.9375 c 0,-0.21875 0,-0.546875 0.625,-0.546875 0.84375,0 1.265625,0.359375 1.265625,1.53125 0,1.28125 -0.3125,1.46875 -1.890625,1.46875 z M 1.3125,-0.34375 C 1.390625,-0.53125 1.390625,-0.8125 1.390625,-0.890625 V -5.9375 c 0,-0.09375 0,-0.359375 -0.078125,-0.546875 h 1.140625 c -0.125,0.171875 -0.125,0.359375 -0.125,0.515625 v 5.078125 c 0,0.09375 0,0.359375 0.078125,0.546875 z M 3.4375,-3.125 c 0.078125,-0.015625 0.109375,-0.03125 0.1875,-0.03125 0.15625,0 0.375,-0.015625 0.515625,-0.03125 0.15625,0.234375 1.234375,2.015625 2.0625,2.84375 h -0.96875 z m 0,0"
               id="path12" />
          </g>
        </g>
        <g
           style="fill:#000000;fill-opacity:1"
           id="g10">
          <g
             id="use9"
             transform="translate(9.1879997,9.4650002)">
            <path
               style="stroke:none"
               d="M 1.109375,-2.515625 C 1.171875,-4 2.015625,-4.25 2.359375,-4.25 c 1.015625,0 1.125,1.34375 1.125,1.734375 z m 0,0.21875 h 2.78125 c 0.21875,0 0.25,0 0.25,-0.21875 0,-0.984375 -0.546875,-1.953125 -1.78125,-1.953125 -1.15625,0 -2.078125,1.03125 -2.078125,2.28125 0,1.328125 1.046875,2.296875 2.1875,2.296875 C 3.6875,0.109375 4.140625,-1 4.140625,-1.1875 4.140625,-1.28125 4.0625,-1.3125 4,-1.3125 c -0.078125,0 -0.109375,0.0625 -0.125,0.140625 -0.34375,1.03125 -1.25,1.03125 -1.34375,1.03125 -0.5,0 -0.890625,-0.296875 -1.125,-0.671875 -0.296875,-0.46875 -0.296875,-1.125 -0.296875,-1.484375 z m 0,0"
               id="path13" />
          </g>
          <g
             id="use10"
             transform="translate(13.615379,9.4650002)">
            <path
               style="stroke:none"
               d="m 3.296875,2.390625 c 0,-0.03125 0,-0.046875 -0.171875,-0.21875 C 1.890625,0.921875 1.5625,-0.96875 1.5625,-2.5 c 0,-1.734375 0.375,-3.46875 1.609375,-4.703125 0.125,-0.125 0.125,-0.140625 0.125,-0.171875 0,-0.078125 -0.03125,-0.109375 -0.09375,-0.109375 -0.109375,0 -1,0.6875 -1.59375,1.953125 -0.5,1.09375 -0.625,2.203125 -0.625,3.03125 0,0.78125 0.109375,1.984375 0.65625,3.125 C 2.25,1.84375 3.09375,2.5 3.203125,2.5 c 0.0625,0 0.09375,-0.03125 0.09375,-0.109375 z m 0,0"
               id="path14" />
          </g>
        </g>
        <g
           style="fill:#000000;fill-opacity:1"
           id="g11">
          <g
             id="use11"
             transform="translate(17.49,9.4650002)">
            <path
               style="stroke:none"
               d="M 3.890625,-3.734375 C 3.625,-3.71875 3.421875,-3.5 3.421875,-3.28125 c 0,0.140625 0.09375,0.296875 0.3125,0.296875 0.21875,0 0.453125,-0.171875 0.453125,-0.5625 C 4.1875,-4 3.765625,-4.40625 3,-4.40625 c -1.3125,0 -1.6875,1.015625 -1.6875,1.453125 0,0.78125 0.734375,0.921875 1.03125,0.984375 0.515625,0.109375 1.03125,0.21875 1.03125,0.765625 0,0.25 -0.21875,1.09375 -1.421875,1.09375 -0.140625,0 -0.90625,0 -1.140625,-0.53125 0.390625,0.046875 0.640625,-0.25 0.640625,-0.53125 0,-0.21875 -0.171875,-0.34375 -0.375,-0.34375 -0.265625,0 -0.5625,0.203125 -0.5625,0.65625 0,0.5625 0.578125,0.96875 1.421875,0.96875 1.625,0 2.015625,-1.203125 2.015625,-1.65625 0,-0.359375 -0.1875,-0.609375 -0.3125,-0.71875 -0.265625,-0.28125 -0.5625,-0.34375 -1,-0.421875 -0.359375,-0.078125 -0.75,-0.15625 -0.75,-0.609375 C 1.890625,-3.578125 2.125,-4.1875 3,-4.1875 c 0.25,0 0.75,0.078125 0.890625,0.453125 z m 0,0"
               id="path15" />
          </g>
        </g>
        <g
           style="fill:#000000;fill-opacity:1"
           id="g12">
          <g
             id="use12"
             transform="translate(22.16,9.4650002)">
            <path
               style="stroke:none"
               d="m 2.875,-2.5 c 0,-0.765625 -0.109375,-1.96875 -0.65625,-3.109375 -0.59375,-1.21875 -1.453125,-1.875 -1.546875,-1.875 -0.0625,0 -0.109375,0.046875 -0.109375,0.109375 0,0.03125 0,0.046875 0.1875,0.234375 0.984375,0.984375 1.546875,2.5625 1.546875,4.640625 0,1.71875 -0.359375,3.46875 -1.59375,4.71875 C 0.5625,2.34375 0.5625,2.359375 0.5625,2.390625 0.5625,2.453125 0.609375,2.5 0.671875,2.5 0.765625,2.5 1.671875,1.8125 2.25,0.546875 2.765625,-0.546875 2.875,-1.65625 2.875,-2.5 Z m 0,0"
               id="path16" />
          </g>
        </g>
      </g>
    </g>
    <g
       inkscape:label=""
       transform="translate(21.661398,1.9902299)"
       id="g47">
      <g
         id="surface2"
         transform="matrix(0.352778,0,0,0.352778,-0.774744,-0.698721)">
        <g
           style="fill:#000000;fill-opacity:1"
           id="g39">
          <g
             id="g38"
             transform="translate(1.993,9.4650002)">
            <path
               style="stroke:none"
               d="m 2.75,-5.90625 c 0,-0.46875 0.03125,-0.578125 0.625,-0.578125 0.140625,0 0.296875,0 0.296875,-0.171875 0,-0.171875 -0.140625,-0.171875 -0.328125,-0.171875 h -2.8125 c -0.171875,0 -0.328125,0 -0.328125,0.171875 0,0.171875 0.171875,0.171875 0.328125,0.171875 0.5625,0 0.59375,0.109375 0.59375,0.578125 v 4.984375 c 0,0.484375 -0.03125,0.578125 -0.609375,0.578125 -0.140625,0 -0.3125,0 -0.3125,0.171875 C 0.203125,0 0.359375,0 0.53125,0 h 2.8125 c 0.1875,0 0.328125,0 0.328125,-0.171875 0,-0.171875 -0.15625,-0.171875 -0.265625,-0.171875 C 2.796875,-0.34375 2.75,-0.421875 2.75,-0.921875 Z M 1.46875,-5.9375 c 0,-0.140625 0,-0.359375 -0.078125,-0.546875 H 2.5 c -0.09375,0.1875 -0.09375,0.40625 -0.09375,0.546875 v 5.046875 c 0,0.140625 0,0.359375 0.09375,0.546875 H 1.390625 C 1.46875,-0.53125 1.46875,-0.75 1.46875,-0.890625 Z m 0,0"
               id="path37" />
          </g>
        </g>
        <g
           style="fill:#000000;fill-opacity:1"
           id="g42">
          <g
             id="g40"
             transform="translate(5.8670001,9.4650002)">
            <path
               style="stroke:none"
               d="M 1.09375,-3.421875 V -0.75 c 0,0.4375 -0.109375,0.4375 -0.78125,0.4375 V 0 c 0.359375,-0.015625 0.859375,-0.03125 1.140625,-0.03125 0.25,0 0.765625,0.015625 1.109375,0.03125 v -0.3125 c -0.671875,0 -0.78125,0 -0.78125,-0.4375 V -2.59375 C 1.78125,-3.625 2.5,-4.1875 3.125,-4.1875 c 0.640625,0 0.75,0.53125 0.75,1.109375 V -0.75 c 0,0.4375 -0.109375,0.4375 -0.78125,0.4375 V 0 c 0.34375,-0.015625 0.859375,-0.03125 1.125,-0.03125 0.25,0 0.78125,0.015625 1.109375,0.03125 v -0.3125 c -0.65625,0 -0.765625,0 -0.765625,-0.4375 v -1.84375 c 0,-1.03125 0.703125,-1.59375 1.34375,-1.59375 0.625,0 0.734375,0.53125 0.734375,1.109375 V -0.75 c 0,0.4375 -0.109375,0.4375 -0.78125,0.4375 V 0 c 0.34375,-0.015625 0.859375,-0.03125 1.125,-0.03125 0.265625,0 0.78125,0.015625 1.125,0.03125 v -0.3125 c -0.515625,0 -0.765625,0 -0.78125,-0.296875 v -1.90625 c 0,-0.859375 0,-1.15625 -0.3125,-1.515625 -0.140625,-0.171875 -0.46875,-0.375 -1.046875,-0.375 -0.828125,0 -1.28125,0.59375 -1.4375,0.984375 C 4.390625,-4.296875 3.65625,-4.40625 3.203125,-4.40625 2.46875,-4.40625 2,-3.984375 1.71875,-3.359375 V -4.40625 L 0.3125,-4.296875 v 0.3125 c 0.703125,0 0.78125,0.0625 0.78125,0.5625 z m 0,0"
               id="path39" />
          </g>
          <g
             id="g41"
             transform="translate(14.168835,9.4650002)">
            <path
               style="stroke:none"
               d="m 3.296875,2.390625 c 0,-0.03125 0,-0.046875 -0.171875,-0.21875 C 1.890625,0.921875 1.5625,-0.96875 1.5625,-2.5 c 0,-1.734375 0.375,-3.46875 1.609375,-4.703125 0.125,-0.125 0.125,-0.140625 0.125,-0.171875 0,-0.078125 -0.03125,-0.109375 -0.09375,-0.109375 -0.109375,0 -1,0.6875 -1.59375,1.953125 -0.5,1.09375 -0.625,2.203125 -0.625,3.03125 0,0.78125 0.109375,1.984375 0.65625,3.125 C 2.25,1.84375 3.09375,2.5 3.203125,2.5 c 0.0625,0 0.09375,-0.03125 0.09375,-0.109375 z m 0,0"
               id="path40" />
          </g>
        </g>
        <g
           style="fill:#000000;fill-opacity:1"
           id="g44">
          <g
             id="g43"
             transform="translate(18.044001,9.4650002)">
            <path
               style="stroke:none"
               d="M 3.890625,-3.734375 C 3.625,-3.71875 3.421875,-3.5 3.421875,-3.28125 c 0,0.140625 0.09375,0.296875 0.3125,0.296875 0.21875,0 0.453125,-0.171875 0.453125,-0.5625 C 4.1875,-4 3.765625,-4.40625 3,-4.40625 c -1.3125,0 -1.6875,1.015625 -1.6875,1.453125 0,0.78125 0.734375,0.921875 1.03125,0.984375 0.515625,0.109375 1.03125,0.21875 1.03125,0.765625 0,0.25 -0.21875,1.09375 -1.421875,1.09375 -0.140625,0 -0.90625,0 -1.140625,-0.53125 0.390625,0.046875 0.640625,-0.25 0.640625,-0.53125 0,-0.21875 -0.171875,-0.34375 -0.375,-0.34375 -0.265625,0 -0.5625,0.203125 -0.5625,0.65625 0,0.5625 0.578125,0.96875 1.421875,0.96875 1.625,0 2.015625,-1.203125 2.015625,-1.65625 0,-0.359375 -0.1875,-0.609375 -0.3125,-0.71875 -0.265625,-0.28125 -0.5625,-0.34375 -1,-0.421875 -0.359375,-0.078125 -0.75,-0.15625 -0.75,-0.609375 C 1.890625,-3.578125 2.125,-4.1875 3,-4.1875 c 0.25,0 0.75,0.078125 0.890625,0.453125 z m 0,0"
               id="path42" />
          </g>
        </g>
        <g
           style="fill:#000000;fill-opacity:1"
           id="g46">
          <g
             id="g45"
             transform="translate(22.714001,9.4650002)">
            <path
               style="stroke:none"
               d="m 2.875,-2.5 c 0,-0.765625 -0.109375,-1.96875 -0.65625,-3.109375 -0.59375,-1.21875 -1.453125,-1.875 -1.546875,-1.875 -0.0625,0 -0.109375,0.046875 -0.109375,0.109375 0,0.03125 0,0.046875 0.1875,0.234375 0.984375,0.984375 1.546875,2.5625 1.546875,4.640625 0,1.71875 -0.359375,3.46875 -1.59375,4.71875 C 0.5625,2.34375 0.5625,2.359375 0.5625,2.390625 0.5625,2.453125 0.609375,2.5 0.671875,2.5 0.765625,2.5 1.671875,1.8125 2.25,0.546875 2.765625,-0.546875 2.875,-1.65625 2.875,-2.5 Z m 0,0"
               id="path44" />
          </g>
        </g>
      </g>
    </g>
    <g
       inkscape:label=""
       transform="translate(11.195006,3.8533383)"
       id="g53">
      <g
         id="g52"
         transform="matrix(0.352778,0,0,0.352778,-0.884987,-0.661723)">
        <g
           style="fill:#000000;fill-opacity:1"
           id="g49">
          <g
             id="g48"
             transform="translate(1.993,6.2820001)">
            <path
               style="stroke:none"
               d="M 3.890625,-3.734375 C 3.625,-3.71875 3.421875,-3.5 3.421875,-3.28125 c 0,0.140625 0.09375,0.296875 0.3125,0.296875 0.21875,0 0.453125,-0.171875 0.453125,-0.5625 C 4.1875,-4 3.765625,-4.40625 3,-4.40625 c -1.3125,0 -1.6875,1.015625 -1.6875,1.453125 0,0.78125 0.734375,0.921875 1.03125,0.984375 0.515625,0.109375 1.03125,0.21875 1.03125,0.765625 0,0.25 -0.21875,1.09375 -1.421875,1.09375 -0.140625,0 -0.90625,0 -1.140625,-0.53125 0.390625,0.046875 0.640625,-0.25 0.640625,-0.53125 0,-0.21875 -0.171875,-0.34375 -0.375,-0.34375 -0.265625,0 -0.5625,0.203125 -0.5625,0.65625 0,0.5625 0.578125,0.96875 1.421875,0.96875 1.625,0 2.015625,-1.203125 2.015625,-1.65625 0,-0.359375 -0.1875,-0.609375 -0.3125,-0.71875 -0.265625,-0.28125 -0.5625,-0.34375 -1,-0.421875 -0.359375,-0.078125 -0.75,-0.15625 -0.75,-0.609375 C 1.890625,-3.578125 2.125,-4.1875 3,-4.1875 c 0.25,0 0.75,0.078125 0.890625,0.453125 z m 0,0"
               id="path47" />
          </g>
        </g>
        <g
           style="fill:#000000;fill-opacity:1"
           id="g51">
          <g
             id="g50"
             transform="translate(6.6630001,7.776)">
            <path
               style="stroke:none"
               d="M 3.515625,-1.265625 H 3.28125 c -0.015625,0.15625 -0.09375,0.5625 -0.1875,0.625 C 3.046875,-0.59375 2.515625,-0.59375 2.40625,-0.59375 H 1.125 c 0.734375,-0.640625 0.984375,-0.84375 1.390625,-1.171875 0.515625,-0.40625 1,-0.84375 1,-1.5 0,-0.84375 -0.734375,-1.359375 -1.625,-1.359375 -0.859375,0 -1.453125,0.609375 -1.453125,1.25 0,0.34375 0.296875,0.390625 0.375,0.390625 0.15625,0 0.359375,-0.125 0.359375,-0.375 0,-0.125 -0.046875,-0.375 -0.40625,-0.375 C 0.984375,-4.21875 1.453125,-4.375 1.78125,-4.375 c 0.703125,0 1.0625,0.546875 1.0625,1.109375 0,0.609375 -0.4375,1.078125 -0.65625,1.328125 L 0.515625,-0.265625 C 0.4375,-0.203125 0.4375,-0.1875 0.4375,0 h 2.875 z m 0,0"
               id="path49" />
          </g>
        </g>
      </g>
    </g>
    <g
       inkscape:label=""
       transform="translate(10.718435,27.779493)"
       id="g59">
      <g
         id="g58"
         transform="matrix(0.352778,0,0,0.352778,-0.884987,-0.661723)">
        <g
           style="fill:#000000;fill-opacity:1"
           id="g55">
          <g
             id="g54"
             transform="translate(1.993,6.2820001)">
            <path
               style="stroke:none"
               d="M 3.890625,-3.734375 C 3.625,-3.71875 3.421875,-3.5 3.421875,-3.28125 c 0,0.140625 0.09375,0.296875 0.3125,0.296875 0.21875,0 0.453125,-0.171875 0.453125,-0.5625 C 4.1875,-4 3.765625,-4.40625 3,-4.40625 c -1.3125,0 -1.6875,1.015625 -1.6875,1.453125 0,0.78125 0.734375,0.921875 1.03125,0.984375 0.515625,0.109375 1.03125,0.21875 1.03125,0.765625 0,0.25 -0.21875,1.09375 -1.421875,1.09375 -0.140625,0 -0.90625,0 -1.140625,-0.53125 0.390625,0.046875 0.640625,-0.25 0.640625,-0.53125 0,-0.21875 -0.171875,-0.34375 -0.375,-0.34375 -0.265625,0 -0.5625,0.203125 -0.5625,0.65625 0,0.5625 0.578125,0.96875 1.421875,0.96875 1.625,0 2.015625,-1.203125 2.015625,-1.65625 0,-0.359375 -0.1875,-0.609375 -0.3125,-0.71875 -0.265625,-0.28125 -0.5625,-0.34375 -1,-0.421875 -0.359375,-0.078125 -0.75,-0.15625 -0.75,-0.609375 C 1.890625,-3.578125 2.125,-4.1875 3,-4.1875 c 0.25,0 0.75,0.078125 0.890625,0.453125 z m 0,0"
               id="path53" />
          </g>
        </g>
        <g
           style="fill:#000000;fill-opacity:1"
           id="g57">
          <g
             id="g56"
             transform="translate(6.6630001,7.776)">
            <path
               style="stroke:none"
               d="m 1.90625,-2.328125 c 0.546875,0 0.9375,0.375 0.9375,1.125 0,0.859375 -0.515625,1.125 -0.90625,1.125 -0.28125,0 -0.90625,-0.078125 -1.1875,-0.5 0.328125,0 0.40625,-0.234375 0.40625,-0.390625 0,-0.21875 -0.171875,-0.375 -0.390625,-0.375 -0.1875,0 -0.390625,0.125 -0.390625,0.40625 0,0.65625 0.71875,1.078125 1.5625,1.078125 0.96875,0 1.640625,-0.65625 1.640625,-1.34375 0,-0.546875 -0.4375,-1.09375 -1.203125,-1.25 0.71875,-0.265625 0.984375,-0.78125 0.984375,-1.21875 0,-0.546875 -0.625,-0.953125 -1.40625,-0.953125 -0.765625,0 -1.359375,0.375 -1.359375,0.9375 0,0.234375 0.15625,0.359375 0.359375,0.359375 0.21875,0 0.359375,-0.15625 0.359375,-0.34375 0,-0.203125 -0.140625,-0.359375 -0.359375,-0.375 0.25,-0.296875 0.71875,-0.375 0.984375,-0.375 0.3125,0 0.75,0.15625 0.75,0.75 0,0.296875 -0.09375,0.625 -0.28125,0.828125 -0.21875,0.265625 -0.421875,0.28125 -0.765625,0.3125 -0.171875,0.015625 -0.1875,0.015625 -0.21875,0.015625 -0.015625,0 -0.078125,0.015625 -0.078125,0.09375 0,0.09375 0.0625,0.09375 0.1875,0.09375 z m 0,0"
               id="path55" />
          </g>
        </g>
      </g>
    </g>
  </g>
</svg>
