<?xml version="1.0" encoding="UTF-8" standalone="no"?>
<!-- Created with Inkscape (http://www.inkscape.org/) -->

<svg
   version="1.1"
   id="svg1"
   width="216.24452"
   height="208.70792"
   viewBox="0 0 216.24452 208.70792"
   sodipodi:docname="stab_edit.svg"
   inkscape:version="1.3.2 (1:1.3.2+202311252150+091e20ef0f)"
   xmlns:inkscape="http://www.inkscape.org/namespaces/inkscape"
   xmlns:sodipodi="http://sodipodi.sourceforge.net/DTD/sodipodi-0.dtd"
   xmlns:xlink="http://www.w3.org/1999/xlink"
   xmlns="http://www.w3.org/2000/svg"
   xmlns:svg="http://www.w3.org/2000/svg">
  <sodipodi:namedview
     id="namedview1"
     pagecolor="#ffffff"
     bordercolor="#666666"
     borderopacity="1.0"
     inkscape:showpageshadow="2"
     inkscape:pageopacity="0.0"
     inkscape:pagecheckerboard="0"
     inkscape:deskcolor="#d1d1d1"
     inkscape:zoom="1.8167143"
     inkscape:cx="12.660218"
     inkscape:cy="177.24306"
     inkscape:window-width="1920"
     inkscape:window-height="1016"
     inkscape:window-x="0"
     inkscape:window-y="0"
     inkscape:window-maximized="1"
     inkscape:current-layer="g1">
    <inkscape:page
       x="0"
       y="0"
       inkscape:label="1"
       id="page1"
       width="216.24452"
       height="208.70792"
       margin="0"
       bleed="0" />
  </sodipodi:namedview>
  <defs
     id="defs1">
    <marker
       style="overflow:visible"
       id="ConcaveTriangle"
       refX="0"
       refY="0"
       orient="auto-start-reverse"
       inkscape:stockid="Concave triangle arrow"
       markerWidth="1"
       markerHeight="1"
       viewBox="0 0 1 1"
       inkscape:isstock="true"
       inkscape:collect="always"
       preserveAspectRatio="xMidYMid">
      <path
         transform="scale(0.7)"
         d="M -2,-4 9,0 -2,4 c 2,-2.33 2,-5.66 0,-8 z"
         style="fill:context-stroke;fill-rule:evenodd;stroke:none"
         id="path164" />
    </marker>
    <pattern
       inkscape:collect="always"
       xlink:href="#Strips1_3"
       preserveAspectRatio="xMidYMid"
       id="pattern125"
       patternTransform="rotate(-45)"
       x="0"
       y="0" />
    <pattern
       inkscape:collect="always"
       patternUnits="userSpaceOnUse"
       width="4"
       height="1"
       patternTransform="translate(0,0) scale(2,2)"
       preserveAspectRatio="xMidYMid"
       id="Strips1_3"
       style="fill:#adadad"
       inkscape:stockid="Stripes 04 (1:3)"
       inkscape:isstock="true"
       inkscape:label="Stripes 04 (1:3)">
      <rect
         style="stroke:none"
         x="0"
         y="-0.5"
         width="1"
         height="2"
         id="rect152" />
    </pattern>
    <clipPath
       clipPathUnits="userSpaceOnUse"
       id="clipPath3">
      <path
         d="M 40.892719,37.099114 H 152.49272 V 145.81911 H 40.892719 Z"
         id="path3" />
    </clipPath>
    <clipPath
       clipPathUnits="userSpaceOnUse"
       id="clipPath8">
      <path
         d="M 40.892719,37.099114 H 152.49272 V 145.81911 H 40.892719 Z"
         id="path8" />
    </clipPath>
    <clipPath
       clipPathUnits="userSpaceOnUse"
       id="clipPath12">
      <path
         d="M 40.892719,37.099114 H 152.49272 V 145.81911 H 40.892719 Z"
         id="path12" />
    </clipPath>
    <clipPath
       clipPathUnits="userSpaceOnUse"
       id="clipPath16">
      <path
         d="M 40.892719,37.099114 H 152.49272 V 145.81911 H 40.892719 Z"
         id="path16" />
    </clipPath>
    <clipPath
       clipPathUnits="userSpaceOnUse"
       id="clipPath19">
      <path
         d="M 40.892719,37.099114 H 152.49272 V 145.81911 H 40.892719 Z"
         id="path19" />
    </clipPath>
    <clipPath
       clipPathUnits="userSpaceOnUse"
       id="clipPath22">
      <path
         d="M 40.892719,37.099114 H 152.49272 V 145.81911 H 40.892719 Z"
         id="path22" />
    </clipPath>
    <clipPath
       clipPathUnits="userSpaceOnUse"
       id="clipPath25">
      <path
         d="M 40.892719,37.099114 H 152.49272 V 145.81911 H 40.892719 Z"
         id="path25" />
    </clipPath>
    <clipPath
       clipPathUnits="userSpaceOnUse"
       id="clipPath28">
      <path
         d="M 40.892719,37.099114 H 152.49272 V 145.81911 H 40.892719 Z"
         id="path28" />
    </clipPath>
    <clipPath
       clipPathUnits="userSpaceOnUse"
       id="clipPath31">
      <path
         d="M 40.892719,37.099114 H 152.49272 V 145.81911 H 40.892719 Z"
         id="path31" />
    </clipPath>
    <clipPath
       clipPathUnits="userSpaceOnUse"
       id="clipPath39">
      <path
         d="M 40.892719,37.099114 H 152.49272 V 145.81911 H 40.892719 Z"
         id="path39" />
    </clipPath>
    <clipPath
       clipPathUnits="userSpaceOnUse"
       id="clipPath44">
      <path
         d="M 40.892719,37.099114 H 152.49272 V 145.81911 H 40.892719 Z"
         id="path44" />
    </clipPath>
    <clipPath
       clipPathUnits="userSpaceOnUse"
       id="clipPath49">
      <path
         d="M 40.892719,37.099114 H 152.49272 V 145.81911 H 40.892719 Z"
         id="path49" />
    </clipPath>
    <clipPath
       clipPathUnits="userSpaceOnUse"
       id="clipPath53">
      <path
         d="M 40.892719,37.099114 H 152.49272 V 145.81911 H 40.892719 Z"
         id="path53" />
    </clipPath>
    <clipPath
       clipPathUnits="userSpaceOnUse"
       id="clipPath57">
      <path
         d="M 40.892719,37.099114 H 152.49272 V 145.81911 H 40.892719 Z"
         id="path57" />
    </clipPath>
    <clipPath
       clipPathUnits="userSpaceOnUse"
       id="clipPath61">
      <path
         d="M 40.892719,37.099114 H 152.49272 V 145.81911 H 40.892719 Z"
         id="path61" />
    </clipPath>
    <clipPath
       clipPathUnits="userSpaceOnUse"
       id="clipPath64">
      <path
         d="M 40.892719,37.099114 H 152.49272 V 145.81911 H 40.892719 Z"
         id="path64" />
    </clipPath>
    <clipPath
       clipPathUnits="userSpaceOnUse"
       id="clipPath67">
      <path
         d="M 40.892719,37.099114 H 152.49272 V 145.81911 H 40.892719 Z"
         id="path67" />
    </clipPath>
    <clipPath
       clipPathUnits="userSpaceOnUse"
       id="clipPath70">
      <path
         d="M 40.892719,37.099114 H 152.49272 V 145.81911 H 40.892719 Z"
         id="path70" />
    </clipPath>
    <clipPath
       clipPathUnits="userSpaceOnUse"
       id="clipPath73">
      <path
         d="M 40.892719,37.099114 H 152.49272 V 145.81911 H 40.892719 Z"
         id="path73" />
    </clipPath>
    <clipPath
       clipPathUnits="userSpaceOnUse"
       id="clipPath76">
      <path
         d="M 40.892719,37.099114 H 152.49272 V 145.81911 H 40.892719 Z"
         id="path76" />
    </clipPath>
    <clipPath
       clipPathUnits="userSpaceOnUse"
       id="clipPath79">
      <path
         d="M 40.892719,37.099114 H 152.49272 V 145.81911 H 40.892719 Z"
         id="path79" />
    </clipPath>
    <clipPath
       clipPathUnits="userSpaceOnUse"
       id="clipPath82">
      <path
         d="M 40.892719,37.099114 H 152.49272 V 145.81911 H 40.892719 Z"
         id="path82" />
    </clipPath>
    <clipPath
       clipPathUnits="userSpaceOnUse"
       id="clipPath85">
      <path
         d="M 40.892719,37.099114 H 152.49272 V 145.81911 H 40.892719 Z"
         id="path85" />
    </clipPath>
    <clipPath
       clipPathUnits="userSpaceOnUse"
       id="clipPath88">
      <path
         d="M 40.892719,37.099114 H 152.49272 V 145.81911 H 40.892719 Z"
         id="path88" />
    </clipPath>
    <clipPath
       clipPathUnits="userSpaceOnUse"
       id="clipPath91">
      <path
         d="M 40.892719,37.099114 H 152.49272 V 145.81911 H 40.892719 Z"
         id="path91" />
    </clipPath>
    <clipPath
       clipPathUnits="userSpaceOnUse"
       id="clipPath94">
      <path
         d="M 40.892719,37.099114 H 152.49272 V 145.81911 H 40.892719 Z"
         id="path94" />
    </clipPath>
    <clipPath
       clipPathUnits="userSpaceOnUse"
       id="clipPath97">
      <path
         d="M 40.892719,37.099114 H 152.49272 V 145.81911 H 40.892719 Z"
         id="path97" />
    </clipPath>
    <clipPath
       clipPathUnits="userSpaceOnUse"
       id="clipPath100">
      <path
         d="M 40.892719,37.099114 H 152.49272 V 145.81911 H 40.892719 Z"
         id="path100" />
    </clipPath>
    <clipPath
       clipPathUnits="userSpaceOnUse"
       id="clipPath103">
      <path
         d="M 40.892719,37.099114 H 152.49272 V 145.81911 H 40.892719 Z"
         id="path103" />
    </clipPath>
    <clipPath
       clipPathUnits="userSpaceOnUse"
       id="clipPath106">
      <path
         d="M 40.892719,37.099114 H 152.49272 V 145.81911 H 40.892719 Z"
         id="path106" />
    </clipPath>
    <clipPath
       clipPathUnits="userSpaceOnUse"
       id="clipPath4">
      <ellipse
         style="opacity:0.957787;fill:none;fill-opacity:1;stroke:#000000;stroke-linecap:round;stroke-linejoin:round;stroke-dasharray:8, 2, 1, 2"
         id="ellipse4"
         cx="128.92363"
         cy="85.61277"
         rx="36.687199"
         ry="37.389664" />
    </clipPath>
    <marker
       style="overflow:visible"
       id="ConcaveTriangle-7"
       refX="0"
       refY="0"
       orient="auto-start-reverse"
       inkscape:stockid="Concave triangle arrow"
       markerWidth="1"
       markerHeight="1"
       viewBox="0 0 1 1"
       inkscape:isstock="true"
       inkscape:collect="always"
       preserveAspectRatio="xMidYMid">
      <path
         transform="scale(0.7)"
         d="M -2,-4 9,0 -2,4 c 2,-2.33 2,-5.66 0,-8 z"
         style="fill:context-stroke;fill-rule:evenodd;stroke:none"
         id="path164-5" />
    </marker>
  </defs>
  <g
     id="g1"
     inkscape:groupmode="layer"
     inkscape:label="1">
    <rect
       style="fill:url(#pattern125);fill-opacity:1;stroke:none;stroke-width:0.6;stroke-linecap:round;stroke-linejoin:round"
       id="rect116"
       width="148.8"
       height="144.95999"
       x="54.523624"
       y="14.282445"
       clip-path="url(#clipPath4)" />
    <path
       id="path2"
       d="M 40.892719,37.099114 V 145.81911"
       style="fill:none;stroke:#737373;stroke-width:0.8;stroke-linecap:square;stroke-linejoin:round;stroke-miterlimit:10;stroke-dasharray:none;stroke-opacity:1"
       transform="matrix(1.3333333,0,0,-1.3333333,0,208.70792)"
       clip-path="url(#clipPath3)" />
    <path
       id="path4"
       d="m 40.892719,37.099114 v -3.5"
       style="fill:#000000;fill-opacity:1;fill-rule:nonzero;stroke:#000000;stroke-width:0.8;stroke-linecap:butt;stroke-linejoin:round;stroke-miterlimit:10;stroke-dasharray:none;stroke-opacity:1"
       transform="matrix(1.3333333,0,0,-1.3333333,0,208.70792)" />
    <g
       id="g4"
       aria-label="−2"
       transform="matrix(1.3333333,0,0,1.3333333,46.036906,177.94063)">
      <path
         id="path5"
         d="m 6.5611876,-2.296294 c 0.1757812,0 0.3515625,0 0.3515625,-0.1992187 0,-0.1992188 -0.1757813,-0.1992188 -0.3515625,-0.1992188 h -5.390625 c -0.1640625,0 -0.33984375,0 -0.33984375,0.1992188 0,0.1992187 0.17578125,0.1992187 0.33984375,0.1992187 z m 0,0"
         style="fill:#000000;fill-opacity:1;fill-rule:nonzero;stroke:none" />
      <path
         id="path6"
         d="m 9.013336,-0.76113773 1.054688,-1.03124997 c 1.558593,-1.3710938 2.15625,-1.9101563 2.15625,-2.90625 0,-1.1367188 -0.902344,-1.9335938 -2.121094,-1.9335938 -1.1250002,0 -1.8515627,0.9140625 -1.8515627,1.8046875 0,0.5507813 0.4921875,0.5507813 0.5273437,0.5507813 0.1640625,0 0.515625,-0.1171875 0.515625,-0.5273438 0,-0.2578125 -0.1875,-0.515625 -0.5273437,-0.515625 -0.082031,0 -0.1054688,0 -0.1289063,0.011719 0.2226563,-0.6445313 0.7617188,-1.0195313 1.3359375,-1.0195313 0.9140625,0 1.3359375,0.8085938 1.3359375,1.6289063 0,0.796875 -0.492187,1.5820312 -1.042969,2.203125 L 8.357086,-0.36270023 C 8.2516173,-0.25723148 8.2516173,-0.23379398 8.2516173,5.810242e-4 H 11.943024 L 12.224274,-1.733794 h -0.257813 c -0.04687,0.3046875 -0.117187,0.73828127 -0.210937,0.89062502 -0.07031,0.0820313 -0.726563,0.0820313 -0.949219,0.0820313 z m 0,0"
         style="fill:#000000;fill-opacity:1;fill-rule:nonzero;stroke:none" />
    </g>
    <path
       id="path7"
       d="M 96.692719,37.099114 V 145.81911"
       style="fill:none;stroke:#737373;stroke-width:0.8;stroke-linecap:square;stroke-linejoin:round;stroke-miterlimit:10;stroke-dasharray:none;stroke-opacity:1"
       transform="matrix(1.3333333,0,0,-1.3333333,0,208.70792)"
       clip-path="url(#clipPath8)" />
    <path
       id="path9"
       d="m 96.692719,37.099114 v -3.5"
       style="fill:#000000;fill-opacity:1;fill-rule:nonzero;stroke:#000000;stroke-width:0.8;stroke-linecap:butt;stroke-linejoin:round;stroke-miterlimit:10;stroke-dasharray:none;stroke-opacity:1"
       transform="matrix(1.3333333,0,0,-1.3333333,0,208.70792)" />
    <path
       id="path10"
       d="m 4.5811517,-3.186919 c 0,-0.796875 -0.046875,-1.59375 -0.3984375,-2.3320312 -0.4570313,-0.9609375 -1.2773438,-1.1132813 -1.6875,-1.1132813 -0.5976563,0 -1.3359375,0.2578125 -1.73437503,1.1835938 -0.328125,0.6914062 -0.375,1.4648437 -0.375,2.2617187 0,0.75 0.046875,1.640625 0.4453125,2.40234377 0.43359373,0.80859375 1.16015623,1.0078125 1.65234373,1.0078125 0.5390625,0 1.2890625,-0.2109375 1.734375,-1.16015625 C 4.5342767,-1.6283252 4.5811517,-2.4017627 4.5811517,-3.186919 Z M 2.4834954,5.810242e-4 c -0.3867187,0 -0.984375,-0.2460937542 -1.1601562,-1.2070312242 -0.1054688,-0.5976563 -0.1054688,-1.5117188 -0.1054688,-2.0976563 0,-0.6445312 0,-1.3007812 0.082031,-1.8398437 0.1875,-1.1835938 0.9257812,-1.265625 1.1835937,-1.265625 0.328125,0 0.984375,0.1757812 1.171875,1.1601562 0.09375,0.5625 0.09375,1.3125 0.09375,1.9453125 0,0.75 0,1.4179688 -0.1054687,2.0625 C 3.4913079,-0.30410648 2.9288079,5.810242e-4 2.4834954,5.810242e-4 Z m 0,0"
       style="fill:#000000;fill-opacity:1;fill-rule:nonzero;stroke:none"
       aria-label="0"
       transform="matrix(1.3333333,0,0,1.3333333,125.60274,177.94063)" />
    <path
       id="path11"
       d="M 152.49272,37.099114 V 145.81911"
       style="fill:none;stroke:#737373;stroke-width:0.8;stroke-linecap:square;stroke-linejoin:round;stroke-miterlimit:10;stroke-dasharray:none;stroke-opacity:1"
       transform="matrix(1.3333333,0,0,-1.3333333,0,208.70792)"
       clip-path="url(#clipPath12)" />
    <path
       id="path13"
       d="m 152.49272,37.099114 v -3.5"
       style="fill:#000000;fill-opacity:1;fill-rule:nonzero;stroke:#000000;stroke-width:0.8;stroke-linecap:butt;stroke-linejoin:round;stroke-miterlimit:10;stroke-dasharray:none;stroke-opacity:1"
       transform="matrix(1.3333333,0,0,-1.3333333,0,208.70792)" />
    <path
       id="path14"
       d="M 1.2665032,-0.76113773 2.3211907,-1.7923877 c 1.5585938,-1.3710938 2.15625,-1.9101563 2.15625,-2.90625 0,-1.1367188 -0.9023437,-1.9335938 -2.1210937,-1.9335938 -1.125,0 -1.85156251,0.9140625 -1.85156251,1.8046875 0,0.5507813 0.4921875,0.5507813 0.52734371,0.5507813 0.1640625,0 0.515625,-0.1171875 0.515625,-0.5273438 0,-0.2578125 -0.1875,-0.515625 -0.5273437,-0.515625 -0.0820313,0 -0.10546876,0 -0.12890626,0.011719 C 1.1141595,-5.952544 1.653222,-6.327544 2.2274407,-6.327544 c 0.9140625,0 1.3359375,0.8085938 1.3359375,1.6289063 0,0.796875 -0.4921875,1.5820312 -1.0429687,2.203125 L 0.61025324,-0.36270023 C 0.50478449,-0.25723148 0.50478449,-0.23379398 0.50478449,5.810242e-4 H 4.1961907 L 4.4774407,-1.733794 H 4.2196282 c -0.046875,0.3046875 -0.1171875,0.73828127 -0.2109375,0.89062502 -0.070312,0.0820313 -0.7265625,0.0820313 -0.9492187,0.0820313 z m 0,0"
       style="fill:#000000;fill-opacity:1;fill-rule:nonzero;stroke:none"
       aria-label="2"
       transform="matrix(1.3333333,0,0,1.3333333,200.00274,177.94063)" />
    <path
       id="path15"
       d="M 54.842719,37.099114 V 145.81911"
       style="fill:none;stroke:#bfbfbf;stroke-width:0.8;stroke-linecap:butt;stroke-linejoin:round;stroke-miterlimit:10;stroke-dasharray:2.96, 1.28;stroke-dashoffset:0;stroke-opacity:1"
       transform="matrix(1.3333333,0,0,-1.3333333,0,208.70792)"
       clip-path="url(#clipPath16)" />
    <path
       id="path17"
       d="m 54.842719,37.099114 v -2"
       style="fill:#000000;fill-opacity:1;fill-rule:nonzero;stroke:#000000;stroke-width:0.6;stroke-linecap:butt;stroke-linejoin:round;stroke-miterlimit:10;stroke-dasharray:none;stroke-opacity:1"
       transform="matrix(1.3333333,0,0,-1.3333333,0,208.70792)" />
    <path
       id="path18"
       d="M 68.792719,37.099114 V 145.81911"
       style="fill:none;stroke:#bfbfbf;stroke-width:0.8;stroke-linecap:butt;stroke-linejoin:round;stroke-miterlimit:10;stroke-dasharray:2.96, 1.28;stroke-dashoffset:0;stroke-opacity:1"
       transform="matrix(1.3333333,0,0,-1.3333333,0,208.70792)"
       clip-path="url(#clipPath19)" />
    <path
       id="path20"
       d="m 68.792719,37.099114 v -2"
       style="fill:#000000;fill-opacity:1;fill-rule:nonzero;stroke:#000000;stroke-width:0.6;stroke-linecap:butt;stroke-linejoin:round;stroke-miterlimit:10;stroke-dasharray:none;stroke-opacity:1"
       transform="matrix(1.3333333,0,0,-1.3333333,0,208.70792)" />
    <path
       id="path21"
       d="M 82.742719,37.099114 V 145.81911"
       style="fill:none;stroke:#bfbfbf;stroke-width:0.8;stroke-linecap:butt;stroke-linejoin:round;stroke-miterlimit:10;stroke-dasharray:2.96, 1.28;stroke-dashoffset:0;stroke-opacity:1"
       transform="matrix(1.3333333,0,0,-1.3333333,0,208.70792)"
       clip-path="url(#clipPath22)" />
    <path
       id="path23"
       d="m 82.742719,37.099114 v -2"
       style="fill:#000000;fill-opacity:1;fill-rule:nonzero;stroke:#000000;stroke-width:0.6;stroke-linecap:butt;stroke-linejoin:round;stroke-miterlimit:10;stroke-dasharray:none;stroke-opacity:1"
       transform="matrix(1.3333333,0,0,-1.3333333,0,208.70792)" />
    <path
       id="path24"
       d="M 110.64272,37.099114 V 145.81911"
       style="fill:none;stroke:#bfbfbf;stroke-width:0.8;stroke-linecap:butt;stroke-linejoin:round;stroke-miterlimit:10;stroke-dasharray:2.96, 1.28;stroke-dashoffset:0;stroke-opacity:1"
       transform="matrix(1.3333333,0,0,-1.3333333,0,208.70792)"
       clip-path="url(#clipPath25)" />
    <path
       id="path26"
       d="m 110.64272,37.099114 v -2"
       style="fill:#000000;fill-opacity:1;fill-rule:nonzero;stroke:#000000;stroke-width:0.6;stroke-linecap:butt;stroke-linejoin:round;stroke-miterlimit:10;stroke-dasharray:none;stroke-opacity:1"
       transform="matrix(1.3333333,0,0,-1.3333333,0,208.70792)" />
    <path
       id="path27"
       d="M 124.59272,37.099114 V 145.81911"
       style="fill:none;stroke:#bfbfbf;stroke-width:0.8;stroke-linecap:butt;stroke-linejoin:round;stroke-miterlimit:10;stroke-dasharray:2.96, 1.28;stroke-dashoffset:0;stroke-opacity:1"
       transform="matrix(1.3333333,0,0,-1.3333333,0,208.70792)"
       clip-path="url(#clipPath28)" />
    <path
       id="path29"
       d="m 124.59272,37.099114 v -2"
       style="fill:#000000;fill-opacity:1;fill-rule:nonzero;stroke:#000000;stroke-width:0.6;stroke-linecap:butt;stroke-linejoin:round;stroke-miterlimit:10;stroke-dasharray:none;stroke-opacity:1"
       transform="matrix(1.3333333,0,0,-1.3333333,0,208.70792)" />
    <path
       id="path30"
       d="M 138.54272,37.099114 V 145.81911"
       style="fill:none;stroke:#bfbfbf;stroke-width:0.8;stroke-linecap:butt;stroke-linejoin:round;stroke-miterlimit:10;stroke-dasharray:2.96, 1.28;stroke-dashoffset:0;stroke-opacity:1"
       transform="matrix(1.3333333,0,0,-1.3333333,0,208.70792)"
       clip-path="url(#clipPath31)" />
    <path
       id="path32"
       d="m 138.54272,37.099114 v -2"
       style="fill:#000000;fill-opacity:1;fill-rule:nonzero;stroke:#000000;stroke-width:0.6;stroke-linecap:butt;stroke-linejoin:round;stroke-miterlimit:10;stroke-dasharray:none;stroke-opacity:1"
       transform="matrix(1.3333333,0,0,-1.3333333,0,208.70792)" />
    <g
       id="g32"
       aria-label="Re{λ}"
       transform="matrix(1.3333333,0,0,1.3333333,111.25145,195.78704)">
      <path
         id="path33"
         d="m 2.6707859,-3.1303179 h 0.3515625 l 1.5,2.30859377 c 0.09375,0.1640625 0.3398438,0.55078125 0.4453125,0.703125 0.070312,0.1171875 0.1054688,0.1171875 0.328125,0.1171875 h 1.3828125 c 0.1757813,0 0.328125,0 0.328125,-0.17578125 0,-0.0820313 -0.070312,-0.15234375 -0.1523437,-0.17578125 -0.375,-0.0820313 -0.8554688,-0.73828127 -1.1015625,-1.05468747 -0.070312,-0.09375 -0.5625,-0.75 -1.2304688,-1.828125 0.890625,-0.1640625 1.7460938,-0.5390625 1.7460938,-1.7226563 0,-1.3828125 -1.4648438,-1.8632812 -2.6484375,-1.8632812 H 0.50281719 c -0.1875,0 -0.33984375,0 -0.33984375,0.1757812 0,0.1640625 0.1875,0.1640625 0.26953125,0.1640625 0.5625,0 0.60937501,0.070312 0.60937501,0.5742188 v 4.99218747 c 0,0.4921875 -0.046875,0.5625 -0.60937501,0.5625 -0.0820313,0 -0.26953125,0 -0.26953125,0.17578125 0,0.17578125 0.15234375,0.17578125 0.33984375,0.17578125 H 3.2215672 c 0.1875,0 0.328125,0 0.328125,-0.17578125 0,-0.17578125 -0.1640625,-0.17578125 -0.2695313,-0.17578125 -0.5742187,0 -0.609375,-0.0820313 -0.609375,-0.5625 z m 1.921875,-0.4921875 c 0.28125,-0.3632812 0.3046875,-0.890625 0.3046875,-1.3242187 0,-0.4804688 -0.058594,-1.0078125 -0.375,-1.4179688 0.4101563,0.082031 1.3945313,0.3984375 1.3945313,1.40625 0,0.6445313 -0.3046875,1.1484375 -1.3242188,1.3359375 z m -1.921875,-2.3203125 c 0,-0.1992187 0,-0.5390625 0.6210938,-0.5390625 0.84375,0 1.2539062,0.3515625 1.2539062,1.5351563 0,1.2773437 -0.3046875,1.4648437 -1.875,1.4648437 z m -1.359375,5.58984377 c 0.082031,-0.17578125 0.082031,-0.45703125 0.082031,-0.55078125 V -5.9310991 c 0,-0.09375 0,-0.3632813 -0.082031,-0.5507813 h 1.1367188 c -0.1289063,0.1640625 -0.1289063,0.3632813 -0.1289063,0.515625 v 5.06250002 c 0,0.10546875 0,0.375 0.082031,0.55078125 z M 3.4325047,-3.1303179 c 0.070312,-0.011719 0.1171875,-0.023437 0.1875,-0.023437 0.1523437,0 0.375,-0.011719 0.5273437,-0.035156 0.140625,0.234375 1.21875,2.015625 2.0507813,2.83593747 H 5.2254734 Z m 0,0"
         style="fill:#000000;fill-opacity:1;fill-rule:nonzero;stroke:none" />
      <path
         id="path34"
         d="m 8.3075047,-2.5092241 c 0.058594,-1.4882813 0.9023437,-1.734375 1.2421875,-1.734375 1.0195308,0 1.1249998,1.3476562 1.1249998,1.734375 z m -0.011719,0.2109375 h 2.7890623 c 0.210938,0 0.246094,0 0.246094,-0.2109375 0,-0.984375 -0.539062,-1.9570313 -1.78125,-1.9570313 -1.1601563,0 -2.0742188,1.03125 -2.0742188,2.2734375 0,1.33593752 1.0429688,2.29687502 2.1914063,2.29687502 1.2187505,0 1.6640625,-1.1015625 1.6640625,-1.28906252 0,-0.1054687 -0.08203,-0.1171875 -0.128906,-0.1171875 -0.09375,0 -0.117188,0.058594 -0.128906,0.140625 -0.351563,1.01953127 -1.2539068,1.01953127 -1.3476568,1.01953127 -0.5039062,0 -0.9023437,-0.29296875 -1.125,-0.66796875 C 8.2957859,-1.2904741 8.2957859,-1.9467241 8.2957857,-2.2982866 Z m 0,0"
         style="fill:#000000;fill-opacity:1;fill-rule:nonzero;stroke:none" />
      <path
         id="path35"
         d="m 14.44813,-6.1420366 c 0,-0.3984375 0.257812,-1.0429688 1.335937,-1.1132813 0.05859,-0.011719 0.09375,-0.046875 0.09375,-0.1054687 0,-0.1171875 -0.08203,-0.1171875 -0.1875,-0.1171875 -0.996094,0 -1.910156,0.515625 -1.910156,1.2539062 v 2.2734375 c 0,0.3867188 0,0.703125 -0.398438,1.03125 -0.351562,0.2929688 -0.726562,0.3046875 -0.949218,0.3164063 -0.04687,0.011719 -0.09375,0.046875 -0.09375,0.1054687 0,0.1054688 0.05859,0.1054688 0.164062,0.1171875 0.65625,0.035156 1.136719,0.3984375 1.242188,0.8789063 0.03516,0.1171875 0.03516,0.140625 0.03516,0.4921875 v 1.96874997 c 0,0.42187503 0,0.73828123 0.46875,1.12500003 0.398437,0.2929687 1.054687,0.4101562 1.441406,0.4101562 0.105469,0 0.1875,0 0.1875,-0.1171875 0,-0.09375 -0.05859,-0.09375 -0.164062,-0.1054687 C 15.092661,2.2251509 14.600473,1.9087446 14.471567,1.4048384 14.44813,1.3110884 14.44813,1.2993696 14.44813,0.93608837 V -1.1615679 c 0,-0.4570312 -0.08203,-0.6210937 -0.398438,-0.9375 -0.210937,-0.2109375 -0.503906,-0.3164062 -0.785156,-0.3984375 0.820312,-0.2226562 1.183594,-0.6796875 1.183594,-1.2539062 z m 0,0"
         style="fill:#000000;fill-opacity:1;fill-rule:nonzero;stroke:none" />
      <path
         id="path36"
         d="m 17.272348,-5.1107866 c 0.07031,-0.515625 0.328125,-0.8085938 0.726563,-0.8085938 0.292969,0 0.527344,0.2226563 0.667969,0.6328125 0.05859,0.1757813 0.140625,0.46875 0.222656,0.8085938 l -2.074219,4.47656247 h 0.84375 l 1.523438,-3.21093747 c 0.292968,1.7460937 0.433593,2.39062497 0.597656,2.73046872 0.199219,0.38671875 0.480469,0.59765625 0.808594,0.59765625 0.351562,0 0.632812,-0.2109375 0.785156,-0.609375 0.09375,-0.24609375 0.128906,-0.48046875 0.140625,-0.90234377 h -0.1875 c -0.07031,0.45703127 -0.28125,0.72656252 -0.597656,0.72656252 -0.269532,0 -0.503907,-0.17578125 -0.644532,-0.49218752 -0.117187,-0.234375 -0.175781,-0.4570312 -0.304687,-1.125 l -0.246094,-1.1601562 c -0.01172,-0.023437 -0.01172,-0.082031 -0.03516,-0.1757813 -0.210938,-1.1601562 -0.527344,-2.25 -0.738281,-2.578125 -0.199219,-0.28125 -0.46875,-0.4335937 -0.761719,-0.4335937 -0.550781,0 -0.84375,0.46875 -0.9375,1.5234375 z m 0,0"
         style="fill:#000000;fill-opacity:1;fill-rule:nonzero;stroke:none" />
      <path
         id="path37"
         d="m 23.682505,1.1587446 c 0,0.3984375 -0.257813,1.0429688 -1.347657,1.1132813 -0.04687,0.011719 -0.09375,0.046875 -0.09375,0.1054687 0,0.1171875 0.117188,0.1171875 0.199219,0.1171875 0.972656,0 1.898438,-0.4921875 1.910156,-1.2539062 v -2.2734375 c 0,-0.3867188 0,-0.703125 0.398438,-1.03125 0.339844,-0.2929688 0.726562,-0.3046875 0.9375,-0.3164063 0.05859,-0.011719 0.09375,-0.046875 0.09375,-0.1171875 0,-0.09375 -0.05859,-0.09375 -0.164063,-0.1054687 -0.65625,-0.035156 -1.136718,-0.3984375 -1.242187,-0.890625 -0.02344,-0.1054688 -0.02344,-0.1289063 -0.02344,-0.4804688 v -1.96875 c 0,-0.421875 0,-0.7382812 -0.480468,-1.125 -0.398438,-0.3046875 -1.089844,-0.4101562 -1.429688,-0.4101562 -0.08203,0 -0.199219,0 -0.199219,0.1171875 0,0.09375 0.05859,0.09375 0.164063,0.1054687 0.621094,0.046875 1.113281,0.3632813 1.242187,0.8671875 0.03516,0.09375 0.03516,0.1054688 0.03516,0.46875 v 2.0976563 c 0,0.4570312 0.07031,0.6210937 0.398437,0.9375 0.199219,0.2109375 0.492188,0.3164062 0.773438,0.3867187 -0.820313,0.234375 -1.171875,0.6914063 -1.171875,1.265625 z m 0,0"
         style="fill:#000000;fill-opacity:1;fill-rule:nonzero;stroke:none" />
    </g>
    <path
       id="path38"
       d="M 40.892719,37.099114 H 152.49272"
       style="fill:none;stroke:#737373;stroke-width:0.8;stroke-linecap:square;stroke-linejoin:round;stroke-miterlimit:10;stroke-dasharray:none;stroke-opacity:1"
       transform="matrix(1.3333333,0,0,-1.3333333,0,208.70792)"
       clip-path="url(#clipPath39)" />
    <path
       id="path40"
       d="m 40.892719,37.099114 h -3.5"
       style="fill:#000000;fill-opacity:1;fill-rule:nonzero;stroke:#000000;stroke-width:0.8;stroke-linecap:butt;stroke-linejoin:round;stroke-miterlimit:10;stroke-dasharray:none;stroke-opacity:1"
       transform="matrix(1.3333333,0,0,-1.3333333,0,208.70792)" />
    <g
       id="g40"
       aria-label="−2"
       transform="matrix(1.3333333,0,0,1.3333333,28.216853,163.92487)">
      <path
         id="path41"
         d="m 6.5639224,-2.2961882 c 0.1757813,0 0.3515625,0 0.3515625,-0.1992187 0,-0.1992188 -0.1757812,-0.1992188 -0.3515625,-0.1992188 h -5.390625 c -0.1640625,0 -0.33984375,0 -0.33984375,0.1992188 0,0.1992187 0.17578125,0.1992187 0.33984375,0.1992187 z m 0,0"
         style="fill:#000000;fill-opacity:1;fill-rule:nonzero;stroke:none" />
      <path
         id="path42"
         d="M 9.0131412,-0.76103192 10.067829,-1.7922819 c 1.558593,-1.3710938 2.15625,-1.9101563 2.15625,-2.90625 0,-1.1367188 -0.902344,-1.9335938 -2.121094,-1.9335938 -1.1250001,0 -1.8515626,0.9140625 -1.8515626,1.8046875 0,0.5507813 0.4921875,0.5507813 0.5273438,0.5507813 0.1640625,0 0.515625,-0.1171875 0.515625,-0.5273438 0,-0.2578125 -0.1875,-0.515625 -0.5273438,-0.515625 -0.082031,0 -0.1054687,0 -0.1289062,0.011719 0.2226562,-0.6445313 0.7617187,-1.0195313 1.3359375,-1.0195313 0.9140623,0 1.3359373,0.8085938 1.3359373,1.6289063 0,0.796875 -0.492187,1.5820312 -1.042969,2.203125 L 8.3568912,-0.36259442 C 8.2514224,-0.25712567 8.2514224,-0.23368817 8.2514224,6.868286e-4 H 11.942829 L 12.224079,-1.7336882 h -0.257813 c -0.04687,0.3046875 -0.117187,0.73828128 -0.210937,0.89062503 -0.07031,0.0820313 -0.726563,0.0820313 -0.949219,0.0820313 z m 0,0"
         style="fill:#000000;fill-opacity:1;fill-rule:nonzero;stroke:none" />
    </g>
    <path
       id="path43"
       d="M 40.892719,64.279114 H 152.49272"
       style="fill:none;stroke:#737373;stroke-width:0.8;stroke-linecap:square;stroke-linejoin:round;stroke-miterlimit:10;stroke-dasharray:none;stroke-opacity:1"
       transform="matrix(1.3333333,0,0,-1.3333333,0,208.70792)"
       clip-path="url(#clipPath44)" />
    <path
       id="path45"
       d="m 40.892719,64.279114 h -3.5"
       style="fill:#000000;fill-opacity:1;fill-rule:nonzero;stroke:#000000;stroke-width:0.8;stroke-linecap:butt;stroke-linejoin:round;stroke-miterlimit:10;stroke-dasharray:none;stroke-opacity:1"
       transform="matrix(1.3333333,0,0,-1.3333333,0,208.70792)" />
    <g
       id="g45"
       aria-label="−1"
       transform="matrix(1.3333333,0,0,1.3333333,28.216853,127.68487)">
      <path
         id="path46"
         d="m 6.5639224,-2.2978288 c 0.1757813,0 0.3515625,0 0.3515625,-0.1992187 0,-0.1992188 -0.1757812,-0.1992188 -0.3515625,-0.1992188 h -5.390625 c -0.1640625,0 -0.33984375,0 -0.33984375,0.1992188 0,0.1992187 0.17578125,0.1992187 0.33984375,0.1992187 z m 0,0"
         style="fill:#000000;fill-opacity:1;fill-rule:nonzero;stroke:none" />
      <path
         id="path47"
         d="m 10.677204,-6.3759538 c 0,-0.234375 0,-0.2578125 -0.234375,-0.2578125 -0.6093753,0.6328125 -1.4882816,0.6328125 -1.8046878,0.6328125 v 0.3164063 c 0.1992187,0 0.7851562,0 1.3007812,-0.2578125 v 5.15624995 c 0,0.3515625 -0.035156,0.48046875 -0.9257812,0.48046875 H 8.6967349 V -9.537964e-4 C 9.0482974,-0.03611005 9.9037662,-0.03611005 10.302204,-0.03611005 c 0.398437,0 1.265625,0 1.617187,0.0351562536 V -0.3056413 h -0.316406 c -0.902344,0 -0.925781,-0.1171875 -0.925781,-0.48046875 z m 0,0"
         style="fill:#000000;fill-opacity:1;fill-rule:nonzero;stroke:none" />
    </g>
    <path
       id="path48"
       d="M 40.892719,91.459114 H 152.49272"
       style="fill:none;stroke:#737373;stroke-width:0.8;stroke-linecap:square;stroke-linejoin:round;stroke-miterlimit:10;stroke-dasharray:none;stroke-opacity:1"
       transform="matrix(1.3333333,0,0,-1.3333333,0,208.70792)"
       clip-path="url(#clipPath49)" />
    <path
       id="path50"
       d="m 40.892719,91.459114 h -3.5"
       style="fill:#000000;fill-opacity:1;fill-rule:nonzero;stroke:#000000;stroke-width:0.8;stroke-linecap:butt;stroke-linejoin:round;stroke-miterlimit:10;stroke-dasharray:none;stroke-opacity:1"
       transform="matrix(1.3333333,0,0,-1.3333333,0,208.70792)" />
    <path
       id="path51"
       d="m 4.5808037,-3.1871647 c 0,-0.796875 -0.046875,-1.59375 -0.3984375,-2.3320313 -0.4570313,-0.9609375 -1.2773438,-1.1132812 -1.6875,-1.1132812 -0.5976563,0 -1.3359375,0.2578125 -1.73437502,1.1835937 -0.328125,0.6914063 -0.375,1.4648438 -0.375,2.2617188 0,0.75 0.046875,1.640625 0.4453125,2.40234372 0.43359372,0.80859375 1.16015622,1.0078125 1.65234372,1.0078125 0.5390625,0 1.2890625,-0.2109375 1.734375,-1.16015625 C 4.5339287,-1.628571 4.5808037,-2.4020085 4.5808037,-3.1871647 Z M 2.4831474,3.352661e-4 c -0.3867187,0 -0.984375,-0.2460937461 -1.1601562,-1.2070312661 -0.1054688,-0.5976562 -0.1054688,-1.5117187 -0.1054688,-2.0976562 0,-0.6445313 0,-1.3007813 0.082031,-1.8398438 0.1875,-1.1835937 0.9257812,-1.265625 1.1835937,-1.265625 0.328125,0 0.984375,0.1757813 1.171875,1.1601563 0.09375,0.5625 0.09375,1.3125 0.09375,1.9453125 0,0.75 0,1.4179687 -0.1054687,2.0625 C 3.4909599,-0.30435223 2.9284599,3.352661e-4 2.4831474,3.352661e-4 Z m 0,0"
       style="fill:#000000;fill-opacity:1;fill-rule:nonzero;stroke:none"
       aria-label="0"
       transform="matrix(1.3333333,0,0,1.3333333,38.548512,91.444865)" />
    <path
       id="path52"
       d="M 40.892719,118.63911 H 152.49272"
       style="fill:none;stroke:#737373;stroke-width:0.8;stroke-linecap:square;stroke-linejoin:round;stroke-miterlimit:10;stroke-dasharray:none;stroke-opacity:1"
       transform="matrix(1.3333333,0,0,-1.3333333,0,208.70792)"
       clip-path="url(#clipPath53)" />
    <path
       id="path54"
       d="m 40.892719,118.63911 h -3.5"
       style="fill:#000000;fill-opacity:1;fill-rule:nonzero;stroke:#000000;stroke-width:0.8;stroke-linecap:butt;stroke-linejoin:round;stroke-miterlimit:10;stroke-dasharray:none;stroke-opacity:1"
       transform="matrix(1.3333333,0,0,-1.3333333,0,208.70792)" />
    <path
       id="path55"
       d="m 2.9284599,-6.3763054 c 0,-0.234375 0,-0.2578125 -0.234375,-0.2578125 -0.609375,0.6328125 -1.4882812,0.6328125 -1.80468747,0.6328125 v 0.3164063 c 0.19921877,0 0.78515627,0 1.30078127,-0.2578125 v 5.15624999 c 0,0.3515625 -0.035156,0.48046875 -0.9257813,0.48046875 H 0.94799118 v 0.3046875 C 1.2995537,-0.03646161 2.1550224,-0.03646161 2.5534599,-0.03646161 c 0.3984375,0 1.265625,0 1.6171875,0.03515625 v -0.3046875 H 3.8542412 c -0.9023438,0 -0.9257813,-0.1171875 -0.9257813,-0.48046875 z m 0,0"
       style="fill:#000000;fill-opacity:1;fill-rule:nonzero;stroke:none"
       aria-label="1"
       transform="matrix(1.3333333,0,0,1.3333333,38.548512,55.204865)" />
    <path
       id="path56"
       d="M 40.892719,145.81911 H 152.49272"
       style="fill:none;stroke:#737373;stroke-width:0.8;stroke-linecap:square;stroke-linejoin:round;stroke-miterlimit:10;stroke-dasharray:none;stroke-opacity:1"
       transform="matrix(1.3333333,0,0,-1.3333333,0,208.70792)"
       clip-path="url(#clipPath57)" />
    <path
       id="path58"
       d="m 40.892719,145.81911 h -3.5"
       style="fill:#000000;fill-opacity:1;fill-rule:nonzero;stroke:#000000;stroke-width:0.8;stroke-linecap:butt;stroke-linejoin:round;stroke-miterlimit:10;stroke-dasharray:none;stroke-opacity:1"
       transform="matrix(1.3333333,0,0,-1.3333333,0,208.70792)" />
    <path
       id="path59"
       d="M 1.2643974,-0.76173505 2.3190849,-1.792985 c 1.5585938,-1.3710938 2.15625,-1.9101563 2.15625,-2.90625 0,-1.1367188 -0.9023437,-1.9335938 -2.1210937,-1.9335938 -1.125,0 -1.85156252,0.9140625 -1.85156252,1.8046875 0,0.5507813 0.4921875,0.5507813 0.52734372,0.5507813 0.1640625,0 0.515625,-0.1171875 0.515625,-0.5273438 0,-0.2578125 -0.1875,-0.515625 -0.5273437,-0.515625 -0.0820313,0 -0.10546877,0 -0.12890627,0.011719 0.22265627,-0.6445313 0.76171877,-1.0195313 1.33593747,-1.0195313 0.9140625,0 1.3359375,0.8085938 1.3359375,1.6289063 0,0.796875 -0.4921875,1.5820312 -1.0429687,2.203125 L 0.60814743,-0.36329755 C 0.50267868,-0.2578288 0.50267868,-0.2343913 0.50267868,-1.62964e-5 H 4.1940849 L 4.4753349,-1.7343913 H 4.2175224 c -0.046875,0.3046875 -0.1171875,0.73828125 -0.2109375,0.890625 -0.070312,0.0820313 -0.7265625,0.0820313 -0.9492187,0.0820313 z m 0,0"
       style="fill:#000000;fill-opacity:1;fill-rule:nonzero;stroke:none"
       aria-label="2"
       transform="matrix(1.3333333,0,0,1.3333333,38.548512,18.964865)" />
    <path
       id="path60"
       d="M 40.892719,42.535114 H 152.49272"
       style="fill:none;stroke:#bfbfbf;stroke-width:0.8;stroke-linecap:butt;stroke-linejoin:round;stroke-miterlimit:10;stroke-dasharray:2.96, 1.28;stroke-dashoffset:0;stroke-opacity:1"
       transform="matrix(1.3333333,0,0,-1.3333333,0,208.70792)"
       clip-path="url(#clipPath61)" />
    <path
       id="path62"
       d="m 40.892719,42.535114 h -2"
       style="fill:#000000;fill-opacity:1;fill-rule:nonzero;stroke:#000000;stroke-width:0.6;stroke-linecap:butt;stroke-linejoin:round;stroke-miterlimit:10;stroke-dasharray:none;stroke-opacity:1"
       transform="matrix(1.3333333,0,0,-1.3333333,0,208.70792)" />
    <path
       id="path63"
       d="M 40.892719,47.971114 H 152.49272"
       style="fill:none;stroke:#bfbfbf;stroke-width:0.8;stroke-linecap:butt;stroke-linejoin:round;stroke-miterlimit:10;stroke-dasharray:2.96, 1.28;stroke-dashoffset:0;stroke-opacity:1"
       transform="matrix(1.3333333,0,0,-1.3333333,0,208.70792)"
       clip-path="url(#clipPath64)" />
    <path
       id="path65"
       d="m 40.892719,47.971114 h -2"
       style="fill:#000000;fill-opacity:1;fill-rule:nonzero;stroke:#000000;stroke-width:0.6;stroke-linecap:butt;stroke-linejoin:round;stroke-miterlimit:10;stroke-dasharray:none;stroke-opacity:1"
       transform="matrix(1.3333333,0,0,-1.3333333,0,208.70792)" />
    <path
       id="path66"
       d="M 40.892719,53.407114 H 152.49272"
       style="fill:none;stroke:#bfbfbf;stroke-width:0.8;stroke-linecap:butt;stroke-linejoin:round;stroke-miterlimit:10;stroke-dasharray:2.96, 1.28;stroke-dashoffset:0;stroke-opacity:1"
       transform="matrix(1.3333333,0,0,-1.3333333,0,208.70792)"
       clip-path="url(#clipPath67)" />
    <path
       id="path68"
       d="m 40.892719,53.407114 h -2"
       style="fill:#000000;fill-opacity:1;fill-rule:nonzero;stroke:#000000;stroke-width:0.6;stroke-linecap:butt;stroke-linejoin:round;stroke-miterlimit:10;stroke-dasharray:none;stroke-opacity:1"
       transform="matrix(1.3333333,0,0,-1.3333333,0,208.70792)" />
    <path
       id="path69"
       d="M 40.892719,58.843114 H 152.49272"
       style="fill:none;stroke:#bfbfbf;stroke-width:0.8;stroke-linecap:butt;stroke-linejoin:round;stroke-miterlimit:10;stroke-dasharray:2.96, 1.28;stroke-dashoffset:0;stroke-opacity:1"
       transform="matrix(1.3333333,0,0,-1.3333333,0,208.70792)"
       clip-path="url(#clipPath70)" />
    <path
       id="path71"
       d="m 40.892719,58.843114 h -2"
       style="fill:#000000;fill-opacity:1;fill-rule:nonzero;stroke:#000000;stroke-width:0.6;stroke-linecap:butt;stroke-linejoin:round;stroke-miterlimit:10;stroke-dasharray:none;stroke-opacity:1"
       transform="matrix(1.3333333,0,0,-1.3333333,0,208.70792)" />
    <path
       id="path72"
       d="M 40.892719,69.715114 H 152.49272"
       style="fill:none;stroke:#bfbfbf;stroke-width:0.8;stroke-linecap:butt;stroke-linejoin:round;stroke-miterlimit:10;stroke-dasharray:2.96, 1.28;stroke-dashoffset:0;stroke-opacity:1"
       transform="matrix(1.3333333,0,0,-1.3333333,0,208.70792)"
       clip-path="url(#clipPath73)" />
    <path
       id="path74"
       d="m 40.892719,69.715114 h -2"
       style="fill:#000000;fill-opacity:1;fill-rule:nonzero;stroke:#000000;stroke-width:0.6;stroke-linecap:butt;stroke-linejoin:round;stroke-miterlimit:10;stroke-dasharray:none;stroke-opacity:1"
       transform="matrix(1.3333333,0,0,-1.3333333,0,208.70792)" />
    <path
       id="path75"
       d="M 40.892719,75.151114 H 152.49272"
       style="fill:none;stroke:#bfbfbf;stroke-width:0.8;stroke-linecap:butt;stroke-linejoin:round;stroke-miterlimit:10;stroke-dasharray:2.96, 1.28;stroke-dashoffset:0;stroke-opacity:1"
       transform="matrix(1.3333333,0,0,-1.3333333,0,208.70792)"
       clip-path="url(#clipPath76)" />
    <path
       id="path77"
       d="m 40.892719,75.151114 h -2"
       style="fill:#000000;fill-opacity:1;fill-rule:nonzero;stroke:#000000;stroke-width:0.6;stroke-linecap:butt;stroke-linejoin:round;stroke-miterlimit:10;stroke-dasharray:none;stroke-opacity:1"
       transform="matrix(1.3333333,0,0,-1.3333333,0,208.70792)" />
    <path
       id="path78"
       d="M 40.892719,80.587114 H 152.49272"
       style="fill:none;stroke:#bfbfbf;stroke-width:0.8;stroke-linecap:butt;stroke-linejoin:round;stroke-miterlimit:10;stroke-dasharray:2.96, 1.28;stroke-dashoffset:0;stroke-opacity:1"
       transform="matrix(1.3333333,0,0,-1.3333333,0,208.70792)"
       clip-path="url(#clipPath79)" />
    <path
       id="path80"
       d="m 40.892719,80.587114 h -2"
       style="fill:#000000;fill-opacity:1;fill-rule:nonzero;stroke:#000000;stroke-width:0.6;stroke-linecap:butt;stroke-linejoin:round;stroke-miterlimit:10;stroke-dasharray:none;stroke-opacity:1"
       transform="matrix(1.3333333,0,0,-1.3333333,0,208.70792)" />
    <path
       id="path81"
       d="M 40.892719,86.023114 H 152.49272"
       style="fill:none;stroke:#bfbfbf;stroke-width:0.8;stroke-linecap:butt;stroke-linejoin:round;stroke-miterlimit:10;stroke-dasharray:2.96, 1.28;stroke-dashoffset:0;stroke-opacity:1"
       transform="matrix(1.3333333,0,0,-1.3333333,0,208.70792)"
       clip-path="url(#clipPath82)" />
    <path
       id="path83"
       d="m 40.892719,86.023114 h -2"
       style="fill:#000000;fill-opacity:1;fill-rule:nonzero;stroke:#000000;stroke-width:0.6;stroke-linecap:butt;stroke-linejoin:round;stroke-miterlimit:10;stroke-dasharray:none;stroke-opacity:1"
       transform="matrix(1.3333333,0,0,-1.3333333,0,208.70792)" />
    <path
       id="path84"
       d="M 40.892719,96.895114 H 152.49272"
       style="fill:none;stroke:#bfbfbf;stroke-width:0.8;stroke-linecap:butt;stroke-linejoin:round;stroke-miterlimit:10;stroke-dasharray:2.96, 1.28;stroke-dashoffset:0;stroke-opacity:1"
       transform="matrix(1.3333333,0,0,-1.3333333,0,208.70792)"
       clip-path="url(#clipPath85)" />
    <path
       id="path86"
       d="m 40.892719,96.895114 h -2"
       style="fill:#000000;fill-opacity:1;fill-rule:nonzero;stroke:#000000;stroke-width:0.6;stroke-linecap:butt;stroke-linejoin:round;stroke-miterlimit:10;stroke-dasharray:none;stroke-opacity:1"
       transform="matrix(1.3333333,0,0,-1.3333333,0,208.70792)" />
    <path
       id="path87"
       d="M 40.892719,102.33111 H 152.49272"
       style="fill:none;stroke:#bfbfbf;stroke-width:0.8;stroke-linecap:butt;stroke-linejoin:round;stroke-miterlimit:10;stroke-dasharray:2.96, 1.28;stroke-dashoffset:0;stroke-opacity:1"
       transform="matrix(1.3333333,0,0,-1.3333333,0,208.70792)"
       clip-path="url(#clipPath88)" />
    <path
       id="path89"
       d="m 40.892719,102.33111 h -2"
       style="fill:#000000;fill-opacity:1;fill-rule:nonzero;stroke:#000000;stroke-width:0.6;stroke-linecap:butt;stroke-linejoin:round;stroke-miterlimit:10;stroke-dasharray:none;stroke-opacity:1"
       transform="matrix(1.3333333,0,0,-1.3333333,0,208.70792)" />
    <path
       id="path90"
       d="M 40.892719,107.76711 H 152.49272"
       style="fill:none;stroke:#bfbfbf;stroke-width:0.8;stroke-linecap:butt;stroke-linejoin:round;stroke-miterlimit:10;stroke-dasharray:2.96, 1.28;stroke-dashoffset:0;stroke-opacity:1"
       transform="matrix(1.3333333,0,0,-1.3333333,0,208.70792)"
       clip-path="url(#clipPath91)" />
    <path
       id="path92"
       d="m 40.892719,107.76711 h -2"
       style="fill:#000000;fill-opacity:1;fill-rule:nonzero;stroke:#000000;stroke-width:0.6;stroke-linecap:butt;stroke-linejoin:round;stroke-miterlimit:10;stroke-dasharray:none;stroke-opacity:1"
       transform="matrix(1.3333333,0,0,-1.3333333,0,208.70792)" />
    <path
       id="path93"
       d="M 40.892719,113.20311 H 152.49272"
       style="fill:none;stroke:#bfbfbf;stroke-width:0.8;stroke-linecap:butt;stroke-linejoin:round;stroke-miterlimit:10;stroke-dasharray:2.96, 1.28;stroke-dashoffset:0;stroke-opacity:1"
       transform="matrix(1.3333333,0,0,-1.3333333,0,208.70792)"
       clip-path="url(#clipPath94)" />
    <path
       id="path95"
       d="m 40.892719,113.20311 h -2"
       style="fill:#000000;fill-opacity:1;fill-rule:nonzero;stroke:#000000;stroke-width:0.6;stroke-linecap:butt;stroke-linejoin:round;stroke-miterlimit:10;stroke-dasharray:none;stroke-opacity:1"
       transform="matrix(1.3333333,0,0,-1.3333333,0,208.70792)" />
    <path
       id="path96"
       d="M 40.892719,124.07511 H 152.49272"
       style="fill:none;stroke:#bfbfbf;stroke-width:0.8;stroke-linecap:butt;stroke-linejoin:round;stroke-miterlimit:10;stroke-dasharray:2.96, 1.28;stroke-dashoffset:0;stroke-opacity:1"
       transform="matrix(1.3333333,0,0,-1.3333333,0,208.70792)"
       clip-path="url(#clipPath97)" />
    <path
       id="path98"
       d="m 40.892719,124.07511 h -2"
       style="fill:#000000;fill-opacity:1;fill-rule:nonzero;stroke:#000000;stroke-width:0.6;stroke-linecap:butt;stroke-linejoin:round;stroke-miterlimit:10;stroke-dasharray:none;stroke-opacity:1"
       transform="matrix(1.3333333,0,0,-1.3333333,0,208.70792)" />
    <path
       id="path99"
       d="M 40.892719,129.51111 H 152.49272"
       style="fill:none;stroke:#bfbfbf;stroke-width:0.8;stroke-linecap:butt;stroke-linejoin:round;stroke-miterlimit:10;stroke-dasharray:2.96, 1.28;stroke-dashoffset:0;stroke-opacity:1"
       transform="matrix(1.3333333,0,0,-1.3333333,0,208.70792)"
       clip-path="url(#clipPath100)" />
    <path
       id="path101"
       d="m 40.892719,129.51111 h -2"
       style="fill:#000000;fill-opacity:1;fill-rule:nonzero;stroke:#000000;stroke-width:0.6;stroke-linecap:butt;stroke-linejoin:round;stroke-miterlimit:10;stroke-dasharray:none;stroke-opacity:1"
       transform="matrix(1.3333333,0,0,-1.3333333,0,208.70792)" />
    <path
       id="path102"
       d="M 40.892719,134.94711 H 152.49272"
       style="fill:none;stroke:#bfbfbf;stroke-width:0.8;stroke-linecap:butt;stroke-linejoin:round;stroke-miterlimit:10;stroke-dasharray:2.96, 1.28;stroke-dashoffset:0;stroke-opacity:1"
       transform="matrix(1.3333333,0,0,-1.3333333,0,208.70792)"
       clip-path="url(#clipPath103)" />
    <path
       id="path104"
       d="m 40.892719,134.94711 h -2"
       style="fill:#000000;fill-opacity:1;fill-rule:nonzero;stroke:#000000;stroke-width:0.6;stroke-linecap:butt;stroke-linejoin:round;stroke-miterlimit:10;stroke-dasharray:none;stroke-opacity:1"
       transform="matrix(1.3333333,0,0,-1.3333333,0,208.70792)" />
    <path
       id="path105"
       d="M 40.892719,140.38311 H 152.49272"
       style="fill:none;stroke:#bfbfbf;stroke-width:0.8;stroke-linecap:butt;stroke-linejoin:round;stroke-miterlimit:10;stroke-dasharray:2.96, 1.28;stroke-dashoffset:0;stroke-opacity:1"
       transform="matrix(1.3333333,0,0,-1.3333333,0,208.70792)"
       clip-path="url(#clipPath106)" />
    <path
       id="path107"
       d="m 40.892719,140.38311 h -2"
       style="fill:#000000;fill-opacity:1;fill-rule:nonzero;stroke:#000000;stroke-width:0.6;stroke-linecap:butt;stroke-linejoin:round;stroke-miterlimit:10;stroke-dasharray:none;stroke-opacity:1"
       transform="matrix(1.3333333,0,0,-1.3333333,0,208.70792)" />
    <path
       id="path108"
       d="m 2.7531012,-5.9063551 c 0,-0.46875 0.023437,-0.5742187 0.609375,-0.5742187 0.1523438,0 0.3164063,0 0.3164063,-0.1640625 0,-0.1757813 -0.1523438,-0.1757813 -0.328125,-0.1757813 h -2.8125 c -0.17578125,0 -0.33984375,0 -0.33984375,0.1757813 0,0.1640625 0.1640625,0.1640625 0.328125,0.1640625 0.57421875,0 0.59765625,0.1054687 0.59765625,0.5742187 v 4.99218753 c 0,0.48046875 -0.023437,0.5625 -0.62109375,0.5625 -0.12890625,0 -0.3046875,0 -0.3046875,0.17578125 0,0.1757812453 0.1640625,0.1757812453 0.33984375,0.1757812453 h 2.8125 c 0.1757812,0 0.328125,0 0.328125,-0.1757812453 0,-0.17578125 -0.1757813,-0.17578125 -0.28125,-0.17578125 -0.609375,0 -0.6445313,-0.0820313 -0.6445313,-0.5625 z m -1.2773437,-0.023437 c 0,-0.1523437 0,-0.3632812 -0.09375,-0.5507812 h 1.1132812 c -0.09375,0.1875 -0.09375,0.3984375 -0.09375,0.5507812 v 5.02734378 c 0,0.15234375 0,0.375 0.09375,0.55078125 H 1.3820075 c 0.09375,-0.17578125 0.09375,-0.3984375 0.09375,-0.55078125 z m 0,0"
       style="fill:#000000;fill-opacity:1;fill-rule:nonzero;stroke:none"
       aria-label="I"
       transform="matrix(0,-1.3333333,1.3333333,0,19.56264,104.80361)" />
    <path
       id="path109"
       d="m 1.1023622,-3.4219801 v 2.66015628 c 0,0.45703125 -0.1171875,0.45703125 -0.78515625,0.45703125 V -1.050747e-4 C 0.66876845,-0.01182382 1.1726747,-0.03526132 1.4422059,-0.03526132 c 0.2578125,0 0.7851563,0.0234375 1.1132813,0.0351562453 V -0.30479257 c -0.65625,0 -0.7734375,0 -0.7734375,-0.45703125 V -2.5899488 c 0,-1.03125 0.7148437,-1.59375 1.3476562,-1.59375 0.6210938,0 0.7382813,0.5390625 0.7382813,1.1015625 v 2.32031248 c 0,0.45703125 -0.1171875,0.45703125 -0.7734375,0.45703125 v 0.3046874953 c 0.3398437,-0.0117187453 0.8554687,-0.0351562453 1.125,-0.0351562453 0.2578125,0 0.7734375,0.0234375 1.1132812,0.0351562453 V -0.30479257 c -0.6679687,0 -0.7851562,0 -0.7851562,-0.45703125 V -2.5899488 c 0,-1.03125 0.7148437,-1.59375 1.3476562,-1.59375 0.6328125,0 0.7382813,0.5390625 0.7382813,1.1015625 v 2.32031248 c 0,0.45703125 -0.1054688,0.45703125 -0.7734375,0.45703125 v 0.3046874953 c 0.3515625,-0.0117187453 0.8554687,-0.0351562453 1.125,-0.0351562453 0.2578125,0 0.7734375,0.0234375 1.1132812,0.0351562453 V -0.30479257 c -0.515625,0 -0.7617187,0 -0.7734375,-0.3046875 V -2.5079176 c 0,-0.8554687 0,-1.171875 -0.3164062,-1.5234375 -0.1289063,-0.1757812 -0.46875,-0.375 -1.0429688,-0.375 -0.8320312,0 -1.2773437,0.5976563 -1.4414062,0.984375 -0.140625,-0.8671875 -0.8789063,-0.984375 -1.3242188,-0.984375 -0.7265625,0 -1.1953125,0.4335938 -1.4765625,1.0546875 v -1.0546875 l -1.40624995,0.1171875 v 0.3046875 c 0.70312495,0 0.78515625,0.070312 0.78515625,0.5625 z m 0,0"
       style="fill:#000000;fill-opacity:1;fill-rule:nonzero;stroke:none"
       aria-label="m"
       transform="matrix(0,-1.3333333,1.3333333,0,19.56264,99.637785)" />
    <path
       id="path110"
       d="m 2.8255274,-6.1407301 c 0,-0.3984375 0.2578125,-1.0429687 1.3359375,-1.1132812 0.058594,-0.011719 0.09375,-0.046875 0.09375,-0.1054688 0,-0.1171875 -0.082031,-0.1171875 -0.1875,-0.1171875 -0.9960937,0 -1.9101562,0.515625 -1.9101562,1.2539063 v 2.2734375 c 0,0.3867187 0,0.703125 -0.3984375,1.03125 -0.3515625,0.2929687 -0.7265625,0.3046875 -0.9492188,0.3164062 -0.046875,0.011719 -0.09375,0.046875 -0.09375,0.1054688 0,0.1054687 0.0585938,0.1054687 0.1640625,0.1171875 0.65625,0.035156 1.1367188,0.3984375 1.2421875,0.8789062 0.035156,0.1171875 0.035156,0.140625 0.035156,0.4921875 v 1.96875003 c 0,0.42187497 0,0.73828127 0.46875,1.12499997 0.3984375,0.2929688 1.0546875,0.4101563 1.4414062,0.4101563 0.1054688,0 0.1875,0 0.1875,-0.1171875 0,-0.09375 -0.058594,-0.09375 -0.1640625,-0.1054688 C 3.4700587,2.2264574 2.9778712,1.9100512 2.8489649,1.4061449 2.8255274,1.3123949 2.8255274,1.3006762 2.8255274,0.93739493 V -1.1602613 c 0,-0.4570313 -0.082031,-0.6210938 -0.3984375,-0.9375 C 2.2161524,-2.3086988 1.9231837,-2.4141676 1.6419337,-2.4961988 2.4622462,-2.7188551 2.8255274,-3.1758863 2.8255274,-3.7501051 Z m 0,0"
       style="fill:#000000;fill-opacity:1;fill-rule:nonzero;stroke:none"
       aria-label="{"
       transform="matrix(0,-1.3333333,1.3333333,0,19.56264,88.568151)" />
    <path
       id="path111"
       d="m 0.6684109,-5.1094801 c 0.0703125,-0.515625 0.328125,-0.8085937 0.7265625,-0.8085937 0.2929688,0 0.5273438,0.2226562 0.6679688,0.6328125 0.058594,0.1757812 0.140625,0.46875 0.2226562,0.8085937 L 0.21137965,-1.050747e-4 H 1.0551297 L 2.5785672,-3.2110426 c 0.2929687,1.7460938 0.4335937,2.39062503 0.5976562,2.73046878 0.1992188,0.38671875 0.4804688,0.59765625 0.8085938,0.59765625 0.3515625,0 0.6328125,-0.2109375 0.7851562,-0.609375 0.09375,-0.24609375 0.1289063,-0.48046875 0.140625,-0.90234373 h -0.1875 c -0.070312,0.45703123 -0.28125,0.72656248 -0.5976562,0.72656248 -0.2695313,0 -0.5039063,-0.17578125 -0.6445313,-0.49218748 -0.1171875,-0.234375 -0.1757812,-0.4570313 -0.3046875,-1.125 L 2.9301297,-3.4454176 c -0.011719,-0.023437 -0.011719,-0.082031 -0.035156,-0.1757812 -0.2109375,-1.1601563 -0.5273437,-2.25 -0.7382812,-2.578125 -0.1992188,-0.28125 -0.46875,-0.4335938 -0.7617188,-0.4335938 -0.55078125,0 -0.84375,0.46875 -0.9375,1.5234375 z m 0,0"
       style="fill:#000000;fill-opacity:1;fill-rule:nonzero;stroke:none"
       aria-label="λ"
       transform="matrix(0,-1.3333333,1.3333333,0,19.56264,81.926371)" />
    <path
       id="path112"
       d="m 2.1560628,1.1600512 c 0,0.3984375 -0.2578125,1.0429687 -1.34765625,1.1132812 -0.046875,0.011719 -0.09375,0.046875 -0.09375,0.1054688 0,0.1171875 0.1171875,0.1171875 0.19921875,0.1171875 0.9726562,0 1.8984375,-0.4921875 1.9101562,-1.2539063 v -2.2734375 c 0,-0.3867187 0,-0.703125 0.3984375,-1.03125 0.3398438,-0.2929687 0.7265625,-0.3046875 0.9375,-0.3164062 0.058594,-0.011719 0.09375,-0.046875 0.09375,-0.1171875 0,-0.09375 -0.058594,-0.09375 -0.1640625,-0.1054688 C 3.4334065,-2.6368236 2.9529378,-3.0001051 2.847469,-3.4922926 2.824032,-3.5977613 2.824032,-3.6211988 2.824032,-3.9727613 v -1.96875 c 0,-0.421875 0,-0.7382813 -0.4804687,-1.125 -0.3984375,-0.3046875 -1.0898438,-0.4101563 -1.4296875,-0.4101563 -0.0820313,0 -0.19921875,0 -0.19921875,0.1171875 0,0.09375 0.0585938,0.09375 0.1640625,0.1054688 0.62109375,0.046875 1.11328125,0.3632812 1.24218745,0.8671875 0.035156,0.09375 0.035156,0.1054687 0.035156,0.46875 v 2.0976562 c 0,0.4570313 0.070312,0.6210938 0.3984375,0.9375 0.1992187,0.2109375 0.4921875,0.3164063 0.7734375,0.3867188 -0.8203125,0.234375 -1.171875,0.6914062 -1.171875,1.265625 z m 0,0"
       style="fill:#000000;fill-opacity:1;fill-rule:nonzero;stroke:none"
       aria-label="}"
       transform="matrix(0,-1.3333333,1.3333333,0,19.56264,75.363032)" />
    <path
       id="path113"
       d="M 40.892719,37.099114 V 145.81911"
       style="fill:none;stroke:#000000;stroke-width:0.8;stroke-linecap:square;stroke-linejoin:miter;stroke-miterlimit:10;stroke-dasharray:none;stroke-opacity:1"
       transform="matrix(1.3333333,0,0,-1.3333333,0,208.70792)" />
    <path
       id="path114"
       d="M 152.49272,37.099114 V 145.81911"
       style="fill:none;stroke:#000000;stroke-width:0.8;stroke-linecap:square;stroke-linejoin:miter;stroke-miterlimit:10;stroke-dasharray:none;stroke-opacity:1"
       transform="matrix(1.3333333,0,0,-1.3333333,0,208.70792)" />
    <path
       id="path115"
       d="M 40.892719,37.099114 H 152.49272"
       style="fill:none;stroke:#000000;stroke-width:0.8;stroke-linecap:square;stroke-linejoin:miter;stroke-miterlimit:10;stroke-dasharray:none;stroke-opacity:1"
       transform="matrix(1.3333333,0,0,-1.3333333,0,208.70792)" />
    <path
       id="path116"
       d="M 40.892719,145.81911 H 152.49272"
       style="fill:none;stroke:#000000;stroke-width:0.8;stroke-linecap:square;stroke-linejoin:miter;stroke-miterlimit:10;stroke-dasharray:none;stroke-opacity:1"
       transform="matrix(1.3333333,0,0,-1.3333333,0,208.70792)" />
    <g
       id="g2"
       transform="translate(0.53333676,55.897967)">
      <rect
         style="opacity:0.957787;fill:#ffffff;stroke:none;stroke-width:1;stroke-linecap:round;stroke-linejoin:round;stroke-dasharray:8, 2, 1, 2;stroke-dashoffset:0"
         id="rect164-9"
         width="64.722672"
         height="22.904873"
         x="133.76228"
         y="75.310005"
         ry="8.9422112" />
      <g
         inkscape:label=""
         transform="translate(240.78202,89.330281)"
         id="g160">
        <g
           id="g159"
           transform="matrix(1.33333,0,0,1.33333,-2.99067,-2.80416)">
          <g
             id="g162"
             transform="matrix(0.83334379,0,0,0.83334379,-12.708804,-1.0760723)">
            <g
               style="fill:#000000;fill-opacity:1"
               id="g18"
               transform="translate(-69.104724,-11.009089)">
              <g
                 id="g143"
                 transform="translate(1.993,9.0209999)">
                <path
                   style="stroke:none"
                   d="m 0.25,-4.296875 v 0.21875 h 0.234375 c 0.28125,0 0.546875,0.046875 0.546875,0.453125 v 2.953125 c 0,0.421875 -0.28125,0.4375 -0.78125,0.4375 v 0.21875 h 2.4375 v -0.21875 H 2.390625 c -0.359375,0 -0.671875,-0.03125 -0.671875,-0.46875 V -3.71875 c 0,-0.203125 0.078125,-0.359375 0.3125,-0.359375 h 0.625 c 0.671875,0 1.203125,0.046875 1.265625,1.390625 h 0.25 L 4.0625,-4.296875 Z m 0,0"
                   id="path142" />
              </g>
              <g
                 id="g144"
                 transform="translate(6.4163942,9.0209999)">
                <path
                   style="stroke:none"
                   d="m 0.265625,-4.296875 v 0.3125 h 0.1875 c 0.296875,0 0.59375,0.03125 0.59375,0.421875 V 1.21875 C 1.046875,1.578125 0.78125,1.609375 0.5,1.609375 H 0.265625 v 0.3125 h 2.25 v -0.3125 H 2.28125 C 1.984375,1.609375 1.75,1.578125 1.75,1.21875 v -1.734375 c 0.234375,0.421875 0.796875,0.609375 1.21875,0.609375 1.234375,0 2.21875,-1.046875 2.21875,-2.25 0,-1.203125 -0.921875,-2.25 -2.09375,-2.25 -0.546875,0 -1.015625,0.234375 -1.375,0.640625 V -4.40625 Z m 4.078125,2.3125 C 4.296875,-1.25 3.90625,-0.203125 3,-0.125 H 2.9375 C 2.515625,-0.125 2.125,-0.359375 1.890625,-0.71875 1.796875,-0.828125 1.75,-0.921875 1.75,-1.0625 V -2.734375 C 1.75,-2.875 1.734375,-3 1.734375,-3.125 1.734375,-3.65625 2.40625,-4.15625 3,-4.15625 c 1,0 1.359375,1.3125 1.359375,2.015625 0,0.046875 0,0.109375 -0.015625,0.15625 z m 0,0"
                   id="path143" />
              </g>
              <g
                 id="g145"
                 transform="translate(11.945637,9.0209999)">
                <path
                   style="stroke:none"
                   d="m 1.109375,-3.796875 c 0.25,-0.3125 0.6875,-0.453125 1.0625,-0.453125 0.734375,0 1.0625,0.671875 1.0625,1.375 v 0.265625 c -1.140625,0 -2.828125,0.359375 -2.828125,1.65625 V -0.875 c 0.078125,0.78125 1.046875,0.96875 1.625,0.96875 0.5,0 1.15625,-0.328125 1.28125,-0.84375 0.0625,0.4375 0.34375,0.796875 0.78125,0.796875 0.40625,0 0.765625,-0.328125 0.828125,-0.78125 v -0.71875 h -0.25 v 0.5 c 0,0.28125 -0.0625,0.6875 -0.359375,0.6875 -0.328125,0 -0.375,-0.390625 -0.375,-0.65625 V -2.59375 c 0,-0.125 0.015625,-0.25 0.015625,-0.375 0,-0.96875 -0.90625,-1.5 -1.734375,-1.5 -0.640625,0 -1.515625,0.3125 -1.515625,1.109375 0,0.28125 0.203125,0.484375 0.46875,0.484375 0.28125,0 0.4375,-0.21875 0.4375,-0.46875 0,-0.28125 -0.21875,-0.453125 -0.5,-0.453125 z m 2.125,1.390625 v 1.015625 c 0,0.6875 -0.46875,1.234375 -1.125,1.265625 H 2.078125 C 1.609375,-0.125 1.1875,-0.484375 1.1875,-0.96875 V -1.015625 C 1.25,-2.03125 2.375,-2.375 3.234375,-2.40625 Z m 0,0"
                   id="path144" />
              </g>
              <g
                 id="g146"
                 transform="translate(16.916975,9.0209999)">
                <path
                   style="stroke:none"
                   d="m 0.25,-4.296875 v 0.21875 h 0.234375 c 0.28125,0 0.546875,0.046875 0.546875,0.453125 v 2.953125 c 0,0.421875 -0.28125,0.4375 -0.78125,0.4375 v 0.21875 H 2.5 v -0.21875 H 2.265625 c -0.296875,0 -0.546875,-0.03125 -0.546875,-0.4375 0,-0.078125 0,-0.15625 0,-0.21875 v -1.375 h 2.078125 v 1.375 c 0,0.0625 0.015625,0.140625 0.015625,0.21875 0,0.4375 -0.328125,0.4375 -0.796875,0.4375 v 0.21875 H 5.28125 v -0.21875 H 5.046875 C 4.765625,-0.234375 4.5,-0.265625 4.5,-0.671875 V -3.625 c 0,-0.421875 0.25,-0.453125 0.78125,-0.453125 v -0.21875 H 3.015625 v 0.21875 h 0.21875 c 0.28125,0 0.5625,0.046875 0.5625,0.421875 v 1.1875 H 1.71875 v -1.1875 c 0,-0.328125 0.125,-0.421875 0.78125,-0.421875 v -0.21875 z m 0,0"
                   id="path145" />
              </g>
              <g
                 id="g147"
                 transform="translate(22.446218,9.0209999)">
                <path
                   style="stroke:none"
                   d="m 0.25,-4.296875 v 0.21875 h 0.234375 c 0.28125,0 0.546875,0.046875 0.546875,0.453125 v 2.953125 c 0,0.421875 -0.28125,0.4375 -0.78125,0.4375 v 0.21875 H 2.5 v -0.21875 H 2.328125 C 2.03125,-0.234375 1.71875,-0.265625 1.71875,-0.625 1.734375,-0.71875 1.828125,-0.78125 1.875,-0.859375 L 2.265625,-1.34375 C 2.78125,-1.96875 3.25,-2.65625 3.796875,-3.25 v 2.578125 c 0,0.34375 -0.140625,0.4375 -0.78125,0.4375 v 0.21875 H 5.28125 v -0.21875 H 5.046875 C 4.765625,-0.234375 4.5,-0.265625 4.5,-0.671875 V -3.625 c 0,-0.421875 0.25,-0.453125 0.78125,-0.453125 v -0.21875 H 3.015625 v 0.21875 h 0.1875 c 0.28125,0 0.59375,0.03125 0.59375,0.40625 -0.015625,0.078125 -0.09375,0.15625 -0.140625,0.21875 l -0.390625,0.5 c -0.53125,0.625 -1,1.296875 -1.546875,1.890625 v -2.578125 c 0,-0.34375 0.140625,-0.4375 0.78125,-0.4375 v -0.21875 z m 0,0"
                   id="path146" />
              </g>
              <g
                 id="g148"
                 transform="translate(27.97546,9.0209999)">
                <path
                   style="stroke:none"
                   d="m 0.25,-4.296875 v 0.21875 h 0.234375 c 0.28125,0 0.546875,0.046875 0.546875,0.453125 v 2.953125 c 0,0.421875 -0.28125,0.4375 -0.78125,0.4375 v 0.21875 h 3.234375 c 0.140625,0 0.28125,0 0.421875,0 0.515625,0 1.0625,0.078125 1.21875,0.71875 C 5.21875,1 5.234375,1.3125 5.265625,1.609375 h 0.25 L 5.34375,-0.234375 H 5.109375 C 4.78125,-0.234375 4.5,-0.265625 4.5,-0.703125 V -3.625 c 0,-0.4375 0.265625,-0.453125 0.78125,-0.453125 v -0.21875 H 3.015625 v 0.21875 h 0.21875 c 0.28125,0 0.5625,0.046875 0.5625,0.421875 v 3.0625 c 0,0.328125 -0.203125,0.375 -0.453125,0.375 H 3.078125 c -0.28125,0 -0.5625,-0.015625 -0.828125,-0.015625 H 2.078125 c -0.28125,0 -0.359375,-0.109375 -0.359375,-0.375 V -3.625 C 1.71875,-4.0625 2,-4.078125 2.5,-4.078125 v -0.21875 z m 0,0"
                   id="path147" />
              </g>
              <g
                 id="g149"
                 transform="translate(33.504704,9.0209999)">
                <path
                   style="stroke:none"
                   d="m 1.109375,-3.796875 c 0.25,-0.3125 0.6875,-0.453125 1.0625,-0.453125 0.734375,0 1.0625,0.671875 1.0625,1.375 v 0.265625 c -1.140625,0 -2.828125,0.359375 -2.828125,1.65625 V -0.875 c 0.078125,0.78125 1.046875,0.96875 1.625,0.96875 0.5,0 1.15625,-0.328125 1.28125,-0.84375 0.0625,0.4375 0.34375,0.796875 0.78125,0.796875 0.40625,0 0.765625,-0.328125 0.828125,-0.78125 v -0.71875 h -0.25 v 0.5 c 0,0.28125 -0.0625,0.6875 -0.359375,0.6875 -0.328125,0 -0.375,-0.390625 -0.375,-0.65625 V -2.59375 c 0,-0.125 0.015625,-0.25 0.015625,-0.375 0,-0.96875 -0.90625,-1.5 -1.734375,-1.5 -0.640625,0 -1.515625,0.3125 -1.515625,1.109375 0,0.28125 0.203125,0.484375 0.46875,0.484375 0.28125,0 0.4375,-0.21875 0.4375,-0.46875 0,-0.28125 -0.21875,-0.453125 -0.5,-0.453125 z m 2.125,1.390625 v 1.015625 c 0,0.6875 -0.46875,1.234375 -1.125,1.265625 H 2.078125 C 1.609375,-0.125 1.1875,-0.484375 1.1875,-0.96875 V -1.015625 C 1.25,-2.03125 2.375,-2.375 3.234375,-2.40625 Z m 0,0"
                   id="path148" />
              </g>
            </g>
            <g
               id="g161"
               transform="translate(-118.37932,0.28750101)">
              <g
                 style="fill:#000000;fill-opacity:1"
                 id="g20">
                <g
                   id="g150"
                   transform="translate(41.793587,9.0209999)">
                  <path
                     style="stroke:none"
                     d="m 3.578125,-3.859375 c -0.265625,0.015625 -0.46875,0.1875 -0.46875,0.453125 0,0.28125 0.1875,0.46875 0.453125,0.46875 0.3125,0 0.46875,-0.21875 0.46875,-0.5 V -3.5 C 3.921875,-4.234375 3.078125,-4.46875 2.5,-4.46875 c -1.21875,0 -2.171875,1.0625 -2.171875,2.3125 0,1.125 0.875,2.25 2.171875,2.25 0.65625,0 1.296875,-0.359375 1.5625,-1.046875 0.03125,-0.0625 0.078125,-0.15625 0.078125,-0.21875 0,-0.078125 -0.046875,-0.125 -0.125,-0.125 -0.140625,0 -0.234375,0.375 -0.3125,0.515625 -0.234375,0.375 -0.640625,0.625 -1.09375,0.625 -1.0625,0 -1.390625,-1.0625 -1.4375,-1.84375 v -0.125 c 0,-0.796875 0.1875,-1.984375 1.28125,-2.09375 H 2.53125 c 0.375,0 0.765625,0.109375 1.046875,0.359375 z m 0,0"
                     id="path149" />
                </g>
                <g
                   id="g151"
                   transform="translate(46.21698,9.0209999)">
                  <path
                     style="stroke:none"
                     d="M 0.359375,-4.296875 0.25,-2.6875 H 0.5 c 0.015625,-0.375 0.03125,-0.875 0.234375,-1.125 C 0.921875,-4.03125 1.25,-4.078125 1.53125,-4.078125 h 0.1875 c 0.234375,0 0.421875,0.015625 0.421875,0.375 v 2.96875 c 0,0.453125 -0.375,0.515625 -0.75,0.515625 -0.109375,0 -0.25,-0.015625 -0.359375,-0.015625 v 0.21875 h 2.890625 v -0.21875 c -0.125,0 -0.25,0.015625 -0.375,0.015625 -0.375,0 -0.71875,-0.0625 -0.71875,-0.515625 v -2.96875 c 0,-0.203125 0,-0.375 0.421875,-0.375 h 0.1875 c 0.625,0 0.984375,0.203125 1.03125,1.390625 h 0.25 L 4.609375,-4.296875 Z m 0,0"
                     id="path150" />
                </g>
              </g>
              <g
                 style="fill:#000000;fill-opacity:1"
                 id="g29">
                <g
                   id="g152"
                   transform="translate(50.919331,9.0209999)">
                  <path
                     style="stroke:none"
                     d="m 1.109375,-3.796875 c 0.25,-0.3125 0.6875,-0.453125 1.0625,-0.453125 0.734375,0 1.0625,0.671875 1.0625,1.375 v 0.265625 c -1.140625,0 -2.828125,0.359375 -2.828125,1.65625 V -0.875 c 0.078125,0.78125 1.046875,0.96875 1.625,0.96875 0.5,0 1.15625,-0.328125 1.28125,-0.84375 0.0625,0.4375 0.34375,0.796875 0.78125,0.796875 0.40625,0 0.765625,-0.328125 0.828125,-0.78125 v -0.71875 h -0.25 v 0.5 c 0,0.28125 -0.0625,0.6875 -0.359375,0.6875 -0.328125,0 -0.375,-0.390625 -0.375,-0.65625 V -2.59375 c 0,-0.125 0.015625,-0.25 0.015625,-0.375 0,-0.96875 -0.90625,-1.5 -1.734375,-1.5 -0.640625,0 -1.515625,0.3125 -1.515625,1.109375 0,0.28125 0.203125,0.484375 0.46875,0.484375 0.28125,0 0.4375,-0.21875 0.4375,-0.46875 0,-0.28125 -0.21875,-0.453125 -0.5,-0.453125 z m 2.125,1.390625 v 1.015625 c 0,0.6875 -0.46875,1.234375 -1.125,1.265625 H 2.078125 C 1.609375,-0.125 1.1875,-0.484375 1.1875,-0.96875 V -1.015625 C 1.25,-2.03125 2.375,-2.375 3.234375,-2.40625 Z m 0,0"
                     id="path151" />
                </g>
                <g
                   id="g153"
                   transform="translate(55.890667,9.0209999)">
                  <path
                     style="stroke:none"
                     d="m 1.109375,-1.890625 v -0.4375 C 1.109375,-3.0625 1.328125,-4.25 2.375,-4.25 c 0.90625,0 1.375,0.625 1.46875,1.4375 0.015625,0.21875 0.015625,0.4375 0.015625,0.65625 0,0.640625 -0.078125,1.453125 -0.703125,1.8125 C 2.953125,-0.203125 2.734375,-0.15625 2.5,-0.15625 1.78125,-0.15625 1.265625,-0.71875 1.15625,-1.5 1.140625,-1.625 1.140625,-1.765625 1.109375,-1.890625 Z M 3.265625,-6.71875 C 3,-6.71875 2.5625,-6.734375 2.296875,-6.734375 1.421875,-6.78125 0.8125,-6.53125 0.546875,-5.96875 0.453125,-5.765625 0.40625,-5.359375 0.484375,-5.140625 0.625,-4.71875 1.0625,-4.453125 1.71875,-4.3125 c -0.890625,0.359375 -1.4375,1.234375 -1.4375,2.1875 0,1.125 0.890625,2.21875 2.21875,2.21875 1.1875,0 2.1875,-0.96875 2.1875,-2.234375 0,-1.171875 -0.890625,-2.328125 -2.21875,-2.328125 H 2.328125 c -0.9375,-0.046875 -1.421875,-0.3125 -1.4375,-0.75 0,-0.484375 0.40625,-0.859375 1,-0.875 0.1875,0 0.40625,0.015625 0.625,0.046875 0.875,0.125 1.296875,0.03125 1.65625,-0.359375 0.1875,-0.1875 0.28125,-0.390625 0.25,-0.453125 -0.046875,-0.0625 -0.1875,-0.078125 -0.21875,-0.03125 -0.296875,0.125 -0.375,0.171875 -0.9375,0.171875 z m 0,0"
                     id="path152" />
                </g>
                <g
                   id="g154"
                   transform="translate(60.862003,9.0209999)">
                  <path
                     style="stroke:none"
                     d="m 0.25,-4.296875 v 0.21875 h 0.234375 c 0.28125,0 0.546875,0.046875 0.546875,0.453125 v 2.953125 c 0,0.421875 -0.28125,0.4375 -0.78125,0.4375 v 0.21875 H 2.5 v -0.21875 H 2.328125 C 2.03125,-0.234375 1.71875,-0.265625 1.71875,-0.625 1.734375,-0.71875 1.828125,-0.78125 1.875,-0.859375 L 2.265625,-1.34375 C 2.78125,-1.96875 3.25,-2.65625 3.796875,-3.25 v 2.578125 c 0,0.34375 -0.140625,0.4375 -0.78125,0.4375 v 0.21875 H 5.28125 v -0.21875 H 5.046875 C 4.765625,-0.234375 4.5,-0.265625 4.5,-0.671875 V -3.625 c 0,-0.421875 0.25,-0.453125 0.78125,-0.453125 v -0.21875 H 3.015625 v 0.21875 h 0.1875 c 0.28125,0 0.59375,0.03125 0.59375,0.40625 -0.015625,0.078125 -0.09375,0.15625 -0.140625,0.21875 l -0.390625,0.5 c -0.53125,0.625 -1,1.296875 -1.546875,1.890625 v -2.578125 c 0,-0.34375 0.140625,-0.4375 0.78125,-0.4375 v -0.21875 z m 0,0"
                     id="path153" />
                </g>
                <g
                   id="g155"
                   transform="translate(66.391243,9.0209999)">
                  <path
                     style="stroke:none"
                     d="m 1.171875,-4.296875 v 0.21875 h 0.21875 c 0.3125,0 0.59375,0.046875 0.59375,0.453125 0,0.75 -0.03125,1.578125 -0.1875,2.3125 -0.09375,0.484375 -0.21875,1.21875 -0.8125,1.21875 -0.15625,0 -0.265625,-0.0625 -0.390625,-0.140625 0.25,-0.03125 0.4375,-0.171875 0.4375,-0.421875 0,-0.234375 -0.1875,-0.421875 -0.4375,-0.421875 -0.234375,0 -0.40625,0.171875 -0.40625,0.453125 0,0.453125 0.359375,0.78125 0.796875,0.78125 0.6875,0 0.921875,-0.71875 1.046875,-1.265625 0.15625,-0.75 0.203125,-1.546875 0.203125,-2.3125 V -3.625 C 2.234375,-3.84375 2.25,-4.046875 2.5,-4.078125 h 0.953125 c 0.25,0 0.34375,0.109375 0.34375,0.359375 v 3.03125 c 0,0.421875 -0.203125,0.453125 -0.78125,0.453125 v 0.21875 H 5.28125 v -0.21875 H 5.046875 C 4.765625,-0.234375 4.5,-0.265625 4.5,-0.671875 V -3.625 c 0,-0.421875 0.25,-0.453125 0.78125,-0.453125 v -0.21875 z m 0,0"
                     id="path154" />
                </g>
                <g
                   id="g156"
                   transform="translate(71.920486,9.0209999)">
                  <path
                     style="stroke:none"
                     d="m 0.25,-4.296875 v 0.21875 h 0.234375 c 0.28125,0 0.546875,0.046875 0.546875,0.453125 v 2.953125 c 0,0.421875 -0.28125,0.4375 -0.78125,0.4375 v 0.21875 H 2.5 v -0.21875 H 2.265625 c -0.296875,0 -0.546875,-0.03125 -0.546875,-0.4375 0,-0.078125 0,-0.15625 0,-0.21875 v -1.375 h 2.078125 v 1.375 c 0,0.0625 0.015625,0.140625 0.015625,0.21875 0,0.4375 -0.328125,0.4375 -0.796875,0.4375 v 0.21875 H 5.28125 v -0.21875 H 5.046875 C 4.765625,-0.234375 4.5,-0.265625 4.5,-0.671875 V -3.625 c 0,-0.421875 0.25,-0.453125 0.78125,-0.453125 v -0.21875 H 3.015625 v 0.21875 h 0.21875 c 0.28125,0 0.5625,0.046875 0.5625,0.421875 v 1.1875 H 1.71875 v -1.1875 c 0,-0.328125 0.125,-0.421875 0.78125,-0.421875 v -0.21875 z m 0,0"
                     id="path155" />
                </g>
                <g
                   id="use26"
                   transform="translate(77.44973,9.0209999)">
                  <path
                     style="stroke:none"
                     d="m 2.34375,-4.46875 c -1.25,0.125 -2.0625,1.1875 -2.0625,2.34375 0,1.125 0.890625,2.21875 2.21875,2.21875 1.1875,0 2.1875,-0.96875 2.1875,-2.234375 0,-1.171875 -0.890625,-2.328125 -2.21875,-2.328125 -0.03125,0 -0.09375,0 -0.125,0 z m -1.234375,2.578125 v -0.4375 c 0,-0.765625 0.25,-1.921875 1.375,-1.921875 0.8125,0 1.265625,0.6875 1.359375,1.4375 0.015625,0.21875 0.015625,0.4375 0.015625,0.65625 0,0.640625 -0.078125,1.453125 -0.703125,1.8125 C 2.953125,-0.203125 2.734375,-0.15625 2.5,-0.15625 1.78125,-0.15625 1.265625,-0.71875 1.15625,-1.5 1.140625,-1.625 1.140625,-1.765625 1.109375,-1.890625 Z m 0,0"
                     id="path156" />
                </g>
                <g
                   id="use27"
                   transform="translate(82.421066,9.0209999)">
                  <path
                     style="stroke:none"
                     d="m 3.578125,-3.859375 c -0.265625,0.015625 -0.46875,0.1875 -0.46875,0.453125 0,0.28125 0.1875,0.46875 0.453125,0.46875 0.3125,0 0.46875,-0.21875 0.46875,-0.5 V -3.5 C 3.921875,-4.234375 3.078125,-4.46875 2.5,-4.46875 c -1.21875,0 -2.171875,1.0625 -2.171875,2.3125 0,1.125 0.875,2.25 2.171875,2.25 0.65625,0 1.296875,-0.359375 1.5625,-1.046875 0.03125,-0.0625 0.078125,-0.15625 0.078125,-0.21875 0,-0.078125 -0.046875,-0.125 -0.125,-0.125 -0.140625,0 -0.234375,0.375 -0.3125,0.515625 -0.234375,0.375 -0.640625,0.625 -1.09375,0.625 -1.0625,0 -1.390625,-1.0625 -1.4375,-1.84375 v -0.125 c 0,-0.796875 0.1875,-1.984375 1.28125,-2.09375 H 2.53125 c 0.375,0 0.765625,0.109375 1.046875,0.359375 z m 0,0"
                     id="path157" />
                </g>
                <g
                   id="use28"
                   transform="translate(86.844467,9.0209999)">
                  <path
                     style="stroke:none"
                     d="M 0.359375,-4.296875 0.25,-2.6875 H 0.5 c 0.015625,-0.375 0.03125,-0.875 0.234375,-1.125 C 0.921875,-4.03125 1.25,-4.078125 1.53125,-4.078125 h 0.1875 c 0.234375,0 0.421875,0.015625 0.421875,0.375 v 2.96875 c 0,0.453125 -0.375,0.515625 -0.75,0.515625 -0.109375,0 -0.25,-0.015625 -0.359375,-0.015625 v 0.21875 h 2.890625 v -0.21875 c -0.125,0 -0.25,0.015625 -0.375,0.015625 -0.375,0 -0.71875,-0.0625 -0.71875,-0.515625 v -2.96875 c 0,-0.203125 0,-0.375 0.421875,-0.375 h 0.1875 c 0.625,0 0.984375,0.203125 1.03125,1.390625 h 0.25 L 4.609375,-4.296875 Z m 0,0"
                     id="path158" />
                </g>
                <g
                   id="use29"
                   transform="translate(91.815804,9.0209999)">
                  <path
                     style="stroke:none"
                     d="m 0.25,-4.296875 v 0.21875 h 0.234375 c 0.28125,0 0.546875,0.046875 0.546875,0.453125 v 2.953125 c 0,0.421875 -0.28125,0.4375 -0.78125,0.4375 v 0.21875 H 2.5 v -0.21875 H 2.328125 C 2.03125,-0.234375 1.71875,-0.265625 1.71875,-0.625 1.734375,-0.71875 1.828125,-0.78125 1.875,-0.859375 L 2.265625,-1.34375 C 2.78125,-1.96875 3.25,-2.65625 3.796875,-3.25 v 2.578125 c 0,0.34375 -0.140625,0.4375 -0.78125,0.4375 v 0.21875 H 5.28125 v -0.21875 H 5.046875 C 4.765625,-0.234375 4.5,-0.265625 4.5,-0.671875 V -3.625 c 0,-0.421875 0.25,-0.453125 0.78125,-0.453125 v -0.21875 H 3.015625 v 0.21875 h 0.1875 c 0.28125,0 0.59375,0.03125 0.59375,0.40625 -0.015625,0.078125 -0.09375,0.15625 -0.140625,0.21875 l -0.390625,0.5 c -0.53125,0.625 -1,1.296875 -1.546875,1.890625 v -2.578125 c 0,-0.34375 0.140625,-0.4375 0.78125,-0.4375 v -0.21875 z m 0,0"
                     id="path159" />
                </g>
              </g>
            </g>
          </g>
        </g>
      </g>
    </g>
    <path
       style="fill:none;stroke:#000000;stroke-width:1px;stroke-linecap:butt;stroke-linejoin:miter;stroke-opacity:1;stroke-dasharray:8, 2, 1, 2;stroke-dashoffset:0"
       d="m 128.92362,159.24244 1e-5,-144.959995"
       id="path162" />
    <path
       style="fill:none;stroke:#000000;stroke-width:1px;stroke-linecap:butt;stroke-linejoin:miter;stroke-opacity:1;marker-end:url(#ConcaveTriangle)"
       d="m 135.99363,138.96616 c -25.79118,-1.11397 -47.613979,-5.2734 -37.219839,-19.92975"
       id="path163"
       sodipodi:nodetypes="cc" />
    <g
       id="g3"
       transform="translate(0.71382639,-35.706661)">
      <rect
         style="opacity:0.957787;fill:#ffffff;stroke:none;stroke-width:1;stroke-linecap:round;stroke-linejoin:round;stroke-dasharray:8, 2, 1, 2;stroke-dashoffset:0"
         id="rect164"
         width="64.722672"
         height="22.904873"
         x="58.115128"
         y="56.609566"
         ry="8.9422112" />
      <g
         inkscape:label=""
         transform="matrix(0.83333583,0,0,0.83333583,119.73214,60.511788)"
         id="g141">
        <g
           id="surface2"
           transform="matrix(1.33333,0,0,1.33333,-3.03233,-2.80416)">
          <g
             style="fill:#000000;fill-opacity:1"
             id="g14"
             transform="translate(-41.689564,-2.9472025)">
            <g
               id="use9"
               transform="translate(1.993,9.0209999)">
              <path
                 style="stroke:none"
                 d="m 2.34375,-4.46875 c -1.25,0.125 -2.0625,1.1875 -2.0625,2.34375 0,1.125 0.890625,2.21875 2.21875,2.21875 1.1875,0 2.1875,-0.96875 2.1875,-2.234375 0,-1.171875 -0.890625,-2.328125 -2.21875,-2.328125 -0.03125,0 -0.09375,0 -0.125,0 z m -1.234375,2.578125 v -0.4375 c 0,-0.765625 0.25,-1.921875 1.375,-1.921875 0.8125,0 1.265625,0.6875 1.359375,1.4375 0.015625,0.21875 0.015625,0.4375 0.015625,0.65625 0,0.640625 -0.078125,1.453125 -0.703125,1.8125 C 2.953125,-0.203125 2.734375,-0.15625 2.5,-0.15625 1.78125,-0.15625 1.265625,-0.71875 1.15625,-1.5 1.140625,-1.625 1.140625,-1.765625 1.109375,-1.890625 Z m 0,0"
                 id="path125" />
            </g>
            <g
               id="use10"
               transform="translate(6.9643369,9.0209999)">
              <path
                 style="stroke:none"
                 d="m 1.109375,-1.890625 v -0.4375 C 1.109375,-3.0625 1.328125,-4.25 2.375,-4.25 c 0.90625,0 1.375,0.625 1.46875,1.4375 0.015625,0.21875 0.015625,0.4375 0.015625,0.65625 0,0.640625 -0.078125,1.453125 -0.703125,1.8125 C 2.953125,-0.203125 2.734375,-0.15625 2.5,-0.15625 1.78125,-0.15625 1.265625,-0.71875 1.15625,-1.5 1.140625,-1.625 1.140625,-1.765625 1.109375,-1.890625 Z M 3.265625,-6.71875 C 3,-6.71875 2.5625,-6.734375 2.296875,-6.734375 1.421875,-6.78125 0.8125,-6.53125 0.546875,-5.96875 0.453125,-5.765625 0.40625,-5.359375 0.484375,-5.140625 0.625,-4.71875 1.0625,-4.453125 1.71875,-4.3125 c -0.890625,0.359375 -1.4375,1.234375 -1.4375,2.1875 0,1.125 0.890625,2.21875 2.21875,2.21875 1.1875,0 2.1875,-0.96875 2.1875,-2.234375 0,-1.171875 -0.890625,-2.328125 -2.21875,-2.328125 H 2.328125 c -0.9375,-0.046875 -1.421875,-0.3125 -1.4375,-0.75 0,-0.484375 0.40625,-0.859375 1,-0.875 0.1875,0 0.40625,0.015625 0.625,0.046875 0.875,0.125 1.296875,0.03125 1.65625,-0.359375 0.1875,-0.1875 0.28125,-0.390625 0.25,-0.453125 -0.046875,-0.0625 -0.1875,-0.078125 -0.21875,-0.03125 -0.296875,0.125 -0.375,0.171875 -0.9375,0.171875 z m 0,0"
                 id="path126" />
            </g>
            <g
               id="use11"
               transform="translate(11.935675,9.0209999)">
              <path
                 style="stroke:none"
                 d="m 1.171875,-4.296875 v 0.21875 h 0.21875 c 0.3125,0 0.59375,0.046875 0.59375,0.453125 0,0.75 -0.03125,1.578125 -0.1875,2.3125 -0.09375,0.484375 -0.21875,1.21875 -0.8125,1.21875 -0.15625,0 -0.265625,-0.0625 -0.390625,-0.140625 0.25,-0.03125 0.4375,-0.171875 0.4375,-0.421875 0,-0.234375 -0.1875,-0.421875 -0.4375,-0.421875 -0.234375,0 -0.40625,0.171875 -0.40625,0.453125 0,0.453125 0.359375,0.78125 0.796875,0.78125 0.6875,0 0.921875,-0.71875 1.046875,-1.265625 0.15625,-0.75 0.203125,-1.546875 0.203125,-2.3125 V -3.625 C 2.234375,-3.84375 2.25,-4.046875 2.5,-4.078125 h 0.953125 c 0.25,0 0.34375,0.109375 0.34375,0.359375 v 3.03125 c 0,0.421875 -0.203125,0.453125 -0.78125,0.453125 v 0.21875 H 5.28125 v -0.21875 H 5.046875 C 4.765625,-0.234375 4.5,-0.265625 4.5,-0.671875 V -3.625 c 0,-0.421875 0.25,-0.453125 0.78125,-0.453125 v -0.21875 z m 0,0"
                 id="path127" />
            </g>
            <g
               id="use12"
               transform="translate(17.464918,9.0209999)">
              <path
                 style="stroke:none"
                 d="m 1.109375,-3.796875 c 0.25,-0.3125 0.6875,-0.453125 1.0625,-0.453125 0.734375,0 1.0625,0.671875 1.0625,1.375 v 0.265625 c -1.140625,0 -2.828125,0.359375 -2.828125,1.65625 V -0.875 c 0.078125,0.78125 1.046875,0.96875 1.625,0.96875 0.5,0 1.15625,-0.328125 1.28125,-0.84375 0.0625,0.4375 0.34375,0.796875 0.78125,0.796875 0.40625,0 0.765625,-0.328125 0.828125,-0.78125 v -0.71875 h -0.25 v 0.5 c 0,0.28125 -0.0625,0.6875 -0.359375,0.6875 -0.328125,0 -0.375,-0.390625 -0.375,-0.65625 V -2.59375 c 0,-0.125 0.015625,-0.25 0.015625,-0.375 0,-0.96875 -0.90625,-1.5 -1.734375,-1.5 -0.640625,0 -1.515625,0.3125 -1.515625,1.109375 0,0.28125 0.203125,0.484375 0.46875,0.484375 0.28125,0 0.4375,-0.21875 0.4375,-0.46875 0,-0.28125 -0.21875,-0.453125 -0.5,-0.453125 z m 2.125,1.390625 v 1.015625 c 0,0.6875 -0.46875,1.234375 -1.125,1.265625 H 2.078125 C 1.609375,-0.125 1.1875,-0.484375 1.1875,-0.96875 V -1.015625 C 1.25,-2.03125 2.375,-2.375 3.234375,-2.40625 Z m 0,0"
                 id="path128" />
            </g>
            <g
               id="use13"
               transform="translate(22.436255,9.0209999)">
              <path
                 style="stroke:none"
                 d="m 3.578125,-3.859375 c -0.265625,0.015625 -0.46875,0.1875 -0.46875,0.453125 0,0.28125 0.1875,0.46875 0.453125,0.46875 0.3125,0 0.46875,-0.21875 0.46875,-0.5 V -3.5 C 3.921875,-4.234375 3.078125,-4.46875 2.5,-4.46875 c -1.21875,0 -2.171875,1.0625 -2.171875,2.3125 0,1.125 0.875,2.25 2.171875,2.25 0.65625,0 1.296875,-0.359375 1.5625,-1.046875 0.03125,-0.0625 0.078125,-0.15625 0.078125,-0.21875 0,-0.078125 -0.046875,-0.125 -0.125,-0.125 -0.140625,0 -0.234375,0.375 -0.3125,0.515625 -0.234375,0.375 -0.640625,0.625 -1.09375,0.625 -1.0625,0 -1.390625,-1.0625 -1.4375,-1.84375 v -0.125 c 0,-0.796875 0.1875,-1.984375 1.28125,-2.09375 H 2.53125 c 0.375,0 0.765625,0.109375 1.046875,0.359375 z m 0,0"
                 id="path129" />
            </g>
            <g
               id="use14"
               transform="translate(26.85965,9.0209999)">
              <path
                 style="stroke:none"
                 d="M 0.359375,-4.296875 0.25,-2.6875 H 0.5 c 0.015625,-0.375 0.03125,-0.875 0.234375,-1.125 C 0.921875,-4.03125 1.25,-4.078125 1.53125,-4.078125 h 0.1875 c 0.234375,0 0.421875,0.015625 0.421875,0.375 v 2.96875 c 0,0.453125 -0.375,0.515625 -0.75,0.515625 -0.109375,0 -0.25,-0.015625 -0.359375,-0.015625 v 0.21875 h 2.890625 v -0.21875 c -0.125,0 -0.25,0.015625 -0.375,0.015625 -0.375,0 -0.71875,-0.0625 -0.71875,-0.515625 v -2.96875 c 0,-0.203125 0,-0.375 0.421875,-0.375 h 0.1875 c 0.625,0 0.984375,0.203125 1.03125,1.390625 h 0.25 L 4.609375,-4.296875 Z m 0,0"
                 id="path130" />
            </g>
          </g>
          <g
             id="g142"
             transform="translate(-125.43968,-19.07271)">
            <g
               style="fill:#000000;fill-opacity:1"
               id="g16"
               transform="translate(37.712108,25.694619)">
              <g
                 id="use15"
                 transform="translate(35.148533,9.0209999)">
                <path
                   style="stroke:none"
                   d="m 3.578125,-3.859375 c -0.265625,0.015625 -0.46875,0.1875 -0.46875,0.453125 0,0.28125 0.1875,0.46875 0.453125,0.46875 0.3125,0 0.46875,-0.21875 0.46875,-0.5 V -3.5 C 3.921875,-4.234375 3.078125,-4.46875 2.5,-4.46875 c -1.21875,0 -2.171875,1.0625 -2.171875,2.3125 0,1.125 0.875,2.25 2.171875,2.25 0.65625,0 1.296875,-0.359375 1.5625,-1.046875 0.03125,-0.0625 0.078125,-0.15625 0.078125,-0.21875 0,-0.078125 -0.046875,-0.125 -0.125,-0.125 -0.140625,0 -0.234375,0.375 -0.3125,0.515625 -0.234375,0.375 -0.640625,0.625 -1.09375,0.625 -1.0625,0 -1.390625,-1.0625 -1.4375,-1.84375 v -0.125 c 0,-0.796875 0.1875,-1.984375 1.28125,-2.09375 H 2.53125 c 0.375,0 0.765625,0.109375 1.046875,0.359375 z m 0,0"
                   id="path131" />
              </g>
              <g
                 id="use16"
                 transform="translate(39.571926,9.0209999)">
                <path
                   style="stroke:none"
                   d="M 0.359375,-4.296875 0.25,-2.6875 H 0.5 c 0.015625,-0.375 0.03125,-0.875 0.234375,-1.125 C 0.921875,-4.03125 1.25,-4.078125 1.53125,-4.078125 h 0.1875 c 0.234375,0 0.421875,0.015625 0.421875,0.375 v 2.96875 c 0,0.453125 -0.375,0.515625 -0.75,0.515625 -0.109375,0 -0.25,-0.015625 -0.359375,-0.015625 v 0.21875 h 2.890625 v -0.21875 c -0.125,0 -0.25,0.015625 -0.375,0.015625 -0.375,0 -0.71875,-0.0625 -0.71875,-0.515625 v -2.96875 c 0,-0.203125 0,-0.375 0.421875,-0.375 h 0.1875 c 0.625,0 0.984375,0.203125 1.03125,1.390625 h 0.25 L 4.609375,-4.296875 Z m 0,0"
                   id="path132" />
              </g>
            </g>
            <g
               style="fill:#000000;fill-opacity:1"
               id="g25"
               transform="translate(37.712108,25.694619)">
              <g
                 id="use17"
                 transform="translate(44.274273,9.0209999)">
                <path
                   style="stroke:none"
                   d="m 1.109375,-3.796875 c 0.25,-0.3125 0.6875,-0.453125 1.0625,-0.453125 0.734375,0 1.0625,0.671875 1.0625,1.375 v 0.265625 c -1.140625,0 -2.828125,0.359375 -2.828125,1.65625 V -0.875 c 0.078125,0.78125 1.046875,0.96875 1.625,0.96875 0.5,0 1.15625,-0.328125 1.28125,-0.84375 0.0625,0.4375 0.34375,0.796875 0.78125,0.796875 0.40625,0 0.765625,-0.328125 0.828125,-0.78125 v -0.71875 h -0.25 v 0.5 c 0,0.28125 -0.0625,0.6875 -0.359375,0.6875 -0.328125,0 -0.375,-0.390625 -0.375,-0.65625 V -2.59375 c 0,-0.125 0.015625,-0.25 0.015625,-0.375 0,-0.96875 -0.90625,-1.5 -1.734375,-1.5 -0.640625,0 -1.515625,0.3125 -1.515625,1.109375 0,0.28125 0.203125,0.484375 0.46875,0.484375 0.28125,0 0.4375,-0.21875 0.4375,-0.46875 0,-0.28125 -0.21875,-0.453125 -0.5,-0.453125 z m 2.125,1.390625 v 1.015625 c 0,0.6875 -0.46875,1.234375 -1.125,1.265625 H 2.078125 C 1.609375,-0.125 1.1875,-0.484375 1.1875,-0.96875 V -1.015625 C 1.25,-2.03125 2.375,-2.375 3.234375,-2.40625 Z m 0,0"
                   id="path133" />
              </g>
              <g
                 id="use18"
                 transform="translate(49.245613,9.0209999)">
                <path
                   style="stroke:none"
                   d="m 1.109375,-1.890625 v -0.4375 C 1.109375,-3.0625 1.328125,-4.25 2.375,-4.25 c 0.90625,0 1.375,0.625 1.46875,1.4375 0.015625,0.21875 0.015625,0.4375 0.015625,0.65625 0,0.640625 -0.078125,1.453125 -0.703125,1.8125 C 2.953125,-0.203125 2.734375,-0.15625 2.5,-0.15625 1.78125,-0.15625 1.265625,-0.71875 1.15625,-1.5 1.140625,-1.625 1.140625,-1.765625 1.109375,-1.890625 Z M 3.265625,-6.71875 C 3,-6.71875 2.5625,-6.734375 2.296875,-6.734375 1.421875,-6.78125 0.8125,-6.53125 0.546875,-5.96875 0.453125,-5.765625 0.40625,-5.359375 0.484375,-5.140625 0.625,-4.71875 1.0625,-4.453125 1.71875,-4.3125 c -0.890625,0.359375 -1.4375,1.234375 -1.4375,2.1875 0,1.125 0.890625,2.21875 2.21875,2.21875 1.1875,0 2.1875,-0.96875 2.1875,-2.234375 0,-1.171875 -0.890625,-2.328125 -2.21875,-2.328125 H 2.328125 c -0.9375,-0.046875 -1.421875,-0.3125 -1.4375,-0.75 0,-0.484375 0.40625,-0.859375 1,-0.875 0.1875,0 0.40625,0.015625 0.625,0.046875 0.875,0.125 1.296875,0.03125 1.65625,-0.359375 0.1875,-0.1875 0.28125,-0.390625 0.25,-0.453125 -0.046875,-0.0625 -0.1875,-0.078125 -0.21875,-0.03125 -0.296875,0.125 -0.375,0.171875 -0.9375,0.171875 z m 0,0"
                   id="path134" />
              </g>
              <g
                 id="use19"
                 transform="translate(54.216949,9.0209999)">
                <path
                   style="stroke:none"
                   d="m 0.25,-4.296875 v 0.21875 h 0.234375 c 0.28125,0 0.546875,0.046875 0.546875,0.453125 v 2.953125 c 0,0.421875 -0.28125,0.4375 -0.78125,0.4375 v 0.21875 H 2.5 v -0.21875 H 2.328125 C 2.03125,-0.234375 1.71875,-0.265625 1.71875,-0.625 1.734375,-0.71875 1.828125,-0.78125 1.875,-0.859375 L 2.265625,-1.34375 C 2.78125,-1.96875 3.25,-2.65625 3.796875,-3.25 v 2.578125 c 0,0.34375 -0.140625,0.4375 -0.78125,0.4375 v 0.21875 H 5.28125 v -0.21875 H 5.046875 C 4.765625,-0.234375 4.5,-0.265625 4.5,-0.671875 V -3.625 c 0,-0.421875 0.25,-0.453125 0.78125,-0.453125 v -0.21875 H 3.015625 v 0.21875 h 0.1875 c 0.28125,0 0.59375,0.03125 0.59375,0.40625 -0.015625,0.078125 -0.09375,0.15625 -0.140625,0.21875 l -0.390625,0.5 c -0.53125,0.625 -1,1.296875 -1.546875,1.890625 v -2.578125 c 0,-0.34375 0.140625,-0.4375 0.78125,-0.4375 v -0.21875 z m 0,0"
                   id="path135" />
              </g>
              <g
                 id="use20"
                 transform="translate(59.746193,9.0209999)">
                <path
                   style="stroke:none"
                   d="m 1.171875,-4.296875 v 0.21875 h 0.21875 c 0.3125,0 0.59375,0.046875 0.59375,0.453125 0,0.75 -0.03125,1.578125 -0.1875,2.3125 -0.09375,0.484375 -0.21875,1.21875 -0.8125,1.21875 -0.15625,0 -0.265625,-0.0625 -0.390625,-0.140625 0.25,-0.03125 0.4375,-0.171875 0.4375,-0.421875 0,-0.234375 -0.1875,-0.421875 -0.4375,-0.421875 -0.234375,0 -0.40625,0.171875 -0.40625,0.453125 0,0.453125 0.359375,0.78125 0.796875,0.78125 0.6875,0 0.921875,-0.71875 1.046875,-1.265625 0.15625,-0.75 0.203125,-1.546875 0.203125,-2.3125 V -3.625 C 2.234375,-3.84375 2.25,-4.046875 2.5,-4.078125 h 0.953125 c 0.25,0 0.34375,0.109375 0.34375,0.359375 v 3.03125 c 0,0.421875 -0.203125,0.453125 -0.78125,0.453125 v 0.21875 H 5.28125 v -0.21875 H 5.046875 C 4.765625,-0.234375 4.5,-0.265625 4.5,-0.671875 V -3.625 c 0,-0.421875 0.25,-0.453125 0.78125,-0.453125 v -0.21875 z m 0,0"
                   id="path136" />
              </g>
              <g
                 id="use21"
                 transform="translate(65.275436,9.0209999)">
                <path
                   style="stroke:none"
                   d="m 0.25,-4.296875 v 0.21875 h 0.234375 c 0.28125,0 0.546875,0.046875 0.546875,0.453125 v 2.953125 c 0,0.421875 -0.28125,0.4375 -0.78125,0.4375 v 0.21875 H 2.5 v -0.21875 H 2.265625 c -0.296875,0 -0.546875,-0.03125 -0.546875,-0.4375 0,-0.078125 0,-0.15625 0,-0.21875 v -1.375 h 2.078125 v 1.375 c 0,0.0625 0.015625,0.140625 0.015625,0.21875 0,0.4375 -0.328125,0.4375 -0.796875,0.4375 v 0.21875 H 5.28125 v -0.21875 H 5.046875 C 4.765625,-0.234375 4.5,-0.265625 4.5,-0.671875 V -3.625 c 0,-0.421875 0.25,-0.453125 0.78125,-0.453125 v -0.21875 H 3.015625 v 0.21875 h 0.21875 c 0.28125,0 0.5625,0.046875 0.5625,0.421875 v 1.1875 H 1.71875 v -1.1875 c 0,-0.328125 0.125,-0.421875 0.78125,-0.421875 v -0.21875 z m 0,0"
                   id="path137" />
              </g>
              <g
                 id="use22"
                 transform="translate(70.80468,9.0209999)">
                <path
                   style="stroke:none"
                   d="m 2.34375,-4.46875 c -1.25,0.125 -2.0625,1.1875 -2.0625,2.34375 0,1.125 0.890625,2.21875 2.21875,2.21875 1.1875,0 2.1875,-0.96875 2.1875,-2.234375 0,-1.171875 -0.890625,-2.328125 -2.21875,-2.328125 -0.03125,0 -0.09375,0 -0.125,0 z m -1.234375,2.578125 v -0.4375 c 0,-0.765625 0.25,-1.921875 1.375,-1.921875 0.8125,0 1.265625,0.6875 1.359375,1.4375 0.015625,0.21875 0.015625,0.4375 0.015625,0.65625 0,0.640625 -0.078125,1.453125 -0.703125,1.8125 C 2.953125,-0.203125 2.734375,-0.15625 2.5,-0.15625 1.78125,-0.15625 1.265625,-0.71875 1.15625,-1.5 1.140625,-1.625 1.140625,-1.765625 1.109375,-1.890625 Z m 0,0"
                   id="path138" />
              </g>
              <g
                 id="use23"
                 transform="translate(75.776016,9.0209999)">
                <path
                   style="stroke:none"
                   d="m 3.578125,-3.859375 c -0.265625,0.015625 -0.46875,0.1875 -0.46875,0.453125 0,0.28125 0.1875,0.46875 0.453125,0.46875 0.3125,0 0.46875,-0.21875 0.46875,-0.5 V -3.5 C 3.921875,-4.234375 3.078125,-4.46875 2.5,-4.46875 c -1.21875,0 -2.171875,1.0625 -2.171875,2.3125 0,1.125 0.875,2.25 2.171875,2.25 0.65625,0 1.296875,-0.359375 1.5625,-1.046875 0.03125,-0.0625 0.078125,-0.15625 0.078125,-0.21875 0,-0.078125 -0.046875,-0.125 -0.125,-0.125 -0.140625,0 -0.234375,0.375 -0.3125,0.515625 -0.234375,0.375 -0.640625,0.625 -1.09375,0.625 -1.0625,0 -1.390625,-1.0625 -1.4375,-1.84375 v -0.125 c 0,-0.796875 0.1875,-1.984375 1.28125,-2.09375 H 2.53125 c 0.375,0 0.765625,0.109375 1.046875,0.359375 z m 0,0"
                   id="path139" />
              </g>
              <g
                 id="use24"
                 transform="translate(80.199409,9.0209999)">
                <path
                   style="stroke:none"
                   d="M 0.359375,-4.296875 0.25,-2.6875 H 0.5 c 0.015625,-0.375 0.03125,-0.875 0.234375,-1.125 C 0.921875,-4.03125 1.25,-4.078125 1.53125,-4.078125 h 0.1875 c 0.234375,0 0.421875,0.015625 0.421875,0.375 v 2.96875 c 0,0.453125 -0.375,0.515625 -0.75,0.515625 -0.109375,0 -0.25,-0.015625 -0.359375,-0.015625 v 0.21875 h 2.890625 v -0.21875 c -0.125,0 -0.25,0.015625 -0.375,0.015625 -0.375,0 -0.71875,-0.0625 -0.71875,-0.515625 v -2.96875 c 0,-0.203125 0,-0.375 0.421875,-0.375 h 0.1875 c 0.625,0 0.984375,0.203125 1.03125,1.390625 h 0.25 L 4.609375,-4.296875 Z m 0,0"
                   id="path140" />
              </g>
              <g
                 id="use25"
                 transform="translate(85.170746,9.0209999)">
                <path
                   style="stroke:none"
                   d="m 0.25,-4.296875 v 0.21875 h 0.234375 c 0.28125,0 0.546875,0.046875 0.546875,0.453125 v 2.953125 c 0,0.421875 -0.28125,0.4375 -0.78125,0.4375 v 0.21875 H 2.5 v -0.21875 H 2.328125 C 2.03125,-0.234375 1.71875,-0.265625 1.71875,-0.625 1.734375,-0.71875 1.828125,-0.78125 1.875,-0.859375 L 2.265625,-1.34375 C 2.78125,-1.96875 3.25,-2.65625 3.796875,-3.25 v 2.578125 c 0,0.34375 -0.140625,0.4375 -0.78125,0.4375 v 0.21875 H 5.28125 v -0.21875 H 5.046875 C 4.765625,-0.234375 4.5,-0.265625 4.5,-0.671875 V -3.625 c 0,-0.421875 0.25,-0.453125 0.78125,-0.453125 v -0.21875 H 3.015625 v 0.21875 h 0.1875 c 0.28125,0 0.59375,0.03125 0.59375,0.40625 -0.015625,0.078125 -0.09375,0.15625 -0.140625,0.21875 l -0.390625,0.5 c -0.53125,0.625 -1,1.296875 -1.546875,1.890625 v -2.578125 c 0,-0.34375 0.140625,-0.4375 0.78125,-0.4375 v -0.21875 z m 0,0"
                   id="path141" />
              </g>
            </g>
          </g>
        </g>
      </g>
    </g>
    <ellipse
       style="opacity:0.957787;fill:none;fill-opacity:1;stroke-linecap:round;stroke-linejoin:round;stroke-dasharray:8, 2, 1, 2;stroke:#000000"
       id="path1"
       cx="128.92363"
       cy="85.61277"
       rx="36.687199"
       ry="37.389664" />
    <path
       style="fill:none;stroke:#000000;stroke-width:1px;stroke-linecap:butt;stroke-linejoin:miter;stroke-opacity:1;marker-end:url(#ConcaveTriangle-7)"
       d="m 116.41937,31.286345 c 38.02102,-2.507901 59.98835,26.484099 38.33543,38.408791"
       id="path163-6"
       sodipodi:nodetypes="cc" />
  </g>
</svg>
