<?xml version="1.0" encoding="UTF-8" standalone="no"?>
<!-- Created with Inkscape (http://www.inkscape.org/) -->

<svg
   version="1.1"
   id="svg1"
   width="228.3647"
   height="97.182167"
   viewBox="0 0 228.3647 97.182167"
   xmlns="http://www.w3.org/2000/svg"
   xmlns:svg="http://www.w3.org/2000/svg">
  <defs
     id="defs1">
    <clipPath
       clipPathUnits="userSpaceOnUse"
       id="clipPath1">
      <path
         d="M 0,0 H 270 V 102 H 0 Z"
         transform="scale(1,-1.0020352)"
         id="path1" />
    </clipPath>
    <clipPath
       clipPathUnits="userSpaceOnUse"
       id="clipPath3">
      <path
         d="M 0,0 H 270 V 102 H 0 Z"
         transform="scale(1,-1.0020352)"
         id="path3" />
    </clipPath>
    <clipPath
       clipPathUnits="userSpaceOnUse"
       id="clipPath5">
      <path
         d="M 0,0 H 270 V 102 H 0 Z"
         transform="scale(1,-1.0020352)"
         id="path5" />
    </clipPath>
    <clipPath
       clipPathUnits="userSpaceOnUse"
       id="clipPath7">
      <path
         d="M 0,0 H 270 V 102 H 0 Z"
         id="path7" />
    </clipPath>
    <clipPath
       clipPathUnits="userSpaceOnUse"
       id="clipPath9">
      <path
         d="M 0,0 H 270 V 102 H 0 Z"
         transform="scale(1,-1.0020352)"
         id="path9" />
    </clipPath>
    <clipPath
       clipPathUnits="userSpaceOnUse"
       id="clipPath11">
      <path
         d="M 0,0 H 270 V 102 H 0 Z"
         transform="scale(1,-1.0020352)"
         id="path11" />
    </clipPath>
    <clipPath
       clipPathUnits="userSpaceOnUse"
       id="clipPath13">
      <path
         d="M 0,0 H 270 V 102 H 0 Z"
         transform="scale(1,-1.0020352)"
         id="path13" />
    </clipPath>
    <clipPath
       clipPathUnits="userSpaceOnUse"
       id="clipPath15">
      <path
         d="M 0,0 H 270 V 102 H 0 Z"
         transform="scale(1,-1.0020352)"
         id="path15" />
    </clipPath>
    <clipPath
       clipPathUnits="userSpaceOnUse"
       id="clipPath17">
      <path
         d="M 0,0 H 270 V 102 H 0 Z"
         transform="scale(1,-1.0020352)"
         id="path17" />
    </clipPath>
    <clipPath
       clipPathUnits="userSpaceOnUse"
       id="clipPath19">
      <path
         d="M 0,0 H 270 V 102 H 0 Z"
         transform="scale(1,-1.0020352)"
         id="path19" />
    </clipPath>
    <clipPath
       clipPathUnits="userSpaceOnUse"
       id="clipPath21">
      <path
         d="M 0,0 H 270 V 102 H 0 Z"
         transform="scale(1,-1.0020352)"
         id="path21" />
    </clipPath>
    <clipPath
       clipPathUnits="userSpaceOnUse"
       id="clipPath23">
      <path
         d="M 0,0 H 270 V 102 H 0 Z"
         transform="scale(1,-1.0020352)"
         id="path23" />
    </clipPath>
    <clipPath
       clipPathUnits="userSpaceOnUse"
       id="clipPath25">
      <path
         d="M 0,0 H 270 V 102 H 0 Z"
         transform="scale(1,-1.0020352)"
         id="path25" />
    </clipPath>
    <clipPath
       clipPathUnits="userSpaceOnUse"
       id="clipPath27">
      <path
         d="M 0,0 H 270 V 102 H 0 Z"
         transform="scale(1,-1.0020352)"
         id="path27" />
    </clipPath>
    <clipPath
       clipPathUnits="userSpaceOnUse"
       id="clipPath29">
      <path
         d="M 0,0 H 270 V 102 H 0 Z"
         transform="scale(1,-1.0020352)"
         id="path29" />
    </clipPath>
    <clipPath
       clipPathUnits="userSpaceOnUse"
       id="clipPath31">
      <path
         d="M 0,0 H 270 V 102 H 0 Z"
         transform="scale(1,-1.0020352)"
         id="path31" />
    </clipPath>
    <clipPath
       clipPathUnits="userSpaceOnUse"
       id="clipPath33">
      <path
         d="M 0,0 H 270 V 102 H 0 Z"
         transform="scale(1,-1.0020352)"
         id="path33" />
    </clipPath>
    <clipPath
       clipPathUnits="userSpaceOnUse"
       id="clipPath35">
      <path
         d="M 0,0 H 270 V 102 H 0 Z"
         transform="scale(1,-1.0020352)"
         id="path35" />
    </clipPath>
    <clipPath
       clipPathUnits="userSpaceOnUse"
       id="clipPath37">
      <path
         d="M 0,0 H 270 V 102 H 0 Z"
         transform="scale(1,-1.0020352)"
         id="path37" />
    </clipPath>
    <clipPath
       clipPathUnits="userSpaceOnUse"
       id="clipPath39">
      <path
         d="M 0,0 H 270 V 102 H 0 Z"
         transform="scale(1,-1.0020352)"
         id="path39" />
    </clipPath>
    <clipPath
       clipPathUnits="userSpaceOnUse"
       id="clipPath41">
      <path
         d="M 0,0 H 270 V 102 H 0 Z"
         transform="scale(1,-1.0020352)"
         id="path41" />
    </clipPath>
    <clipPath
       clipPathUnits="userSpaceOnUse"
       id="clipPath43">
      <path
         d="M 0,0 H 270 V 102 H 0 Z"
         transform="scale(1,-1.0020352)"
         id="path43" />
    </clipPath>
    <clipPath
       clipPathUnits="userSpaceOnUse"
       id="clipPath45">
      <path
         d="M 0,0 H 270 V 102 H 0 Z"
         id="path45" />
    </clipPath>
    <clipPath
       clipPathUnits="userSpaceOnUse"
       id="clipPath47">
      <path
         d="M 0,0 H 270 V 102 H 0 Z"
         transform="scale(1,-1.0020352)"
         id="path47" />
    </clipPath>
    <clipPath
       clipPathUnits="userSpaceOnUse"
       id="clipPath49">
      <path
         d="M 0,0 H 270 V 102 H 0 Z"
         transform="scale(1,-1.0020352)"
         id="path49" />
    </clipPath>
    <clipPath
       clipPathUnits="userSpaceOnUse"
       id="clipPath51">
      <path
         d="M 0,0 H 270 V 102 H 0 Z"
         transform="scale(1,-1.0020352)"
         id="path51" />
    </clipPath>
    <clipPath
       clipPathUnits="userSpaceOnUse"
       id="clipPath53">
      <path
         d="M 0,0 H 270 V 102 H 0 Z"
         transform="scale(1,-1.0020352)"
         id="path53" />
    </clipPath>
    <clipPath
       clipPathUnits="userSpaceOnUse"
       id="clipPath55">
      <path
         d="M 0,0 H 270 V 102 H 0 Z"
         transform="scale(1,-1.0020352)"
         id="path55" />
    </clipPath>
    <clipPath
       clipPathUnits="userSpaceOnUse"
       id="clipPath57">
      <path
         d="M 0,0 H 270 V 102 H 0 Z"
         transform="scale(1,-1.0020352)"
         id="path57" />
    </clipPath>
    <clipPath
       clipPathUnits="userSpaceOnUse"
       id="clipPath59">
      <path
         d="M 0,0 H 270 V 102 H 0 Z"
         transform="scale(1,-1.0020352)"
         id="path59" />
    </clipPath>
    <clipPath
       clipPathUnits="userSpaceOnUse"
       id="clipPath61">
      <path
         d="M 0,0 H 270 V 102 H 0 Z"
         transform="scale(1,-1.0020352)"
         id="path61" />
    </clipPath>
    <clipPath
       clipPathUnits="userSpaceOnUse"
       id="clipPath63">
      <path
         d="M 0,0 H 270 V 102 H 0 Z"
         transform="scale(1,-1.0020352)"
         id="path63" />
    </clipPath>
    <clipPath
       clipPathUnits="userSpaceOnUse"
       id="clipPath65">
      <path
         d="M 0,0 H 270 V 102 H 0 Z"
         transform="scale(1,-1.0020352)"
         id="path65" />
    </clipPath>
    <clipPath
       clipPathUnits="userSpaceOnUse"
       id="clipPath67">
      <path
         d="M 0,0 H 270 V 102 H 0 Z"
         transform="scale(1,-1.0020352)"
         id="path67" />
    </clipPath>
    <clipPath
       clipPathUnits="userSpaceOnUse"
       id="clipPath69">
      <path
         d="M 0,0 H 270 V 102 H 0 Z"
         transform="scale(1,-1.0020352)"
         id="path69" />
    </clipPath>
    <clipPath
       clipPathUnits="userSpaceOnUse"
       id="clipPath71">
      <path
         d="M 0,0 H 270 V 102 H 0 Z"
         transform="scale(1,-1.0020352)"
         id="path71" />
    </clipPath>
    <clipPath
       clipPathUnits="userSpaceOnUse"
       id="clipPath73">
      <path
         d="M 0,0 H 270 V 102 H 0 Z"
         transform="scale(1,-1.0020352)"
         id="path73" />
    </clipPath>
    <clipPath
       clipPathUnits="userSpaceOnUse"
       id="clipPath75">
      <path
         d="M 0,0 H 270 V 102 H 0 Z"
         transform="scale(1,-1.0020352)"
         id="path75" />
    </clipPath>
    <clipPath
       clipPathUnits="userSpaceOnUse"
       id="clipPath77">
      <path
         d="M 0,0 H 270 V 102 H 0 Z"
         transform="scale(1,-1.0020352)"
         id="path77" />
    </clipPath>
    <clipPath
       clipPathUnits="userSpaceOnUse"
       id="clipPath79">
      <path
         d="M 0,0 H 270 V 102 H 0 Z"
         id="path79" />
    </clipPath>
    <clipPath
       clipPathUnits="userSpaceOnUse"
       id="clipPath80">
      <path
         d="M 0,0 H 270 V 102 H 0 Z"
         id="path80" />
    </clipPath>
    <clipPath
       clipPathUnits="userSpaceOnUse"
       id="clipPath81">
      <path
         d="M 0,0 H 270 V 102 H 0 Z"
         id="path81" />
    </clipPath>
    <clipPath
       clipPathUnits="userSpaceOnUse"
       id="clipPath82">
      <path
         d="M 0,0 H 270 V 102 H 0 Z"
         id="path82" />
    </clipPath>
    <clipPath
       clipPathUnits="userSpaceOnUse"
       id="clipPath83">
      <path
         d="M 0,0 H 270 V 102 H 0 Z"
         id="path83" />
    </clipPath>
    <clipPath
       clipPathUnits="userSpaceOnUse"
       id="clipPath84">
      <path
         d="M 0,0 H 270 V 102 H 0 Z"
         id="path84" />
    </clipPath>
    <clipPath
       clipPathUnits="userSpaceOnUse"
       id="clipPath85">
      <path
         d="M 0,0 H 270 V 102 H 0 Z"
         id="path85" />
    </clipPath>
    <clipPath
       clipPathUnits="userSpaceOnUse"
       id="clipPath86">
      <path
         d="M 0,0 H 270 V 102 H 0 Z"
         id="path86" />
    </clipPath>
    <clipPath
       clipPathUnits="userSpaceOnUse"
       id="clipPath1-7-3-1">
      <path
         d="M 0,0 H 208 V 89 H 0 Z"
         transform="scale(1.0075049,-1)"
         id="path1-1-02-8" />
    </clipPath>
    <clipPath
       clipPathUnits="userSpaceOnUse"
       id="clipPath55-1-9">
      <g
         id="g56-5-6"
         transform="matrix(2.8559196,0,0,-2.8346458,135.84691,24.914006)">
        <path
           d="m -47.566785,8.7891071 h 37.207118 V 37.012739 h -37.207118 z"
           id="path55-6-4"
           style="stroke-width:0.352778" />
      </g>
    </clipPath>
    <clipPath
       clipPathUnits="userSpaceOnUse"
       id="clipPath127">
      <g
         id="g128"
         transform="matrix(0.7556287,0,0,-0.75000002,-79.118526,3.7001804)">
        <path
           d="M 104.70556,4.9335737 H 245.33089 V 111.60557 H 104.70556 Z"
           id="path127"
           style="stroke-width:1.33333" />
      </g>
    </clipPath>
  </defs>
  <g
     id="g1">
    <g
       id="g74" />
    <path
       d="m 43.406,-61.12 c 0,6.642 -5.386,12.028 -12.027,12.028 -6.645,0 -12.031,-5.386 -12.031,-12.028 0,-6.647 5.386,-12.029 12.031,-12.029 6.641,0 12.027,5.382 12.027,12.029"
       style="fill:none;stroke:#000000;stroke-width:0.977344;stroke-linecap:round;stroke-linejoin:bevel;stroke-miterlimit:6;stroke-dasharray:none;stroke-opacity:1"
       transform="matrix(1.0240613,0,0,-1.0219814,0,-16.163812)"
       clip-path="url(#clipPath1)"
       id="path2" />
    <path
       d="M 31.379,-37.064 V -49.092"
       style="fill:none;stroke:#000000;stroke-width:0.977344;stroke-linecap:round;stroke-linejoin:bevel;stroke-miterlimit:6;stroke-dasharray:none;stroke-opacity:1"
       transform="matrix(1.0240613,0,0,-1.0219814,0,-16.163812)"
       clip-path="url(#clipPath3)"
       id="path4" />
    <path
       d="m 31.379,-85.181 v 12.032"
       style="fill:none;stroke:#000000;stroke-width:0.977344;stroke-linecap:round;stroke-linejoin:bevel;stroke-miterlimit:6;stroke-dasharray:none;stroke-opacity:1"
       transform="matrix(1.0240613,0,0,-1.0219814,0,-16.163812)"
       clip-path="url(#clipPath5)"
       id="path6" />
    <path
       d="M 19.926,45.742 H 19.09 v 3.586 h -3.559 v 0.82 h 3.559 v 3.59 h 0.836 v -3.59 h 3.558 v -0.82 h -3.558 z"
       style="fill:#000000;fill-opacity:1;fill-rule:nonzero;stroke:none"
       transform="matrix(1.0240613,0,0,1.0240613,0,-16.163812)"
       clip-path="url(#clipPath7)"
       id="path8" />
    <g
       id="g10"
       transform="matrix(0.76804598,0,0,0.76804598,0,-16.163812)">
      <path
         d="m 31.379,-91.193 v 12.028"
         style="fill:none;stroke:#000000;stroke-width:0.977344;stroke-linecap:round;stroke-linejoin:bevel;stroke-miterlimit:6;stroke-dasharray:none;stroke-opacity:1"
         transform="scale(1.3333333,-1.3306253)"
         clip-path="url(#clipPath9)"
         id="path10" />
    </g>
    <path
       d="M 43.406,-91.193 H 19.348"
       style="fill:none;stroke:#000000;stroke-width:0.977344;stroke-linecap:round;stroke-linejoin:bevel;stroke-miterlimit:6;stroke-dasharray:none;stroke-opacity:1"
       transform="matrix(1.0240613,0,0,-1.0219814,0,-16.163812)"
       clip-path="url(#clipPath11)"
       id="path12" />
    <path
       d="M 38.145,-96.458 H 24.613"
       style="fill:none;stroke:#000000;stroke-width:0.977344;stroke-linecap:round;stroke-linejoin:bevel;stroke-miterlimit:6;stroke-dasharray:none;stroke-opacity:1"
       transform="matrix(1.0240613,0,0,-1.0219814,0,-16.163812)"
       clip-path="url(#clipPath13)"
       id="path14" />
    <path
       d="M 32.883,-101.718 H 29.875"
       style="fill:none;stroke:#000000;stroke-width:0.977344;stroke-linecap:round;stroke-linejoin:bevel;stroke-miterlimit:6;stroke-dasharray:none;stroke-opacity:1"
       transform="matrix(1.0240613,0,0,-1.0219814,0,-16.163812)"
       clip-path="url(#clipPath15)"
       id="path16" />
    <path
       d="M 81.371,-37.064 H 91.523"
       style="fill:none;stroke:#000000;stroke-width:0.977344;stroke-linecap:round;stroke-linejoin:bevel;stroke-miterlimit:6;stroke-dasharray:none;stroke-opacity:1"
       transform="matrix(1.0240613,0,0,-1.0219814,0,-16.163812)"
       clip-path="url(#clipPath17)"
       id="path18" />
    <path
       d="M 54.309,-37.064 H 43.406"
       style="fill:none;stroke:#000000;stroke-width:0.977344;stroke-linecap:round;stroke-linejoin:bevel;stroke-miterlimit:6;stroke-dasharray:none;stroke-opacity:1"
       transform="matrix(1.0240613,0,0,-1.0219814,0,-16.163812)"
       clip-path="url(#clipPath19)"
       id="path20" />
    <path
       d="m 81.371,-37.064 -2.254,5.261 -4.512,-10.901 -4.132,10.901 -4.512,-10.901 -4.887,10.901 -4.136,-10.149 -2.629,4.888"
       style="fill:none;stroke:#000000;stroke-width:0.977344;stroke-linecap:round;stroke-linejoin:bevel;stroke-miterlimit:6;stroke-dasharray:none;stroke-opacity:1"
       transform="matrix(1.0240613,0,0,-1.0219814,0,-16.163812)"
       clip-path="url(#clipPath21)"
       id="path22" />
    <path
       d="M 49.422,-37.064 H 31.379"
       style="fill:none;stroke:#000000;stroke-width:0.977344;stroke-linecap:round;stroke-linejoin:bevel;stroke-miterlimit:6;stroke-dasharray:none;stroke-opacity:1"
       transform="matrix(1.0240613,0,0,-1.0219814,0,-16.163812)"
       clip-path="url(#clipPath23)"
       id="path24" />
    <path
       d="m 103.551,-43.08 v 6.016 H 91.523"
       style="fill:none;stroke:#000000;stroke-width:0.977344;stroke-linecap:round;stroke-linejoin:bevel;stroke-miterlimit:6;stroke-dasharray:none;stroke-opacity:1"
       transform="matrix(1.0240613,0,0,-1.0219814,0,-16.163812)"
       clip-path="url(#clipPath25)"
       id="path26" />
    <path
       d="m 103.551,-91.193 v 12.028"
       style="fill:none;stroke:#000000;stroke-width:0.977344;stroke-linecap:round;stroke-linejoin:bevel;stroke-miterlimit:6;stroke-dasharray:none;stroke-opacity:1"
       transform="matrix(1.0240613,0,0,-1.0219814,0,-16.163812)"
       clip-path="url(#clipPath27)"
       id="path28" />
    <path
       d="M 115.578,-91.193 H 91.523"
       style="fill:none;stroke:#000000;stroke-width:0.977344;stroke-linecap:round;stroke-linejoin:bevel;stroke-miterlimit:6;stroke-dasharray:none;stroke-opacity:1"
       transform="matrix(1.0240613,0,0,-1.0219814,0,-16.163812)"
       clip-path="url(#clipPath29)"
       id="path30" />
    <path
       d="M 110.316,-96.458 H 96.785"
       style="fill:none;stroke:#000000;stroke-width:0.977344;stroke-linecap:round;stroke-linejoin:bevel;stroke-miterlimit:6;stroke-dasharray:none;stroke-opacity:1"
       transform="matrix(1.0240613,0,0,-1.0219814,0,-16.163812)"
       clip-path="url(#clipPath31)"
       id="path32" />
    <path
       d="m 105.055,-101.718 h -3.008"
       style="fill:none;stroke:#000000;stroke-width:0.977344;stroke-linecap:round;stroke-linejoin:bevel;stroke-miterlimit:6;stroke-dasharray:none;stroke-opacity:1"
       transform="matrix(1.0240613,0,0,-1.0219814,0,-16.163812)"
       clip-path="url(#clipPath33)"
       id="path34" />
    <path
       d="M 103.551,-63.379 V -85.181"
       style="fill:none;stroke:#000000;stroke-width:0.977344;stroke-linecap:round;stroke-linejoin:bevel;stroke-miterlimit:6;stroke-dasharray:none;stroke-opacity:1"
       transform="matrix(1.0240613,0,0,-1.0219814,0,-16.163812)"
       clip-path="url(#clipPath35)"
       id="path36" />
    <path
       d="m 103.551,-58.866 v 21.802"
       style="fill:none;stroke:#000000;stroke-width:0.977344;stroke-linecap:round;stroke-linejoin:bevel;stroke-miterlimit:6;stroke-dasharray:none;stroke-opacity:1"
       transform="matrix(1.0240613,0,0,-1.0219814,0,-16.163812)"
       clip-path="url(#clipPath37)"
       id="path38" />
    <path
       d="M 115.578,-58.866 H 91.523"
       style="fill:none;stroke:#000000;stroke-width:0.977344;stroke-linecap:round;stroke-linejoin:bevel;stroke-miterlimit:6;stroke-dasharray:none;stroke-opacity:1"
       transform="matrix(1.0240613,0,0,-1.0219814,0,-16.163812)"
       clip-path="url(#clipPath39)"
       id="path40" />
    <path
       d="M 115.578,-63.379 H 91.523"
       style="fill:none;stroke:#000000;stroke-width:0.977344;stroke-linecap:round;stroke-linejoin:bevel;stroke-miterlimit:6;stroke-dasharray:none;stroke-opacity:1"
       transform="matrix(1.0240613,0,0,-1.0219814,0,-16.163812)"
       clip-path="url(#clipPath41)"
       id="path42" />
    <path
       d="m 103.551,-37.064 h 36.086"
       style="fill:none;stroke:#000000;stroke-width:0.977344;stroke-linecap:round;stroke-linejoin:bevel;stroke-miterlimit:6;stroke-dasharray:none;stroke-opacity:1"
       transform="matrix(1.0240613,0,0,-1.0219814,0,-16.163812)"
       clip-path="url(#clipPath43)"
       id="path44" />
    <path
       d="m 105.805,36.988 c 0,-1.242 -1.008,-2.25 -2.254,-2.25 -1.246,0 -2.254,1.008 -2.254,2.25 0,1.242 1.008,2.25 2.254,2.25 1.246,0 2.254,-1.008 2.254,-2.25"
       style="fill:#000000;fill-opacity:1;fill-rule:evenodd;stroke:none"
       transform="matrix(1.0240613,0,0,1.0240613,0,-16.163812)"
       clip-path="url(#clipPath45)"
       id="path46" />
    <path
       d="m 247.898,-47.589 v 10.525"
       style="fill:none;stroke:#000000;stroke-width:0.977344;stroke-linecap:round;stroke-linejoin:bevel;stroke-miterlimit:6;stroke-dasharray:none;stroke-opacity:1"
       transform="matrix(1.0240613,0,0,-1.0219814,-54.218597,-16.163812)"
       clip-path="url(#clipPath47)"
       id="path48" />
    <path
       d="M 247.898,-74.656 V -85.181"
       style="fill:none;stroke:#000000;stroke-width:0.977344;stroke-linecap:round;stroke-linejoin:bevel;stroke-miterlimit:6;stroke-dasharray:none;stroke-opacity:1"
       transform="matrix(1.0240613,0,0,-1.0219814,-54.218597,-16.163812)"
       clip-path="url(#clipPath49)"
       id="path50" />
    <path
       d="m 247.898,-47.589 -5.265,-2.254 10.527,-4.513 -10.527,-4.51 10.527,-4.513 -10.527,-4.509 10.527,-4.509 -5.262,-2.259"
       style="fill:none;stroke:#000000;stroke-width:0.977344;stroke-linecap:round;stroke-linejoin:bevel;stroke-miterlimit:6;stroke-dasharray:none;stroke-opacity:1"
       transform="matrix(1.0240613,0,0,-1.0219814,-54.218597,-16.163812)"
       clip-path="url(#clipPath51)"
       id="path52" />
    <path
       d="m 241.883,-37.064 h -6.016"
       style="fill:none;stroke:#000000;stroke-width:0.977344;stroke-linecap:round;stroke-linejoin:bevel;stroke-miterlimit:6;stroke-dasharray:none;stroke-opacity:1"
       transform="matrix(1.0240613,0,0,-1.0219814,-54.218597,-16.163812)"
       clip-path="url(#clipPath53)"
       id="path54" />
    <path
       d="m 247.898,-37.064 h -6.015"
       style="fill:none;stroke:#000000;stroke-width:0.977344;stroke-linecap:round;stroke-linejoin:bevel;stroke-miterlimit:6;stroke-dasharray:none;stroke-opacity:1"
       transform="matrix(1.0240613,0,0,-1.0219814,-54.218597,-16.163812)"
       clip-path="url(#clipPath55)"
       id="path56" />
    <path
       d="m 247.898,-91.193 v 12.028"
       style="fill:none;stroke:#000000;stroke-width:0.977344;stroke-linecap:round;stroke-linejoin:bevel;stroke-miterlimit:6;stroke-dasharray:none;stroke-opacity:1"
       transform="matrix(1.0240613,0,0,-1.0219814,-54.218597,-16.163812)"
       clip-path="url(#clipPath57)"
       id="path58" />
    <path
       d="M 259.926,-91.193 H 235.867"
       style="fill:none;stroke:#000000;stroke-width:0.977344;stroke-linecap:round;stroke-linejoin:bevel;stroke-miterlimit:6;stroke-dasharray:none;stroke-opacity:1"
       transform="matrix(1.0240613,0,0,-1.0219814,-54.218597,-16.163812)"
       clip-path="url(#clipPath59)"
       id="path60" />
    <path
       d="M 254.664,-96.458 H 241.133"
       style="fill:none;stroke:#000000;stroke-width:0.977344;stroke-linecap:round;stroke-linejoin:bevel;stroke-miterlimit:6;stroke-dasharray:none;stroke-opacity:1"
       transform="matrix(1.0240613,0,0,-1.0219814,-54.218597,-16.163812)"
       clip-path="url(#clipPath61)"
       id="path62" />
    <path
       d="m 249.402,-101.718 h -3.007"
       style="fill:none;stroke:#000000;stroke-width:0.977344;stroke-linecap:round;stroke-linejoin:bevel;stroke-miterlimit:6;stroke-dasharray:none;stroke-opacity:1"
       transform="matrix(1.0240613,0,0,-1.0219814,-54.218597,-16.163812)"
       clip-path="url(#clipPath63)"
       id="path64" />
    <path
       d="M 151.668,-37.064 H 139.637"
       style="fill:none;stroke:#000000;stroke-width:0.977344;stroke-linecap:round;stroke-linejoin:bevel;stroke-miterlimit:6;stroke-dasharray:none;stroke-opacity:1"
       transform="matrix(1.0240613,0,0,-1.0219814,-12.320484,-16.163812)"
       clip-path="url(#clipPath73)"
       id="path74" />
    <path
       d="m 223.84,-37.064 h 12.027"
       style="fill:none;stroke:#000000;stroke-width:0.977344;stroke-linecap:round;stroke-linejoin:bevel;stroke-miterlimit:6;stroke-dasharray:none;stroke-opacity:1"
       transform="matrix(1.0240613,0,0,-1.0219814,-54.218597,-16.163812)"
       clip-path="url(#clipPath75)"
       id="path76" />
    <path
       d="M 30.446,-2.004 H 51.611 V -23.168 H 30.446 Z"
       style="fill:none;stroke:#000000;stroke-width:0.376405;stroke-linecap:round;stroke-linejoin:bevel;stroke-miterlimit:6;stroke-dasharray:none;stroke-opacity:1"
       transform="matrix(1.3234013,0,0,-1.3333333,104.70556,4.9335737)"
       clip-path="url(#clipPath127)"
       id="path189" />
    <path
       d="M 28.934,-0.492 H 53.122 V -24.68 H 28.934 Z"
       style="fill:none;stroke:#000000;stroke-width:0.752809;stroke-linecap:round;stroke-linejoin:bevel;stroke-miterlimit:6;stroke-dasharray:none;stroke-opacity:1"
       transform="matrix(1.3234013,0,0,-1.3333333,104.70556,4.9335737)"
       clip-path="url(#clipPath55-1-9)"
       id="path190" />
    <path
       style="fill:none;stroke:#000000;stroke-width:0.999999;stroke-linecap:round;stroke-linejoin:round;stroke-dasharray:none"
       d="m 151.32624,14.274044 c 5,-5.0000003 10.00001,5 15.00001,0"
       id="path193" />
    <path
       style="fill:none;stroke:#000000;stroke-width:0.999999;stroke-linecap:round;stroke-linejoin:round;stroke-dasharray:none"
       d="m 151.32624,21.214914 c 5,-5 10.00001,5 15.00001,0"
       id="path194" />
    <path
       style="fill:none;stroke:#000000;stroke-width:0.999999;stroke-linecap:round;stroke-linejoin:round;stroke-dasharray:none"
       d="m 151.32624,28.100234 c 5,-5 10.00001,5 15.00001,0"
       id="path195" />
    <path
       style="fill:none;stroke:#000000;stroke-width:0.999999px;stroke-linecap:butt;stroke-linejoin:miter;stroke-opacity:1"
       d="m 157.77838,16.087564 2.09573,-3.62704"
       id="path196-3-0" />
    <path
       style="fill:none;stroke:#000000;stroke-width:0.999999px;stroke-linecap:butt;stroke-linejoin:miter;stroke-opacity:1"
       d="m 157.77838,29.913754 2.09573,-3.62704"
       id="path196-3-6" />
    <g
       style="fill:#000000;fill-opacity:1"
       id="g3"
       transform="matrix(1.33333,0,0,1.33333,121.15802,26.077334)">
      <g
         id="use2"
         transform="translate(1.993,5.6469998)">
        <path
           style="stroke:none"
           d="M 7.234375,-3.265625 C 7.65625,-2.90625 8.171875,-2.640625 8.5,-2.5 8.140625,-2.328125 7.640625,-2.078125 7.234375,-1.71875 H 0.90625 c -0.171875,0 -0.359375,0 -0.359375,0.1875 0,0.203125 0.1875,0.203125 0.34375,0.203125 H 6.78125 C 6.3125,-0.875 5.796875,0.015625 5.796875,0.140625 5.796875,0.25 5.921875,0.25 5.984375,0.25 6.0625,0.25 6.125,0.25 6.171875,0.171875 6.375,-0.203125 6.65625,-0.734375 7.3125,-1.3125 8,-1.921875 8.65625,-2.1875 9.1875,-2.34375 c 0.15625,-0.0625 0.171875,-0.0625 0.1875,-0.09375 0.03125,0 0.03125,-0.03125 0.03125,-0.0625 0,-0.015625 0,-0.03125 -0.015625,-0.046875 l -0.03125,-0.03125 c -0.015625,0 -0.03125,-0.015625 -0.21875,-0.078125 -1.34375,-0.390625 -2.34375,-1.296875 -2.90625,-2.375 -0.109375,-0.1875 -0.109375,-0.203125 -0.25,-0.203125 -0.0625,0 -0.1875,0 -0.1875,0.109375 0,0.125 0.5,1 0.984375,1.46875 H 0.890625 c -0.15625,0 -0.34375,0 -0.34375,0.203125 0,0.1875 0.1875,0.1875 0.359375,0.1875 z m 0,0"
           id="path96" />
      </g>
    </g>
    <path
       style="fill:none;stroke:#000000;stroke-width:0.6;stroke-linecap:butt;stroke-linejoin:miter;stroke-dasharray:none;stroke-opacity:1"
       d="M 124.54451,29.002493 V 47.583764"
       id="path97" />
    <g
       style="fill:#000000;fill-opacity:1"
       id="g5"
       transform="matrix(1.33333,0,0,1.33333,122.31681,35.299129)">
      <g
         id="use4"
         transform="translate(1.993,8.8000002)">
        <path
           style="stroke:none"
           d="m 7.171875,-6.5625 c 0.015625,-0.046875 0.03125,-0.09375 0.03125,-0.15625 0,-0.09375 -0.046875,-0.09375 -0.25,-0.09375 H 2.75 c -0.234375,0 -0.25,0.015625 -0.3125,0.203125 L 1.890625,-4.8125 c -0.015625,0.046875 -0.03125,0.125 -0.03125,0.140625 0,0 0,0.109375 0.125,0.109375 0.09375,0 0.109375,-0.078125 0.125,-0.109375 C 2.5,-5.84375 3.015625,-6.5 4.5625,-6.5 h 1.625 L 0.625,-0.265625 c 0,0 -0.046875,0.140625 -0.046875,0.171875 C 0.578125,0 0.640625,0 0.828125,0 H 5.15625 c 0.25,0 0.25,-0.015625 0.3125,-0.203125 L 6.1875,-2.40625 c 0,-0.03125 0.03125,-0.109375 0.03125,-0.140625 0,-0.0625 -0.03125,-0.109375 -0.125,-0.109375 -0.09375,0 -0.109375,0.03125 -0.171875,0.25 C 5.484375,-1.0625 5,-0.34375 3.3125,-0.34375 H 1.609375 Z m 0,0"
           id="path98" />
      </g>
    </g>
    <g
       style="fill:#000000;fill-opacity:1"
       id="g99"
       transform="matrix(1.33333,0,0,1.33333,122.31681,35.299129)">
      <g
         id="use5"
         transform="translate(8.7930002,10.294)">
        <path
           style="stroke:none"
           d="m 2.515625,-3 v 0.25 c 0.46875,0 0.515625,0.046875 0.515625,0.390625 v 1.203125 c 0,0.609375 -0.390625,1.03125 -0.921875,1.03125 -0.625,0 -0.65625,-0.296875 -0.65625,-0.65625 V -3.078125 L 0.375,-3 v 0.25 c 0.53125,0 0.53125,0.03125 0.53125,0.640625 V -1.0625 c 0,0.484375 0,1.125 1.15625,1.125 0.15625,0 0.65625,0 1,-0.578125 V 0.0625 L 4.109375,0 v -0.25 c -0.46875,0 -0.515625,-0.046875 -0.515625,-0.390625 v -2.4375 z m 0,0"
           id="path99" />
      </g>
    </g>
    <g
       style="fill:#000000;fill-opacity:1"
       id="g103"
       transform="matrix(1.33333,0,0,1.33333,150.41868,38.455621)">
      <g
         id="g102"
         transform="translate(1.993,8.9110003)">
        <path
           style="stroke:none"
           d="m 3.65625,-3.984375 h 0.859375 c 0.203125,0 0.296875,0 0.296875,-0.203125 0,-0.109375 -0.09375,-0.109375 -0.265625,-0.109375 H 3.71875 L 3.921875,-5.4375 c 0.046875,-0.203125 0.1875,-0.90625 0.25,-1.03125 0.078125,-0.1875 0.25,-0.34375 0.46875,-0.34375 0.03125,0 0.296875,0 0.484375,0.1875 -0.4375,0.03125 -0.546875,0.390625 -0.546875,0.53125 0,0.234375 0.1875,0.359375 0.375,0.359375 C 5.21875,-5.734375 5.5,-5.96875 5.5,-6.34375 c 0,-0.453125 -0.453125,-0.6875 -0.859375,-0.6875 -0.34375,0 -0.96875,0.1875 -1.265625,1.171875 -0.0625,0.203125 -0.09375,0.3125 -0.328125,1.5625 h -0.6875 c -0.203125,0 -0.3125,0 -0.3125,0.1875 0,0.125 0.09375,0.125 0.28125,0.125 h 0.65625 L 2.25,-0.046875 c -0.1875,0.96875 -0.359375,1.875 -0.875,1.875 -0.046875,0 -0.28125,0 -0.484375,-0.1875 C 1.359375,1.609375 1.453125,1.25 1.453125,1.109375 1.453125,0.875 1.265625,0.75 1.078125,0.75 0.8125,0.75 0.53125,0.984375 0.53125,1.359375 c 0,0.4375 0.4375,0.6875 0.84375,0.6875 0.546875,0 0.953125,-0.59375 1.125,-0.96875 0.328125,-0.625 0.546875,-1.828125 0.5625,-1.90625 z m 0,0"
           id="path101" />
      </g>
    </g>
    <g
       style="fill:#000000;fill-opacity:1"
       id="g105"
       transform="matrix(1.33333,0,0,1.33333,150.41868,38.455621)">
      <g
         id="g104"
         transform="translate(6.8699999,10.406)">
        <path
           style="stroke:none"
           d="m 2.703125,-2.78125 c -0.125,0.0625 -0.1875,0.171875 -0.1875,0.3125 0,0.1875 0.125,0.328125 0.328125,0.328125 0.1875,0 0.328125,-0.125 0.328125,-0.34375 0,-0.625 -0.96875,-0.625 -1.15625,-0.625 -1.046875,0 -1.6875,0.796875 -1.6875,1.609375 0,0.875 0.734375,1.5625 1.65625,1.5625 1.03125,0 1.28125,-0.8125 1.28125,-0.90625 0,-0.078125 -0.09375,-0.078125 -0.125,-0.078125 -0.09375,0 -0.09375,0.015625 -0.125,0.125 C 2.859375,-0.375 2.484375,-0.15625 2.0625,-0.15625 c -0.484375,0 -1.109375,-0.359375 -1.109375,-1.359375 0,-0.875 0.4375,-1.375 1.078125,-1.375 0.09375,0 0.421875,0 0.671875,0.109375 z m 0,0"
           id="path103" />
      </g>
    </g>
    <g
       style="fill:#000000;fill-opacity:1"
       id="g109"
       transform="matrix(1.33333,0,0,1.33333,206.21907,39.090536)">
      <g
         id="g108"
         transform="translate(1.993,8.8000002)">
        <path
           style="stroke:none"
           d="m 3.734375,-6.125 c 0.0625,-0.234375 0.09375,-0.328125 0.28125,-0.359375 C 4.109375,-6.5 4.421875,-6.5 4.625,-6.5 c 0.703125,0 1.8125,0 1.8125,0.984375 0,0.34375 -0.15625,1.03125 -0.546875,1.421875 -0.265625,0.25 -0.78125,0.578125 -1.6875,0.578125 H 3.09375 Z m 1.4375,2.734375 c 1.015625,-0.21875 2.1875,-0.921875 2.1875,-1.921875 0,-0.859375 -0.890625,-1.5 -2.203125,-1.5 H 2.328125 c -0.203125,0 -0.296875,0 -0.296875,0.203125 C 2.03125,-6.5 2.125,-6.5 2.3125,-6.5 c 0.015625,0 0.203125,0 0.375,0.015625 0.1875,0.03125 0.265625,0.03125 0.265625,0.171875 0,0.03125 0,0.0625 -0.03125,0.1875 l -1.34375,5.34375 C 1.484375,-0.390625 1.46875,-0.3125 0.671875,-0.3125 0.5,-0.3125 0.40625,-0.3125 0.40625,-0.109375 0.40625,0 0.53125,0 0.546875,0 c 0.28125,0 0.984375,-0.03125 1.25,-0.03125 0.28125,0 1,0.03125 1.28125,0.03125 0.078125,0 0.1875,0 0.1875,-0.203125 0,-0.109375 -0.078125,-0.109375 -0.28125,-0.109375 -0.359375,0 -0.640625,0 -0.640625,-0.171875 0,-0.0625 0.015625,-0.109375 0.03125,-0.171875 l 0.65625,-2.640625 h 1.1875 c 0.90625,0 1.078125,0.5625 1.078125,0.90625 0,0.140625 -0.078125,0.453125 -0.140625,0.6875 C 5.09375,-1.421875 5,-1.0625 5,-0.859375 5,0.21875 6.203125,0.21875 6.328125,0.21875 c 0.84375,0 1.203125,-1 1.203125,-1.140625 0,-0.125 -0.109375,-0.125 -0.125,-0.125 -0.09375,0 -0.109375,0.0625 -0.125,0.140625 C 7.03125,-0.171875 6.59375,0 6.375,0 6.046875,0 5.96875,-0.21875 5.96875,-0.609375 c 0,-0.3125 0.0625,-0.8125 0.109375,-1.140625 0.015625,-0.140625 0.03125,-0.328125 0.03125,-0.46875 0,-0.765625 -0.671875,-1.078125 -0.9375,-1.171875 z m 0,0"
           id="path107" />
      </g>
    </g>
    <g
       style="fill:#000000;fill-opacity:1"
       id="g111"
       transform="matrix(1.33333,0,0,1.33333,206.21907,39.090536)">
      <g
         id="g110"
         transform="translate(9.5570002,10.294)">
        <path
           style="stroke:none"
           d="m 1.9375,1.09375 c -0.453125,0 -0.515625,0 -0.515625,-0.296875 v -1.125 C 1.453125,-0.296875 1.78125,0.0625 2.359375,0.0625 3.28125,0.0625 4.0625,-0.625 4.0625,-1.5 c 0,-0.859375 -0.703125,-1.578125 -1.59375,-1.578125 -0.390625,0 -0.796875,0.15625 -1.078125,0.4375 v -0.4375 L 0.34375,-3 v 0.25 c 0.484375,0 0.515625,0.046875 0.515625,0.328125 v 3.21875 c 0,0.296875 -0.0625,0.296875 -0.515625,0.296875 v 0.265625 c 0.015625,0 0.5,-0.03125 0.796875,-0.03125 0.25,0 0.734375,0.015625 0.796875,0.03125 z M 1.421875,-2.328125 C 1.625,-2.671875 2.03125,-2.84375 2.390625,-2.84375 c 0.59375,0 1.046875,0.609375 1.046875,1.34375 0,0.796875 -0.53125,1.375 -1.109375,1.375 -0.625,0 -0.890625,-0.53125 -0.90625,-0.578125 z m 0,0"
           id="path109" />
      </g>
    </g>
    <g
       style="fill:#000000;fill-opacity:1"
       id="g115"
       transform="matrix(1.33333,0,0,1.33333,63.311408,0.3082072)">
      <g
         id="g114"
         transform="translate(1.993,8.8000002)">
        <path
           style="stroke:none"
           d="m 3.734375,-6.125 c 0.0625,-0.234375 0.09375,-0.328125 0.28125,-0.359375 C 4.109375,-6.5 4.421875,-6.5 4.625,-6.5 c 0.703125,0 1.8125,0 1.8125,0.984375 0,0.34375 -0.15625,1.03125 -0.546875,1.421875 -0.265625,0.25 -0.78125,0.578125 -1.6875,0.578125 H 3.09375 Z m 1.4375,2.734375 c 1.015625,-0.21875 2.1875,-0.921875 2.1875,-1.921875 0,-0.859375 -0.890625,-1.5 -2.203125,-1.5 H 2.328125 c -0.203125,0 -0.296875,0 -0.296875,0.203125 C 2.03125,-6.5 2.125,-6.5 2.3125,-6.5 c 0.015625,0 0.203125,0 0.375,0.015625 0.1875,0.03125 0.265625,0.03125 0.265625,0.171875 0,0.03125 0,0.0625 -0.03125,0.1875 l -1.34375,5.34375 C 1.484375,-0.390625 1.46875,-0.3125 0.671875,-0.3125 0.5,-0.3125 0.40625,-0.3125 0.40625,-0.109375 0.40625,0 0.53125,0 0.546875,0 c 0.28125,0 0.984375,-0.03125 1.25,-0.03125 0.28125,0 1,0.03125 1.28125,0.03125 0.078125,0 0.1875,0 0.1875,-0.203125 0,-0.109375 -0.078125,-0.109375 -0.28125,-0.109375 -0.359375,0 -0.640625,0 -0.640625,-0.171875 0,-0.0625 0.015625,-0.109375 0.03125,-0.171875 l 0.65625,-2.640625 h 1.1875 c 0.90625,0 1.078125,0.5625 1.078125,0.90625 0,0.140625 -0.078125,0.453125 -0.140625,0.6875 C 5.09375,-1.421875 5,-1.0625 5,-0.859375 5,0.21875 6.203125,0.21875 6.328125,0.21875 c 0.84375,0 1.203125,-1 1.203125,-1.140625 0,-0.125 -0.109375,-0.125 -0.125,-0.125 -0.09375,0 -0.109375,0.0625 -0.125,0.140625 C 7.03125,-0.171875 6.59375,0 6.375,0 6.046875,0 5.96875,-0.21875 5.96875,-0.609375 c 0,-0.3125 0.0625,-0.8125 0.109375,-1.140625 0.015625,-0.140625 0.03125,-0.328125 0.03125,-0.46875 0,-0.765625 -0.671875,-1.078125 -0.9375,-1.171875 z m 0,0"
           id="path113" />
      </g>
    </g>
    <g
       style="fill:#000000;fill-opacity:1"
       id="g119"
       transform="matrix(1.33333,0,0,1.33333,77.152559,40.388616)">
      <g
         id="g118"
         transform="translate(1.993,8.8000002)">
        <path
           style="stroke:none"
           d="m 7.578125,-6.921875 c 0,-0.03125 -0.015625,-0.109375 -0.109375,-0.109375 -0.03125,0 -0.046875,0.015625 -0.15625,0.125 L 6.625,-6.140625 C 6.53125,-6.28125 6.078125,-7.03125 4.96875,-7.03125 2.734375,-7.03125 0.5,-4.828125 0.5,-2.515625 0.5,-0.875 1.671875,0.21875 3.203125,0.21875 c 0.859375,0 1.625,-0.390625 2.15625,-0.859375 0.921875,-0.8125 1.09375,-1.71875 1.09375,-1.75 C 6.453125,-2.5 6.34375,-2.5 6.328125,-2.5 c -0.0625,0 -0.109375,0.03125 -0.125,0.109375 -0.09375,0.28125 -0.328125,1 -1.015625,1.578125 -0.6875,0.546875 -1.3125,0.71875 -1.828125,0.71875 -0.890625,0 -1.953125,-0.515625 -1.953125,-2.0625 0,-0.578125 0.203125,-2.1875 1.203125,-3.359375 0.609375,-0.703125 1.546875,-1.203125 2.4375,-1.203125 1.015625,0 1.609375,0.765625 1.609375,1.921875 0,0.40625 -0.03125,0.40625 -0.03125,0.515625 0,0.09375 0.109375,0.09375 0.140625,0.09375 0.125,0 0.125,-0.015625 0.1875,-0.203125 z m 0,0"
           id="path117" />
      </g>
    </g>
    <g
       style="fill:#000000;fill-opacity:1"
       id="g123"
       transform="matrix(1.33333,0,0,1.33333,-0.1355519,39.771969)">
      <g
         id="g122"
         transform="translate(1.993,6.2820001)">
        <path
           style="stroke:none"
           d="m 4.671875,-3.703125 c 0,-0.546875 -0.265625,-0.703125 -0.4375,-0.703125 -0.25,0 -0.5,0.265625 -0.5,0.484375 0,0.125 0.046875,0.1875 0.15625,0.296875 0.21875,0.203125 0.34375,0.453125 0.34375,0.8125 0,0.421875 -0.609375,2.703125 -1.765625,2.703125 -0.515625,0 -0.75,-0.34375 -0.75,-0.875 0,-0.546875 0.28125,-1.28125 0.578125,-2.109375 0.078125,-0.171875 0.125,-0.3125 0.125,-0.5 0,-0.4375 -0.3125,-0.8125 -0.8125,-0.8125 -0.9375,0 -1.3125,1.453125 -1.3125,1.53125 0,0.109375 0.09375,0.109375 0.109375,0.109375 0.109375,0 0.109375,-0.03125 0.15625,-0.1875 0.296875,-1 0.71875,-1.234375 1.015625,-1.234375 0.078125,0 0.25,0 0.25,0.3125 0,0.25 -0.109375,0.53125 -0.171875,0.703125 -0.4375,1.15625 -0.5625,1.609375 -0.5625,2.046875 0,1.078125 0.875,1.234375 1.328125,1.234375 1.671875,0 2.25,-3.296875 2.25,-3.8125 z m 0,0"
           id="path121" />
      </g>
    </g>
    <g
       style="fill:#000000;fill-opacity:1"
       id="g125"
       transform="matrix(1.33333,0,0,1.33333,-0.1355519,39.771969)">
      <g
         id="g124"
         transform="translate(6.822,7.776)">
        <path
           style="stroke:none"
           d="m 5.1875,-1.359375 c 0,-0.3125 0.078125,-0.3125 0.546875,-0.3125 v -0.25 c -0.0625,0 -0.5625,0.03125 -0.90625,0.03125 -0.375,0 -0.890625,0 -1.265625,-0.03125 v 0.25 h 0.265625 c 0.703125,0 0.703125,0.09375 0.703125,0.3125 v 0.453125 c 0,0.15625 0,0.421875 -0.40625,0.625 -0.328125,0.171875 -0.71875,0.171875 -0.8125,0.171875 -0.796875,0 -2.078125,-0.453125 -2.078125,-2.28125 0,-1.84375 1.328125,-2.25 2.015625,-2.25 0.671875,0 1.515625,0.453125 1.6875,1.65625 0.015625,0.078125 0.078125,0.078125 0.125,0.078125 0.125,0 0.125,-0.046875 0.125,-0.1875 v -1.625 c 0,-0.125 0,-0.1875 -0.09375,-0.1875 -0.03125,0 -0.0625,0 -0.125,0.09375 l -0.359375,0.53125 c -0.34375,-0.359375 -0.84375,-0.625 -1.453125,-0.625 -1.453125,0 -2.671875,1.125 -2.671875,2.515625 0,1.390625 1.1875,2.53125 2.6875,2.53125 0.390625,0 1.15625,-0.078125 1.484375,-0.5625 C 4.78125,-0.234375 5.03125,0 5.109375,0 5.1875,0 5.1875,-0.078125 5.1875,-0.1875 Z m 0,0"
           id="path123" />
      </g>
    </g>
  </g>
</svg>
