<?xml version="1.0" encoding="UTF-8" standalone="no"?>
<!-- Created with Inkscape (http://www.inkscape.org/) -->

<svg
   version="1.1"
   id="svg1"
   width="226.05846"
   height="108.00316"
   viewBox="0 0 226.05846 108.00316"
   xmlns="http://www.w3.org/2000/svg"
   xmlns:svg="http://www.w3.org/2000/svg">
  <defs
     id="defs1">
    <clipPath
       clipPathUnits="userSpaceOnUse"
       id="clipPath14">
      <path
         d="M 0,0 H 170 V 82 H 0 Z"
         transform="scale(2.0884151,1)"
         id="path14" />
    </clipPath>
    <clipPath
       clipPathUnits="userSpaceOnUse"
       id="clipPath15">
      <path
         d="M 0,0 H 170 V 82 H 0 Z"
         transform="scale(2.0884151,1)"
         id="path15" />
    </clipPath>
    <clipPath
       clipPathUnits="userSpaceOnUse"
       id="clipPath16">
      <path
         d="M 0,0 H 170 V 82 H 0 Z"
         transform="scale(2.0884151,1)"
         id="path16" />
    </clipPath>
    <clipPath
       clipPathUnits="userSpaceOnUse"
       id="clipPath17">
      <path
         d="M 0,0 H 170 V 82 H 0 Z"
         transform="scale(2.0884151,1)"
         id="path17" />
    </clipPath>
    <clipPath
       clipPathUnits="userSpaceOnUse"
       id="clipPath18">
      <path
         d="M 0,0 H 170 V 82 H 0 Z"
         transform="scale(2.0884151,1)"
         id="path18" />
    </clipPath>
    <clipPath
       clipPathUnits="userSpaceOnUse"
       id="clipPath19">
      <path
         d="M 0,0 H 170 V 82 H 0 Z"
         transform="scale(2.0884151,1)"
         id="path19" />
    </clipPath>
    <clipPath
       clipPathUnits="userSpaceOnUse"
       id="clipPath20">
      <path
         d="M 0,0 H 170 V 82 H 0 Z"
         transform="scale(2.0884151,1)"
         id="path20" />
    </clipPath>
    <clipPath
       clipPathUnits="userSpaceOnUse"
       id="clipPath21">
      <path
         d="M 0,0 H 170 V 82 H 0 Z"
         transform="scale(2.0884151,1)"
         id="path21" />
    </clipPath>
    <clipPath
       clipPathUnits="userSpaceOnUse"
       id="clipPath22">
      <path
         d="M 0,0 H 170 V 82 H 0 Z"
         transform="scale(2.0884151,1)"
         id="path22" />
    </clipPath>
    <clipPath
       clipPathUnits="userSpaceOnUse"
       id="clipPath23">
      <path
         d="M 0,0 H 170 V 82 H 0 Z"
         transform="scale(2.0884151,1)"
         id="path23" />
    </clipPath>
    <clipPath
       clipPathUnits="userSpaceOnUse"
       id="clipPath24">
      <path
         d="M 0,0 H 170 V 82 H 0 Z"
         transform="scale(2.0884151,1)"
         id="path24" />
    </clipPath>
    <clipPath
       clipPathUnits="userSpaceOnUse"
       id="clipPath25">
      <path
         d="M 0,0 H 170 V 82 H 0 Z"
         transform="scale(2.0884151,1)"
         id="path25" />
    </clipPath>
    <clipPath
       clipPathUnits="userSpaceOnUse"
       id="clipPath26">
      <path
         d="M 0,0 H 170 V 82 H 0 Z"
         transform="scale(2.0884151,1)"
         id="path26" />
    </clipPath>
    <clipPath
       clipPathUnits="userSpaceOnUse"
       id="clipPath27">
      <path
         d="M 0,0 H 170 V 82 H 0 Z"
         transform="scale(2.0884151,1)"
         id="path27" />
    </clipPath>
    <clipPath
       clipPathUnits="userSpaceOnUse"
       id="clipPath28">
      <path
         d="M 0,0 H 170 V 82 H 0 Z"
         transform="scale(2.0884151,1)"
         id="path28" />
    </clipPath>
    <clipPath
       clipPathUnits="userSpaceOnUse"
       id="clipPath29">
      <path
         d="M 0,0 H 170 V 82 H 0 Z"
         transform="scale(2.0884151,1)"
         id="path29" />
    </clipPath>
    <clipPath
       clipPathUnits="userSpaceOnUse"
       id="clipPath30">
      <path
         d="M 0,0 H 170 V 82 H 0 Z"
         transform="scale(2.0884151,1)"
         id="path30" />
    </clipPath>
    <clipPath
       clipPathUnits="userSpaceOnUse"
       id="clipPath31">
      <path
         d="M 0,0 H 170 V 82 H 0 Z"
         transform="scale(2.0884151,1)"
         id="path31" />
    </clipPath>
    <clipPath
       clipPathUnits="userSpaceOnUse"
       id="clipPath50">
      <path
         d="m 162.305,0 h 7.238 v 81.004 h -7.238 z"
         transform="scale(1.3333333)"
         id="path50" />
    </clipPath>
    <clipPath
       clipPathUnits="userSpaceOnUse"
       id="clipPath73-6">
      <path
         d="M 0,0 H 178 V 169 H 0 Z"
         transform="scale(1.0024791,-1)"
         id="path73-3" />
    </clipPath>
    <clipPath
       clipPathUnits="userSpaceOnUse"
       id="clipPath75-1">
      <path
         d="M 0,0 H 178 V 169 H 0 Z"
         transform="scale(1.0024791,-1)"
         id="path75-7" />
    </clipPath>
    <clipPath
       clipPathUnits="userSpaceOnUse"
       id="clipPath77-5">
      <path
         d="M 0,0 H 178 V 169 H 0 Z"
         transform="scale(1.0024791,-1)"
         id="path77-9" />
    </clipPath>
    <clipPath
       clipPathUnits="userSpaceOnUse"
       id="clipPath79-6">
      <path
         d="M 0,0 H 178 V 169 H 0 Z"
         transform="scale(1.0024791,-1)"
         id="path79-2" />
    </clipPath>
  </defs>
  <g
     id="g1">
    <g
       id="g50"
       transform="matrix(-1,0,0,1,226.05733,0)">
      <path
         id="path1"
         d="m 0,62.184 h 162.551 v 18 H 0 Z"
         style="fill:#dedede;fill-opacity:1;fill-rule:evenodd;stroke:none"
         transform="scale(1.3333333)" />
      <path
         id="path13"
         d="M 0,62.184 H 161.109"
         style="fill:none;stroke:#000000;stroke-width:0.975;stroke-linecap:butt;stroke-linejoin:miter;stroke-miterlimit:4;stroke-dasharray:none;stroke-opacity:1"
         transform="scale(1.3333333)" />
      <g
         id="g49"
         clip-path="url(#clipPath50)">
        <path
           d="M 338.96,80.129 V -0.098"
           style="fill:none;stroke:#000000;stroke-width:1.83388;stroke-linecap:butt;stroke-linejoin:miter;stroke-miterlimit:4;stroke-dasharray:none;stroke-opacity:1"
           transform="scale(0.63844267,1.3333333)"
           clip-path="url(#clipPath14)"
           id="path32" />
        <path
           d="m 338.96,-0.098 15.116,5.77"
           style="fill:none;stroke:#000000;stroke-width:0.75;stroke-linecap:butt;stroke-linejoin:miter;stroke-miterlimit:4;stroke-dasharray:none;stroke-opacity:1"
           transform="scale(0.63844267,1.3333333)"
           clip-path="url(#clipPath15)"
           id="path33" />
        <path
           d="m 338.96,5.109 15.116,5.77"
           style="fill:none;stroke:#000000;stroke-width:0.75;stroke-linecap:butt;stroke-linejoin:miter;stroke-miterlimit:4;stroke-dasharray:none;stroke-opacity:1"
           transform="scale(0.63844267,1.3333333)"
           clip-path="url(#clipPath16)"
           id="path34" />
        <path
           d="m 338.96,10.316 15.116,5.77"
           style="fill:none;stroke:#000000;stroke-width:0.75;stroke-linecap:butt;stroke-linejoin:miter;stroke-miterlimit:4;stroke-dasharray:none;stroke-opacity:1"
           transform="scale(0.63844267,1.3333333)"
           clip-path="url(#clipPath17)"
           id="path35" />
        <path
           d="m 338.96,15.875 15.116,5.77"
           style="fill:none;stroke:#000000;stroke-width:0.75;stroke-linecap:butt;stroke-linejoin:miter;stroke-miterlimit:4;stroke-dasharray:none;stroke-opacity:1"
           transform="scale(0.63844267,1.3333333)"
           clip-path="url(#clipPath18)"
           id="path36" />
        <path
           d="m 338.96,21.434 15.116,5.769"
           style="fill:none;stroke:#000000;stroke-width:0.75;stroke-linecap:butt;stroke-linejoin:miter;stroke-miterlimit:4;stroke-dasharray:none;stroke-opacity:1"
           transform="scale(0.63844267,1.3333333)"
           clip-path="url(#clipPath19)"
           id="path37" />
        <path
           d="m 338.96,26.641 15.116,5.769"
           style="fill:none;stroke:#000000;stroke-width:0.75;stroke-linecap:butt;stroke-linejoin:miter;stroke-miterlimit:4;stroke-dasharray:none;stroke-opacity:1"
           transform="scale(0.63844267,1.3333333)"
           clip-path="url(#clipPath20)"
           id="path38" />
        <path
           d="m 338.96,31.844 15.116,5.769"
           style="fill:none;stroke:#000000;stroke-width:0.75;stroke-linecap:butt;stroke-linejoin:miter;stroke-miterlimit:4;stroke-dasharray:none;stroke-opacity:1"
           transform="scale(0.63844267,1.3333333)"
           clip-path="url(#clipPath21)"
           id="path39" />
        <path
           d="m 338.96,36.91 15.116,5.77"
           style="fill:none;stroke:#000000;stroke-width:0.75;stroke-linecap:butt;stroke-linejoin:miter;stroke-miterlimit:4;stroke-dasharray:none;stroke-opacity:1"
           transform="scale(0.63844267,1.3333333)"
           clip-path="url(#clipPath22)"
           id="path40" />
        <path
           d="m 338.96,41.93 15.116,5.769"
           style="fill:none;stroke:#000000;stroke-width:0.75;stroke-linecap:butt;stroke-linejoin:miter;stroke-miterlimit:4;stroke-dasharray:none;stroke-opacity:1"
           transform="scale(0.63844267,1.3333333)"
           clip-path="url(#clipPath23)"
           id="path41" />
        <path
           d="m 338.96,47.137 15.116,5.769"
           style="fill:none;stroke:#000000;stroke-width:0.75;stroke-linecap:butt;stroke-linejoin:miter;stroke-miterlimit:4;stroke-dasharray:none;stroke-opacity:1"
           transform="scale(0.63844267,1.3333333)"
           clip-path="url(#clipPath24)"
           id="path42" />
        <path
           d="m 338.96,52.344 15.116,5.769"
           style="fill:none;stroke:#000000;stroke-width:0.75;stroke-linecap:butt;stroke-linejoin:miter;stroke-miterlimit:4;stroke-dasharray:none;stroke-opacity:1"
           transform="scale(0.63844267,1.3333333)"
           clip-path="url(#clipPath25)"
           id="path43" />
        <path
           d="m 338.96,57.902 15.116,5.77"
           style="fill:none;stroke:#000000;stroke-width:0.75;stroke-linecap:butt;stroke-linejoin:miter;stroke-miterlimit:4;stroke-dasharray:none;stroke-opacity:1"
           transform="scale(0.63844267,1.3333333)"
           clip-path="url(#clipPath26)"
           id="path44" />
        <path
           d="m 338.96,63.574 15.116,5.77"
           style="fill:none;stroke:#000000;stroke-width:0.75;stroke-linecap:butt;stroke-linejoin:miter;stroke-miterlimit:4;stroke-dasharray:none;stroke-opacity:1"
           transform="scale(0.63844267,1.3333333)"
           clip-path="url(#clipPath27)"
           id="path45" />
        <path
           d="m 338.96,68.098 15.116,5.769"
           style="fill:none;stroke:#000000;stroke-width:0.75;stroke-linecap:butt;stroke-linejoin:miter;stroke-miterlimit:4;stroke-dasharray:none;stroke-opacity:1"
           transform="scale(0.63844267,1.3333333)"
           clip-path="url(#clipPath28)"
           id="path46" />
        <path
           d="m 338.96,73.305 15.116,5.769"
           style="fill:none;stroke:#000000;stroke-width:0.75;stroke-linecap:butt;stroke-linejoin:miter;stroke-miterlimit:4;stroke-dasharray:none;stroke-opacity:1"
           transform="scale(0.63844267,1.3333333)"
           clip-path="url(#clipPath29)"
           id="path47" />
        <path
           d="m 338.96,78.512 15.116,5.769"
           style="fill:none;stroke:#000000;stroke-width:0.75;stroke-linecap:butt;stroke-linejoin:miter;stroke-miterlimit:4;stroke-dasharray:none;stroke-opacity:1"
           transform="scale(0.63844267,1.3333333)"
           clip-path="url(#clipPath30)"
           id="path48" />
        <path
           d="M 338.96,-5.77 354.076,0"
           style="fill:none;stroke:#000000;stroke-width:0.75;stroke-linecap:butt;stroke-linejoin:miter;stroke-miterlimit:4;stroke-dasharray:none;stroke-opacity:1"
           transform="scale(0.63844267,1.3333333)"
           clip-path="url(#clipPath31)"
           id="path49" />
      </g>
    </g>
    <path
       id="path2"
       d="m 168.40666,93.854664 -96.647731,0"
       style="fill:none;stroke:#000000;stroke-width:1.3;stroke-linecap:round;stroke-linejoin:bevel;stroke-miterlimit:6;stroke-dasharray:none;stroke-opacity:1" />
    <path
       id="path3"
       d="m 167.65666,97.854664 c 5,-2.5 6.5,-2.5 14,-4 -7.5,-1.5 -9,-1.5 -14,-4 1,3 1,5 0,8"
       style="fill:#000000;fill-opacity:1;fill-rule:evenodd;stroke:none;stroke-width:1.33333" />
    <path
       id="path4"
       d="M 88.306664,18.912 H 168.30666 V 82.911998 H 88.306664 Z"
       style="fill:none;stroke:#000000;stroke-width:1.3;stroke-linecap:round;stroke-linejoin:bevel;stroke-miterlimit:6;stroke-dasharray:none;stroke-opacity:1" />
    <path
       id="path5"
       d="m 123.21866,53.707999 c -0.0427,0.229333 -0.14666,0.604 -0.14666,0.688 0,0.292 0.22933,0.416 0.48,0.416 0.18666,0 0.47866,-0.124 0.58266,-0.437334 0.0213,-0.04133 0.208,-0.770666 0.292,-1.186666 L 124.78,51.770665 c 0.10533,-0.354666 0.188,-0.708 0.272,-1.082666 0.0613,-0.272 0.18666,-0.729334 0.208,-0.792 0.24933,-0.5 1.08266,-1.937334 2.604,-1.937334 0.708,0 0.85466,0.582667 0.85466,1.104 0,0.396 -0.104,0.854667 -0.22933,1.333334 l -0.45867,1.833333 -0.312,1.229333 c -0.0627,0.312 -0.20933,0.853334 -0.20933,0.937334 0,0.292 0.22933,0.416 0.45867,0.416 0.5,0 0.604,-0.396 0.72933,-0.894667 0.208,-0.896 0.812,-3.229333 0.95867,-3.854667 0.0413,-0.188 0.87466,-2.104 2.62533,-2.104 0.68667,0 0.85333,0.541334 0.85333,1.104 0,0.916 -0.66666,2.729334 -0.97866,3.582667 -0.14667,0.376 -0.208,0.542667 -0.208,0.876 0,0.749333 0.56133,1.290667 1.312,1.290667 1.47866,0 2.08266,-2.312 2.08266,-2.437334 0,-0.166666 -0.14533,-0.166666 -0.18666,-0.166666 -0.16667,0 -0.16667,0.04267 -0.25067,0.292 -0.22933,0.833333 -0.74933,1.978666 -1.624,1.978666 -0.272,0 -0.376,-0.166666 -0.376,-0.541333 0,-0.396 0.14667,-0.770667 0.27067,-1.125333 0.31333,-0.833334 0.98,-2.604 0.98,-3.5 0,-1.041334 -0.62534,-1.708 -1.83334,-1.708 -1.188,0 -2,0.708 -2.604,1.541333 0,-0.208 -0.0627,-0.749333 -0.5,-1.124 -0.396,-0.333333 -0.91733,-0.417333 -1.31333,-0.417333 -1.43733,0 -2.208,1.021333 -2.47867,1.374666 -0.084,-0.896 -0.75066,-1.374666 -1.45866,-1.374666 -0.74934,0 -1.04134,0.625333 -1.188,0.896 -0.29067,0.562666 -0.49867,1.5 -0.49867,1.562666 0,0.145334 0.16533,0.145334 0.18667,0.145334 0.16666,0 0.188,0 0.27066,-0.353334 0.27067,-1.146666 0.604,-1.896 1.16667,-1.896 0.25067,0 0.5,0.124 0.5,0.729334 0,0.333333 -0.0413,0.5 -0.24933,1.333333 z"
       style="fill:#1e1c1c;fill-opacity:1;fill-rule:nonzero;stroke:none;stroke-width:1.33333" />
    <path
       id="path6"
       d="m 193.44713,93.537328 c 0.0827,-0.41733 0.45866,-1.876 1.56266,-1.876 0.0827,0 0.45867,0 0.792,0.20934 -0.43866,0.0613 -0.75066,0.47866 -0.75066,0.85333 0,0.25067 0.16666,0.56267 0.604,0.56267 0.35466,0 0.85466,-0.292 0.85466,-0.93734 0,-0.812 -0.93733,-1.04133 -1.48,-1.04133 -0.916,0 -1.47866,0.83333 -1.66666,1.208 -0.39467,-1.04133 -1.27067,-1.208 -1.728,-1.208 -1.64667,0 -2.56267,2.06267 -2.56267,2.45733 0,0.14667 0.16667,0.14667 0.18667,0.14667 0.12533,0 0.16666,-0.0213 0.20933,-0.16667 0.54133,-1.688 1.604,-2.084 2.14533,-2.084 0.292,0 0.85467,0.14667 0.85467,1.06267 0,0.5 -0.272,1.56267 -0.85467,3.792 -0.27066,0.97867 -0.812,1.66667 -1.52133,1.66667 -0.104,0 -0.45733,0 -0.79067,-0.208 0.39467,-0.084 0.74934,-0.41734 0.74934,-0.876 0,-0.416 -0.35467,-0.54134 -0.604,-0.54134 -0.47867,0 -0.87467,0.396 -0.87467,0.91734 0,0.72933 0.79067,1.04133 1.5,1.04133 1.06267,0 1.624,-1.104 1.66667,-1.208 0.208,0.604 0.77066,1.208 1.72933,1.208 1.64533,0 2.54133,-2.04133 2.54133,-2.43733 0,-0.16667 -0.12533,-0.16667 -0.188,-0.16667 -0.14533,0 -0.16666,0.0627 -0.208,0.16667 -0.52133,1.708 -1.604,2.104 -2.104,2.104 -0.62533,0 -0.896,-0.52134 -0.896,-1.06267 0,-0.35467 0.104,-0.708 0.27067,-1.396 z"
       style="fill:#1e1c1c;fill-opacity:1;fill-rule:nonzero;stroke:none;stroke-width:1.33333" />
    <path
       id="path7"
       d="m 26.846015,92.250664 h -0.896 l 0.02133,3.708 c -0.376,0.5 -0.709333,0.729334 -1.125333,0.729334 -0.584,0 -0.937334,-0.417334 -0.937334,-1.104 v -3.333334 h -0.874666 v 4.812 c 0,0.208 -0.04267,0.478667 -0.105334,0.770667 -0.186666,0.625333 -0.186666,0.688 -0.186666,0.916 0,0.417333 0.208,0.729333 0.5,0.729333 0.292,0 0.5,-0.312 0.5,-0.749333 0,-0.208 -0.04133,-0.333333 -0.208,-0.917333 -0.084,-0.374667 -0.105334,-0.478667 -0.105334,-0.749334 v -0.125333 c 0.417334,0.354667 0.646667,0.458667 0.98,0.458667 0.5,0 1.02,-0.313334 1.562667,-0.937334 0.06267,0.333334 0.124,0.458667 0.229333,0.604 0.145334,0.208 0.416,0.333334 0.708,0.333334 0.625334,0 1.062667,-0.437334 1.186667,-1.208 l -0.270667,-0.02133 c -0.04133,0.396 -0.249333,0.688 -0.478666,0.688 -0.292,0 -0.5,-0.354666 -0.5,-0.896 z"
       style="fill:#1e1c1c;fill-opacity:1;fill-rule:nonzero;stroke:none;stroke-width:1.33333" />
    <path
       id="path8"
       d="m 38.434014,94.749331 c -1.396,1.021333 -1.604,2.48 -1.604,2.501333 0,0.165334 0.125334,0.165334 0.270667,0.165334 0.209333,0 0.250667,0 0.292,-0.186667 0.06267,-0.292 0.250667,-1 0.833333,-1.604 0.645334,-0.688 1.208,-0.854667 1.666667,-1 0.084,-0.02133 0.125333,-0.084 0.125333,-0.146667 0,-0.104 -0.084,-0.124 -0.208,-0.186666 -1.625333,-0.5 -2.188,-1.646667 -2.417333,-2.625334 -0.04133,-0.145333 -0.125333,-0.145333 -0.292,-0.145333 -0.145333,0 -0.270667,0 -0.270667,0.186667 0,0.02133 0.125334,0.770666 0.666667,1.542666 0.250667,0.374667 0.562667,0.686667 0.937333,0.957334 h -8.957333 c -0.188,0 -0.458666,0 -0.458666,0.250666 0,0.290667 0.270666,0.290667 0.458666,0.290667 z"
       style="fill:#1e1c1c;fill-opacity:1;fill-rule:nonzero;stroke:none;stroke-width:1.33333" />
    <path
       id="path9"
       d="m 46.606014,93.707998 c 0,-1.229334 -0.145333,-2.104 -0.666667,-2.896 -0.353333,-0.5 -1.041333,-0.957334 -1.937333,-0.957334 -2.582666,0 -2.582666,3.041334 -2.582666,3.853334 0,0.813333 0,3.792 2.582666,3.792 2.604,0 2.604,-2.978667 2.604,-3.792 z m -2.604,3.48 c -0.5,0 -1.188,-0.313334 -1.416,-1.229334 -0.146666,-0.646666 -0.146666,-1.562666 -0.146666,-2.396 0,-0.813333 0,-1.666666 0.166666,-2.270666 0.229334,-0.896 0.937333,-1.125334 1.396,-1.125334 0.604,0 1.188,0.374667 1.396,1.021334 0.166667,0.604 0.188,1.396 0.188,2.374666 0,0.833334 0,1.645334 -0.146667,2.354667 -0.229333,1.02 -0.978666,1.270667 -1.437333,1.270667 z"
       style="fill:#1e1c1c;fill-opacity:1;fill-rule:nonzero;stroke:none;stroke-width:1.33333" />
    <path
       id="path10"
       d="m 208.88533,55.182665 c 5,-2.5 6.5,-2.5 14,-4 -7.5,-1.5 -9,-1.5 -14,-4 1,3 1,5 0,8"
       style="fill:#000000;fill-opacity:1;fill-rule:evenodd;stroke:none;stroke-width:1.33333" />
    <path
       id="path11"
       d="m 213.21866,51.182665 h -44.912"
       style="fill:none;stroke:#000000;stroke-width:1.3;stroke-linecap:round;stroke-linejoin:bevel;stroke-miterlimit:6;stroke-dasharray:none;stroke-opacity:1" />
    <g
       transform="translate(209.63952,33.55743)"
       id="g51">
      <g
         id="surface2"
         transform="matrix(1.33333,0,0,1.33333,-3.17817,-2.729)">
        <g
           style="fill:#000000;fill-opacity:1"
           id="g3">
          <g
             id="use2"
             transform="translate(1.993,8.8280001)">
            <path
               style="stroke:none"
               d="M 6.421875,-6.78125 H 0.390625 V -6.3125 H 1.46875 v 5.84375 H 0.390625 V 0 c 0.375,-0.03125 1.390625,-0.03125 1.828125,-0.03125 0.484375,0 1.5625,0 2.015625,0.03125 V -0.46875 H 2.875 v -2.6875 h 0.5 c 0.96875,0 1.046875,0.421875 1.046875,1.15625 h 0.46875 V -4.796875 H 4.421875 C 4.421875,-4.0625 4.34375,-3.625 3.375,-3.625 h -0.5 v -2.6875 h 1.40625 c 1.59375,0 1.828125,0.765625 1.984375,1.9375 h 0.46875 z m 0,0"
               id="path51" />
          </g>
        </g>
      </g>
    </g>
    <g
       id="g15"
       transform="matrix(2.9073863,0,0,2.9073863,183.66164,-40.923171)">
      <path
         id="path19-4"
         d="m -51.858335,27.781252 c 0.529167,-2.513542 2.513542,-2.778125 3.175,0"
         style="fill:none;stroke:#000000;stroke-width:0.343958;stroke-linecap:round;stroke-linejoin:bevel;stroke-miterlimit:6;stroke-dasharray:none;stroke-opacity:1" />
      <path
         id="path20-8"
         d="m -49.212502,27.781252 c -0.396875,2.645834 0.926042,2.645834 0.529167,0"
         style="fill:none;stroke:#000000;stroke-width:0.343958;stroke-linecap:round;stroke-linejoin:bevel;stroke-miterlimit:6;stroke-dasharray:none;stroke-opacity:1" />
      <path
         id="path21-1"
         d="m -32.797491,27.781252 -7.948343,0"
         style="fill:none;stroke:#000000;stroke-width:0.343958;stroke-linecap:round;stroke-linejoin:bevel;stroke-miterlimit:6;stroke-dasharray:none;stroke-opacity:1" />
      <path
         id="path22-0"
         d="m -59.851342,27.781252 7.993007,0"
         style="fill:none;stroke:#000000;stroke-width:0.343958;stroke-linecap:round;stroke-linejoin:bevel;stroke-miterlimit:6;stroke-dasharray:none;stroke-opacity:1" />
      <path
         d="m 110.78531,-19.398 -32.941872,0"
         style="fill:none;stroke:#000000;stroke-width:0.814931;stroke-linecap:round;stroke-linejoin:bevel;stroke-miterlimit:6;stroke-dasharray:none;stroke-opacity:1"
         transform="matrix(0.42163751,0,0,-0.4226828,-92.673055,27.244861)"
         clip-path="url(#clipPath73-6)"
         id="path74-7" />
      <path
         d="m 111.31906,-19.398 27.45888,0"
         style="fill:none;stroke:#000000;stroke-width:0.814931;stroke-linecap:round;stroke-linejoin:bevel;stroke-miterlimit:6;stroke-dasharray:none;stroke-opacity:1"
         transform="matrix(0.42163751,0,0,-0.4226828,-91.311475,27.244861)"
         clip-path="url(#clipPath75-1)"
         id="path76-8" />
      <path
         d="m 106.88198,-11.260656 h 6.15102 v -16.27469 h -6.15102"
         style="fill:none;stroke:#000000;stroke-width:0.814931;stroke-linecap:round;stroke-linejoin:bevel;stroke-miterlimit:6;stroke-dasharray:none;stroke-opacity:1"
         transform="matrix(0.42163751,0,0,-0.4226828,-92.034143,27.244861)"
         clip-path="url(#clipPath77-5)"
         id="path78-5" />
      <path
         d="m 109.27,-23.466674 v 8.137345"
         style="fill:none;stroke:#000000;stroke-width:2.04776;stroke-linecap:round;stroke-linejoin:bevel;stroke-miterlimit:6;stroke-dasharray:none;stroke-opacity:1"
         transform="matrix(0.42163751,0,0,-0.4226828,-92.034143,27.244861)"
         clip-path="url(#clipPath79-6)"
         id="path80-7" />
      <path
         id="path23-3"
         d="m -49.212502,27.781252 c 0.529167,-2.513542 2.513542,-2.778125 3.175001,0"
         style="fill:none;stroke:#000000;stroke-width:0.343958;stroke-linecap:round;stroke-linejoin:bevel;stroke-miterlimit:6;stroke-dasharray:none;stroke-opacity:1" />
      <path
         id="path24-0"
         d="m -46.566668,27.781252 c 0.529167,-2.513542 2.513542,-2.778125 3.175,0"
         style="fill:none;stroke:#000000;stroke-width:0.343958;stroke-linecap:round;stroke-linejoin:bevel;stroke-miterlimit:6;stroke-dasharray:none;stroke-opacity:1" />
      <path
         id="path25-4"
         d="m -43.920835,27.781252 c 0.529167,-2.513542 2.513542,-2.778125 3.175001,0"
         style="fill:none;stroke:#000000;stroke-width:0.343958;stroke-linecap:round;stroke-linejoin:bevel;stroke-miterlimit:6;stroke-dasharray:none;stroke-opacity:1" />
      <path
         id="path26-4"
         d="m -46.566668,27.781252 c -0.396875,2.645834 0.926042,2.645834 0.529167,0"
         style="fill:none;stroke:#000000;stroke-width:0.343958;stroke-linecap:round;stroke-linejoin:bevel;stroke-miterlimit:6;stroke-dasharray:none;stroke-opacity:1" />
      <path
         id="path27-4"
         d="m -43.920835,27.781252 c -0.396875,2.645834 0.926042,2.645834 0.529167,0"
         style="fill:none;stroke:#000000;stroke-width:0.343958;stroke-linecap:round;stroke-linejoin:bevel;stroke-miterlimit:6;stroke-dasharray:none;stroke-opacity:1" />
    </g>
    <path
       style="fill:none;stroke:#000000;stroke-width:1px;stroke-linecap:butt;stroke-linejoin:miter;stroke-opacity:1"
       d="m 88.136835,89.581806 v 8.545715"
       id="path52" />
    <g
       transform="translate(59.378491,20.221538)"
       id="g56">
      <g
         id="g55"
         transform="matrix(1.33333,0,0,1.33333,-3.3865,-2.65217)">
        <g
           style="fill:#000000;fill-opacity:1"
           id="g54">
          <g
             id="g53"
             transform="translate(1.993,8.9110003)">
            <path
               style="stroke:none"
               d="m 2.859375,-6.8125 c 0,0 0,-0.109375 -0.125,-0.109375 -0.234375,0 -0.953125,0.078125 -1.21875,0.109375 -0.078125,0 -0.1875,0.015625 -0.1875,0.1875 0,0.125 0.09375,0.125 0.234375,0.125 0.484375,0 0.5,0.0625 0.5,0.171875 L 2.03125,-6.125 0.59375,-0.390625 c -0.046875,0.140625 -0.046875,0.15625 -0.046875,0.21875 0,0.234375 0.203125,0.28125 0.296875,0.28125 0.125,0 0.265625,-0.09375 0.328125,-0.203125 0.046875,-0.09375 0.5,-1.9375 0.5625,-2.1875 0.34375,0.03125 1.15625,0.1875 1.15625,0.84375 0,0.078125 0,0.109375 -0.03125,0.21875 -0.015625,0.109375 -0.03125,0.234375 -0.03125,0.34375 0,0.578125 0.390625,0.984375 0.90625,0.984375 0.296875,0 0.578125,-0.15625 0.796875,-0.53125 0.25,-0.4375 0.359375,-0.984375 0.359375,-1 0,-0.109375 -0.09375,-0.109375 -0.125,-0.109375 -0.09375,0 -0.109375,0.046875 -0.140625,0.1875 -0.203125,0.71875 -0.421875,1.234375 -0.859375,1.234375 -0.203125,0 -0.328125,-0.109375 -0.328125,-0.46875 0,-0.171875 0.046875,-0.40625 0.078125,-0.5625 C 3.5625,-1.3125 3.5625,-1.34375 3.5625,-1.453125 3.5625,-2.09375 2.9375,-2.375 2.078125,-2.5 2.390625,-2.671875 2.71875,-2.984375 2.9375,-3.234375 3.421875,-3.765625 3.875,-4.1875 4.359375,-4.1875 c 0.0625,0 0.078125,0 0.09375,0.015625 0.125,0.015625 0.125,0.015625 0.21875,0.078125 0.015625,0 0.015625,0.015625 0.03125,0.03125 -0.46875,0.03125 -0.5625,0.421875 -0.5625,0.546875 0,0.15625 0.109375,0.34375 0.375,0.34375 0.265625,0 0.546875,-0.21875 0.546875,-0.609375 0,-0.296875 -0.234375,-0.625 -0.671875,-0.625 -0.28125,0 -0.734375,0.078125 -1.453125,0.875 -0.34375,0.375 -0.734375,0.78125 -1.109375,0.921875 z m 0,0"
               id="path53" />
          </g>
        </g>
      </g>
    </g>
    <g
       transform="translate(59.940986,49.3141)"
       id="g60">
      <g
         id="g59"
         transform="matrix(1.33333,0,0,1.33333,-3.28233,-2.65217)">
        <g
           style="fill:#000000;fill-opacity:1"
           id="g58">
          <g
             id="g57"
             transform="translate(1.993,8.9110003)">
            <path
               style="stroke:none"
               d="m 2.375,-6.8125 c 0,0 0,-0.109375 -0.125,-0.109375 -0.21875,0 -0.953125,0.078125 -1.21875,0.109375 -0.078125,0 -0.1875,0.015625 -0.1875,0.1875 0,0.125 0.09375,0.125 0.25,0.125 0.46875,0 0.484375,0.0625 0.484375,0.171875 0,0.0625 -0.078125,0.40625 -0.125,0.609375 l -0.828125,3.25 c -0.109375,0.5 -0.15625,0.671875 -0.15625,1.015625 0,0.9375 0.53125,1.5625 1.265625,1.5625 1.171875,0 2.40625,-1.484375 2.40625,-2.921875 0,-0.90625 -0.53125,-1.59375 -1.328125,-1.59375 -0.453125,0 -0.875,0.296875 -1.171875,0.59375 z M 1.453125,-3.046875 C 1.5,-3.265625 1.5,-3.28125 1.59375,-3.390625 2.078125,-4.03125 2.53125,-4.1875 2.796875,-4.1875 c 0.359375,0 0.625,0.296875 0.625,0.9375 0,0.59375 -0.328125,1.734375 -0.515625,2.109375 -0.328125,0.671875 -0.78125,1.03125 -1.171875,1.03125 -0.34375,0 -0.671875,-0.265625 -0.671875,-1 0,-0.203125 0,-0.390625 0.15625,-1.015625 z m 0,0"
               id="path56" />
          </g>
        </g>
      </g>
    </g>
  </g>
</svg>
